<svg width="261" height="68" viewBox="0 0 261 68" fill="none" xmlns="http://www.w3.org/2000/svg">
<path d="M32.036 64L33.016 53.822H35.55L37.776 61.676L37.874 62.18L37.986 61.676L40.198 53.822H42.746L43.698 64H41.864L41.318 56.328L41.276 55.656L41.108 56.328L38.896 63.86H36.838L34.598 56.314L34.43 55.656L34.388 56.314L33.87 64H32.036ZM48.9819 64.182C48.3239 64.182 47.7102 64.035 47.1409 63.741C46.5716 63.4423 46.1096 63.0107 45.7549 62.446C45.4049 61.8767 45.2299 61.186 45.2299 60.374C45.2299 59.716 45.3466 59.149 45.5799 58.673C45.8179 58.1923 46.1259 57.798 46.5039 57.49C46.8819 57.182 47.2879 56.9533 47.7219 56.804C48.1606 56.6547 48.5806 56.58 48.9819 56.58C49.7239 56.58 50.3749 56.741 50.9349 57.063C51.4996 57.385 51.9406 57.833 52.2579 58.407C52.5752 58.9763 52.7339 59.632 52.7339 60.374C52.7339 60.9667 52.6266 61.4987 52.4119 61.97C52.1972 62.4413 51.9102 62.8427 51.5509 63.174C51.1916 63.5007 50.7879 63.7503 50.3399 63.923C49.8966 64.0957 49.4439 64.182 48.9819 64.182ZM48.9819 62.754C49.3459 62.754 49.6516 62.6467 49.8989 62.432C50.1462 62.2173 50.3329 61.9303 50.4589 61.571C50.5849 61.2117 50.6479 60.8127 50.6479 60.374C50.6479 59.94 50.5849 59.5433 50.4589 59.184C50.3329 58.8247 50.1462 58.54 49.8989 58.33C49.6516 58.1153 49.3459 58.008 48.9819 58.008C48.6179 58.008 48.3099 58.1153 48.0579 58.33C47.8106 58.54 47.6216 58.8247 47.4909 59.184C47.3649 59.5433 47.3019 59.94 47.3019 60.374C47.3019 61.074 47.4536 61.6457 47.7569 62.089C48.0649 62.5323 48.4732 62.754 48.9819 62.754ZM54.2228 64V58.526C54.2228 58.2647 54.2065 57.987 54.1738 57.693C54.1412 57.399 54.0828 57.0887 53.9988 56.762H55.4828C55.5622 56.8227 55.6462 56.951 55.7348 57.147C55.8235 57.343 55.8842 57.56 55.9168 57.798L55.9448 58.134L56.0848 57.798C56.2762 57.4247 56.5212 57.1353 56.8198 56.93C57.1232 56.7247 57.4242 56.622 57.7228 56.622C57.8722 56.622 58.0192 56.636 58.1638 56.664C58.3085 56.692 58.4648 56.734 58.6328 56.79L58.4088 58.372C58.2222 58.316 58.0658 58.2787 57.9398 58.26C57.8138 58.2413 57.6948 58.232 57.5828 58.232C57.2655 58.232 56.9925 58.337 56.7638 58.547C56.5352 58.7523 56.3602 59.0347 56.2388 59.394C56.1175 59.7533 56.0568 60.164 56.0568 60.626V64H54.2228ZM63.0936 64.182C62.4542 64.182 61.9012 64.07 61.4346 63.846C60.9679 63.6173 60.5829 63.314 60.2796 62.936C59.9809 62.5533 59.7592 62.131 59.6146 61.669C59.4699 61.2023 59.3976 60.7333 59.3976 60.262C59.3976 59.492 59.5609 58.8317 59.8876 58.281C60.2189 57.7303 60.6622 57.3103 61.2176 57.021C61.7729 56.727 62.3889 56.58 63.0656 56.58C63.5836 56.58 64.0526 56.6827 64.4726 56.888C64.8972 57.0887 65.2426 57.3733 65.5086 57.742C65.7792 58.1107 65.9426 58.547 65.9986 59.051C66.0592 59.555 65.9869 60.108 65.7816 60.71H61.8616C61.9596 60.388 62.1066 60.1173 62.3026 59.898C62.4986 59.674 62.7156 59.562 62.9536 59.562H64.1996C64.2369 59.2773 64.2112 59.0113 64.1226 58.764C64.0339 58.5167 63.8892 58.3183 63.6886 58.169C63.4926 58.015 63.2522 57.938 62.9676 57.938C62.7109 57.938 62.4566 58.015 62.2046 58.169C61.9526 58.323 61.7426 58.5657 61.5746 58.897C61.4112 59.2283 61.3296 59.66 61.3296 60.192C61.3296 60.7287 61.4112 61.1883 61.5746 61.571C61.7426 61.949 61.9736 62.2383 62.2676 62.439C62.5662 62.6397 62.9116 62.74 63.3036 62.74C63.6256 62.74 63.9452 62.7003 64.2626 62.621C64.5799 62.537 64.9416 62.404 65.3476 62.222L65.8376 63.524C65.3336 63.762 64.8576 63.93 64.4096 64.028C63.9662 64.1307 63.5276 64.182 63.0936 64.182ZM74.4096 64.182C73.761 64.182 73.1496 64.0513 72.5756 63.79C72.0063 63.5287 71.5443 63.118 71.1896 62.558C70.835 61.998 70.6576 61.27 70.6576 60.374C70.6576 59.5293 70.835 58.827 71.1896 58.267C71.5443 57.7023 72.0063 57.28 72.5756 57C73.1496 56.72 73.761 56.58 74.4096 56.58C74.6616 56.58 74.937 56.6057 75.2356 56.657C75.5343 56.7037 75.8236 56.7807 76.1036 56.888L75.6276 58.19C75.4036 58.134 75.182 58.092 74.9626 58.064C74.748 58.036 74.5636 58.022 74.4096 58.022C74.0736 58.022 73.7796 58.1177 73.5276 58.309C73.2756 58.4957 73.0796 58.7663 72.9396 59.121C72.7996 59.471 72.7296 59.8887 72.7296 60.374C72.7296 60.864 72.7996 61.2863 72.9396 61.641C73.0796 61.991 73.2756 62.2617 73.5276 62.453C73.7796 62.6443 74.0736 62.74 74.4096 62.74C74.6056 62.74 74.8156 62.7143 75.0396 62.663C75.2636 62.607 75.525 62.5207 75.8236 62.404L76.2996 63.692C75.9356 63.86 75.5926 63.9837 75.2706 64.063C74.9486 64.1423 74.6616 64.182 74.4096 64.182ZM79.1513 64.182C78.8293 64.182 78.5189 64.1003 78.2203 63.937C77.9216 63.7737 77.6766 63.5263 77.4853 63.195C77.2986 62.859 77.2052 62.4367 77.2052 61.928V56.762H79.1513V61.9C79.1513 62.1287 79.1979 62.32 79.2913 62.474C79.3893 62.6233 79.5573 62.698 79.7953 62.698C79.8886 62.698 79.9773 62.6863 80.0613 62.663C80.1453 62.635 80.2526 62.6187 80.3833 62.614C80.6026 62.6 80.7893 62.6957 80.9433 62.901C81.1019 63.1017 81.2466 63.314 81.3773 63.538C80.9153 63.7807 80.5093 63.9487 80.1593 64.042C79.8093 64.1353 79.4733 64.182 79.1513 64.182ZM82.2593 64C82.0446 63.748 81.8999 63.4983 81.8253 63.251C81.7506 63.0037 81.7133 62.74 81.7133 62.46V56.762H83.6732V62.236C83.6732 62.4927 83.6919 62.768 83.7293 63.062C83.7666 63.356 83.8226 63.6687 83.8973 64H82.2593ZM88.1712 64.14C87.8072 64.14 87.3919 64.105 86.9252 64.035C86.4585 63.9697 85.9125 63.8087 85.2872 63.552L85.7352 62.25C86.1692 62.418 86.5565 62.5347 86.8972 62.6C87.2379 62.6653 87.5552 62.698 87.8492 62.698C88.1945 62.698 88.4465 62.6257 88.6052 62.481C88.7639 62.3317 88.8432 62.1707 88.8432 61.998C88.8432 61.788 88.7615 61.613 88.5982 61.473C88.4349 61.3283 88.2249 61.2 87.9682 61.088C87.7115 60.9713 87.4385 60.85 87.1492 60.724C86.8599 60.598 86.5869 60.451 86.3302 60.283C86.0735 60.1103 85.8635 59.9003 85.7002 59.653C85.5369 59.401 85.4552 59.0907 85.4552 58.722C85.4552 58.4233 85.5369 58.113 85.7002 57.791C85.8682 57.469 86.1412 57.196 86.5192 56.972C86.8972 56.748 87.4059 56.636 88.0452 56.636C88.3625 56.636 88.6869 56.6593 89.0182 56.706C89.3495 56.7527 89.7392 56.8507 90.1872 57L89.7392 58.26C89.3752 58.162 89.0812 58.099 88.8572 58.071C88.6379 58.0383 88.4092 58.022 88.1712 58.022C87.9052 58.022 87.6929 58.0757 87.5342 58.183C87.3802 58.2903 87.3032 58.442 87.3032 58.638C87.3032 58.834 87.3849 59.0043 87.5482 59.149C87.7115 59.289 87.9215 59.4197 88.1782 59.541C88.4349 59.6577 88.7079 59.7837 88.9972 59.919C89.2865 60.0497 89.5595 60.2013 89.8162 60.374C90.0729 60.5467 90.2829 60.759 90.4462 61.011C90.6095 61.2583 90.6912 61.564 90.6912 61.928C90.6912 62.3807 90.5722 62.7727 90.3342 63.104C90.0962 63.4353 89.7835 63.692 89.3962 63.874C89.0135 64.0513 88.6052 64.14 88.1712 64.14ZM95.1648 64.182C94.2782 64.182 93.5992 63.9277 93.1278 63.419C92.6565 62.9103 92.4208 62.18 92.4208 61.228V58.148H91.2588V57.042L92.4208 56.762V55.04L94.2688 54.438V61.228C94.2688 61.704 94.3692 62.075 94.5698 62.341C94.7705 62.607 95.0342 62.74 95.3608 62.74C95.4962 62.74 95.6502 62.726 95.8228 62.698C95.9955 62.67 96.2008 62.614 96.4388 62.53L96.8448 63.804C96.4948 63.9207 96.1845 64.0117 95.9138 64.077C95.6478 64.147 95.3982 64.182 95.1648 64.182ZM96.1448 58.148C95.8742 58.148 95.6455 58.0757 95.4588 57.931C95.2722 57.7863 95.1205 57.6067 95.0038 57.392C94.8918 57.1773 94.8055 56.9673 94.7448 56.762H96.7748V58.148H96.1448ZM101.564 64.182C100.906 64.182 100.292 64.035 99.7229 63.741C99.1536 63.4423 98.6916 63.0107 98.3369 62.446C97.9869 61.8767 97.8119 61.186 97.8119 60.374C97.8119 59.716 97.9286 59.149 98.1619 58.673C98.3999 58.1923 98.7079 57.798 99.0859 57.49C99.4639 57.182 99.8699 56.9533 100.304 56.804C100.743 56.6547 101.163 56.58 101.564 56.58C102.306 56.58 102.957 56.741 103.517 57.063C104.082 57.385 104.523 57.833 104.84 58.407C105.157 58.9763 105.316 59.632 105.316 60.374C105.316 60.9667 105.209 61.4987 104.994 61.97C104.779 62.4413 104.492 62.8427 104.133 63.174C103.774 63.5007 103.37 63.7503 102.922 63.923C102.479 64.0957 102.026 64.182 101.564 64.182ZM101.564 62.754C101.928 62.754 102.234 62.6467 102.481 62.432C102.728 62.2173 102.915 61.9303 103.041 61.571C103.167 61.2117 103.23 60.8127 103.23 60.374C103.23 59.94 103.167 59.5433 103.041 59.184C102.915 58.8247 102.728 58.54 102.481 58.33C102.234 58.1153 101.928 58.008 101.564 58.008C101.2 58.008 100.892 58.1153 100.64 58.33C100.393 58.54 100.204 58.8247 100.073 59.184C99.9469 59.5433 99.8839 59.94 99.8839 60.374C99.8839 61.074 100.036 61.6457 100.339 62.089C100.647 62.5323 101.055 62.754 101.564 62.754ZM115.863 64V58.862C115.863 58.6287 115.812 58.4373 115.709 58.288C115.606 58.1387 115.424 58.064 115.163 58.064C115.079 58.064 114.988 58.0757 114.89 58.099C114.792 58.1223 114.682 58.1387 114.561 58.148C114.337 58.162 114.134 58.0687 113.952 57.868C113.775 57.6627 113.623 57.434 113.497 57.182C114.01 56.972 114.444 56.8203 114.799 56.727C115.154 56.629 115.494 56.58 115.821 56.58C116.143 56.58 116.456 56.6617 116.759 56.825C117.067 56.9883 117.319 57.238 117.515 57.574C117.711 57.9053 117.809 58.3253 117.809 58.834V64H115.863ZM106.931 64V58.526C106.931 58.2647 106.915 57.987 106.882 57.693C106.854 57.399 106.8 57.0887 106.721 56.762H108.345C108.569 57.014 108.716 57.2637 108.786 57.511C108.856 57.7583 108.891 58.022 108.891 58.302V64H106.931ZM111.397 64V58.862C111.397 58.6287 111.353 58.4373 111.264 58.288C111.18 58.1387 111.019 58.064 110.781 58.064C110.697 58.064 110.613 58.0733 110.529 58.092C110.445 58.1107 110.347 58.1247 110.235 58.134C110.011 58.148 109.813 58.0547 109.64 57.854C109.472 57.6487 109.325 57.42 109.199 57.168C109.703 56.9627 110.125 56.8133 110.466 56.72C110.807 56.6267 111.14 56.58 111.467 56.58C111.789 56.58 112.092 56.6617 112.377 56.825C112.666 56.9883 112.902 57.238 113.084 57.574C113.266 57.9053 113.357 58.3253 113.357 58.834V64H111.397ZM123.222 64.182C122.583 64.182 122.03 64.07 121.563 63.846C121.097 63.6173 120.712 63.314 120.408 62.936C120.11 62.5533 119.888 62.131 119.743 61.669C119.599 61.2023 119.526 60.7333 119.526 60.262C119.526 59.492 119.69 58.8317 120.016 58.281C120.348 57.7303 120.791 57.3103 121.346 57.021C121.902 56.727 122.518 56.58 123.194 56.58C123.712 56.58 124.181 56.6827 124.601 56.888C125.026 57.0887 125.371 57.3733 125.637 57.742C125.908 58.1107 126.071 58.547 126.127 59.051C126.188 59.555 126.116 60.108 125.91 60.71H121.99C122.088 60.388 122.235 60.1173 122.431 59.898C122.627 59.674 122.844 59.562 123.082 59.562H124.328C124.366 59.2773 124.34 59.0113 124.251 58.764C124.163 58.5167 124.018 58.3183 123.817 58.169C123.621 58.015 123.381 57.938 123.096 57.938C122.84 57.938 122.585 58.015 122.333 58.169C122.081 58.323 121.871 58.5657 121.703 58.897C121.54 59.2283 121.458 59.66 121.458 60.192C121.458 60.7287 121.54 61.1883 121.703 61.571C121.871 61.949 122.102 62.2383 122.396 62.439C122.695 62.6397 123.04 62.74 123.432 62.74C123.754 62.74 124.074 62.7003 124.391 62.621C124.709 62.537 125.07 62.404 125.476 62.222L125.966 63.524C125.462 63.762 124.986 63.93 124.538 64.028C124.095 64.1307 123.656 64.182 123.222 64.182ZM127.723 64V58.526C127.723 58.2647 127.706 57.987 127.674 57.693C127.641 57.399 127.583 57.0887 127.499 56.762H128.983C129.062 56.8227 129.146 56.951 129.235 57.147C129.323 57.343 129.384 57.56 129.417 57.798L129.445 58.134L129.585 57.798C129.776 57.4247 130.021 57.1353 130.32 56.93C130.623 56.7247 130.924 56.622 131.223 56.622C131.372 56.622 131.519 56.636 131.664 56.664C131.808 56.692 131.965 56.734 132.133 56.79L131.909 58.372C131.722 58.316 131.566 58.2787 131.44 58.26C131.314 58.2413 131.195 58.232 131.083 58.232C130.765 58.232 130.492 58.337 130.264 58.547C130.035 58.7523 129.86 59.0347 129.739 59.394C129.617 59.7533 129.557 60.164 129.557 60.626V64H127.723ZM135.572 64.14C135.208 64.14 134.792 64.105 134.326 64.035C133.859 63.9697 133.313 63.8087 132.688 63.552L133.136 62.25C133.57 62.418 133.957 62.5347 134.298 62.6C134.638 62.6653 134.956 62.698 135.25 62.698C135.595 62.698 135.847 62.6257 136.006 62.481C136.164 62.3317 136.244 62.1707 136.244 61.998C136.244 61.788 136.162 61.613 135.999 61.473C135.835 61.3283 135.625 61.2 135.369 61.088C135.112 60.9713 134.839 60.85 134.55 60.724C134.26 60.598 133.987 60.451 133.731 60.283C133.474 60.1103 133.264 59.9003 133.101 59.653C132.937 59.401 132.856 59.0907 132.856 58.722C132.856 58.4233 132.937 58.113 133.101 57.791C133.269 57.469 133.542 57.196 133.92 56.972C134.298 56.748 134.806 56.636 135.446 56.636C135.763 56.636 136.087 56.6593 136.419 56.706C136.75 56.7527 137.14 56.8507 137.588 57L137.14 58.26C136.776 58.162 136.482 58.099 136.258 58.071C136.038 58.0383 135.81 58.022 135.572 58.022C135.306 58.022 135.093 58.0757 134.935 58.183C134.781 58.2903 134.704 58.442 134.704 58.638C134.704 58.834 134.785 59.0043 134.949 59.149C135.112 59.289 135.322 59.4197 135.579 59.541C135.835 59.6577 136.108 59.7837 136.398 59.919C136.687 60.0497 136.96 60.2013 137.217 60.374C137.473 60.5467 137.683 60.759 137.847 61.011C138.01 61.2583 138.092 61.564 138.092 61.928C138.092 62.3807 137.973 62.7727 137.735 63.104C137.497 63.4353 137.184 63.692 136.797 63.874C136.414 64.0513 136.006 64.14 135.572 64.14ZM140.115 64.21C139.789 64.21 139.513 64.1003 139.289 63.881C139.065 63.657 138.953 63.384 138.953 63.062C138.953 62.74 139.065 62.4647 139.289 62.236C139.513 62.0027 139.789 61.886 140.115 61.886C140.437 61.886 140.708 62.0027 140.927 62.236C141.151 62.4647 141.263 62.74 141.263 63.062C141.263 63.384 141.151 63.657 140.927 63.881C140.708 64.1003 140.437 64.21 140.115 64.21Z" fill="black"/>
<path d="M157.036 64L158.016 53.822H160.55L162.776 61.676L162.874 62.18L162.986 61.676L165.198 53.822H167.746L168.698 64H166.864L166.318 56.328L166.276 55.656L166.108 56.328L163.896 63.86H161.838L159.598 56.314L159.43 55.656L159.388 56.314L158.87 64H157.036ZM173.982 64.182C173.324 64.182 172.71 64.035 172.141 63.741C171.572 63.4423 171.11 63.0107 170.755 62.446C170.405 61.8767 170.23 61.186 170.23 60.374C170.23 59.716 170.347 59.149 170.58 58.673C170.818 58.1923 171.126 57.798 171.504 57.49C171.882 57.182 172.288 56.9533 172.722 56.804C173.161 56.6547 173.581 56.58 173.982 56.58C174.724 56.58 175.375 56.741 175.935 57.063C176.5 57.385 176.941 57.833 177.258 58.407C177.575 58.9763 177.734 59.632 177.734 60.374C177.734 60.9667 177.627 61.4987 177.412 61.97C177.197 62.4413 176.91 62.8427 176.551 63.174C176.192 63.5007 175.788 63.7503 175.34 63.923C174.897 64.0957 174.444 64.182 173.982 64.182ZM173.982 62.754C174.346 62.754 174.652 62.6467 174.899 62.432C175.146 62.2173 175.333 61.9303 175.459 61.571C175.585 61.2117 175.648 60.8127 175.648 60.374C175.648 59.94 175.585 59.5433 175.459 59.184C175.333 58.8247 175.146 58.54 174.899 58.33C174.652 58.1153 174.346 58.008 173.982 58.008C173.618 58.008 173.31 58.1153 173.058 58.33C172.811 58.54 172.622 58.8247 172.491 59.184C172.365 59.5433 172.302 59.94 172.302 60.374C172.302 61.074 172.454 61.6457 172.757 62.089C173.065 62.5323 173.473 62.754 173.982 62.754ZM179.223 64V58.526C179.223 58.2647 179.206 57.987 179.174 57.693C179.141 57.399 179.083 57.0887 178.999 56.762H180.483C180.562 56.8227 180.646 56.951 180.735 57.147C180.823 57.343 180.884 57.56 180.917 57.798L180.945 58.134L181.085 57.798C181.276 57.4247 181.521 57.1353 181.82 56.93C182.123 56.7247 182.424 56.622 182.723 56.622C182.872 56.622 183.019 56.636 183.164 56.664C183.308 56.692 183.465 56.734 183.633 56.79L183.409 58.372C183.222 58.316 183.066 58.2787 182.94 58.26C182.814 58.2413 182.695 58.232 182.583 58.232C182.265 58.232 181.992 58.337 181.764 58.547C181.535 58.7523 181.36 59.0347 181.239 59.394C181.117 59.7533 181.057 60.164 181.057 60.626V64H179.223ZM188.094 64.182C187.454 64.182 186.901 64.07 186.435 63.846C185.968 63.6173 185.583 63.314 185.28 62.936C184.981 62.5533 184.759 62.131 184.615 61.669C184.47 61.2023 184.398 60.7333 184.398 60.262C184.398 59.492 184.561 58.8317 184.888 58.281C185.219 57.7303 185.662 57.3103 186.218 57.021C186.773 56.727 187.389 56.58 188.066 56.58C188.584 56.58 189.053 56.6827 189.473 56.888C189.897 57.0887 190.243 57.3733 190.509 57.742C190.779 58.1107 190.943 58.547 190.999 59.051C191.059 59.555 190.987 60.108 190.782 60.71H186.862C186.96 60.388 187.107 60.1173 187.303 59.898C187.499 59.674 187.716 59.562 187.954 59.562H189.2C189.237 59.2773 189.211 59.0113 189.123 58.764C189.034 58.5167 188.889 58.3183 188.689 58.169C188.493 58.015 188.252 57.938 187.968 57.938C187.711 57.938 187.457 58.015 187.205 58.169C186.953 58.323 186.743 58.5657 186.575 58.897C186.411 59.2283 186.33 59.66 186.33 60.192C186.33 60.7287 186.411 61.1883 186.575 61.571C186.743 61.949 186.974 62.2383 187.268 62.439C187.566 62.6397 187.912 62.74 188.304 62.74C188.626 62.74 188.945 62.7003 189.263 62.621C189.58 62.537 189.942 62.404 190.348 62.222L190.838 63.524C190.334 63.762 189.858 63.93 189.41 64.028C188.966 64.1307 188.528 64.182 188.094 64.182ZM198.57 64.14C198.206 64.14 197.79 64.105 197.324 64.035C196.857 63.9697 196.311 63.8087 195.686 63.552L196.134 62.25C196.568 62.418 196.955 62.5347 197.296 62.6C197.636 62.6653 197.954 62.698 198.248 62.698C198.593 62.698 198.845 62.6257 199.004 62.481C199.162 62.3317 199.242 62.1707 199.242 61.998C199.242 61.788 199.16 61.613 198.997 61.473C198.833 61.3283 198.623 61.2 198.367 61.088C198.11 60.9713 197.837 60.85 197.548 60.724C197.258 60.598 196.985 60.451 196.729 60.283C196.472 60.1103 196.262 59.9003 196.099 59.653C195.935 59.401 195.854 59.0907 195.854 58.722C195.854 58.4233 195.935 58.113 196.099 57.791C196.267 57.469 196.54 57.196 196.918 56.972C197.296 56.748 197.804 56.636 198.444 56.636C198.761 56.636 199.085 56.6593 199.417 56.706C199.748 56.7527 200.138 56.8507 200.586 57L200.138 58.26C199.774 58.162 199.48 58.099 199.256 58.071C199.036 58.0383 198.808 58.022 198.57 58.022C198.304 58.022 198.091 58.0757 197.933 58.183C197.779 58.2903 197.702 58.442 197.702 58.638C197.702 58.834 197.783 59.0043 197.947 59.149C198.11 59.289 198.32 59.4197 198.577 59.541C198.833 59.6577 199.106 59.7837 199.396 59.919C199.685 60.0497 199.958 60.2013 200.215 60.374C200.471 60.5467 200.681 60.759 200.845 61.011C201.008 61.2583 201.09 61.564 201.09 61.928C201.09 62.3807 200.971 62.7727 200.733 63.104C200.495 63.4353 200.182 63.692 199.795 63.874C199.412 64.0513 199.004 64.14 198.57 64.14ZM204.093 64.182C203.645 64.182 203.258 64.084 202.931 63.888C202.609 63.6873 202.36 63.426 202.182 63.104C202.01 62.782 201.923 62.4367 201.923 62.068C201.923 61.6807 202.038 61.3143 202.266 60.969C202.495 60.6237 202.887 60.332 203.442 60.094C204.002 59.8513 204.775 59.6927 205.759 59.618C205.727 59.8373 205.673 60.0403 205.598 60.227C205.524 60.409 205.421 60.5607 205.29 60.682C205.164 60.8033 205.003 60.8827 204.807 60.92C204.574 60.9573 204.383 61.0227 204.233 61.116C204.084 61.2093 203.974 61.3237 203.904 61.459C203.834 61.5897 203.799 61.732 203.799 61.886C203.799 62.1287 203.886 62.3317 204.058 62.495C204.231 62.6583 204.439 62.74 204.681 62.74C204.947 62.74 205.216 62.649 205.486 62.467C205.762 62.2803 206.021 62.0447 206.263 61.76V59.646C206.263 59.1607 206.128 58.7733 205.857 58.484C205.591 58.1947 205.213 58.05 204.723 58.05C204.495 58.05 204.247 58.0733 203.981 58.12C203.715 58.1667 203.417 58.2507 203.085 58.372L202.609 57.14C203.025 56.9487 203.452 56.8133 203.89 56.734C204.334 56.65 204.719 56.608 205.045 56.608C206.039 56.608 206.805 56.8693 207.341 57.392C207.883 57.9147 208.153 58.666 208.153 59.646V62.236C208.153 62.4927 208.17 62.768 208.202 63.062C208.235 63.356 208.293 63.6687 208.377 64H206.935C206.809 63.93 206.704 63.832 206.62 63.706C206.541 63.5753 206.473 63.44 206.417 63.3L206.375 63.02L206.207 63.258C205.787 63.6407 205.419 63.8903 205.101 64.007C204.789 64.1237 204.453 64.182 204.093 64.182ZM210.001 64V53.388H211.947V64H210.001ZM217.228 64.182C216.589 64.182 216.036 64.07 215.569 63.846C215.103 63.6173 214.718 63.314 214.414 62.936C214.116 62.5533 213.894 62.131 213.749 61.669C213.605 61.2023 213.532 60.7333 213.532 60.262C213.532 59.492 213.696 58.8317 214.022 58.281C214.354 57.7303 214.797 57.3103 215.352 57.021C215.908 56.727 216.524 56.58 217.2 56.58C217.718 56.58 218.187 56.6827 218.607 56.888C219.032 57.0887 219.377 57.3733 219.643 57.742C219.914 58.1107 220.077 58.547 220.133 59.051C220.194 59.555 220.122 60.108 219.916 60.71H215.996C216.094 60.388 216.241 60.1173 216.437 59.898C216.633 59.674 216.85 59.562 217.088 59.562H218.334C218.372 59.2773 218.346 59.0113 218.257 58.764C218.169 58.5167 218.024 58.3183 217.823 58.169C217.627 58.015 217.387 57.938 217.102 57.938C216.846 57.938 216.591 58.015 216.339 58.169C216.087 58.323 215.877 58.5657 215.709 58.897C215.546 59.2283 215.464 59.66 215.464 60.192C215.464 60.7287 215.546 61.1883 215.709 61.571C215.877 61.949 216.108 62.2383 216.402 62.439C216.701 62.6397 217.046 62.74 217.438 62.74C217.76 62.74 218.08 62.7003 218.397 62.621C218.715 62.537 219.076 62.404 219.482 62.222L219.972 63.524C219.468 63.762 218.992 63.93 218.544 64.028C218.101 64.1307 217.662 64.182 217.228 64.182ZM224.109 64.14C223.745 64.14 223.329 64.105 222.863 64.035C222.396 63.9697 221.85 63.8087 221.225 63.552L221.673 62.25C222.107 62.418 222.494 62.5347 222.835 62.6C223.175 62.6653 223.493 62.698 223.787 62.698C224.132 62.698 224.384 62.6257 224.543 62.481C224.701 62.3317 224.781 62.1707 224.781 61.998C224.781 61.788 224.699 61.613 224.536 61.473C224.372 61.3283 224.162 61.2 223.906 61.088C223.649 60.9713 223.376 60.85 223.087 60.724C222.797 60.598 222.524 60.451 222.268 60.283C222.011 60.1103 221.801 59.9003 221.638 59.653C221.474 59.401 221.393 59.0907 221.393 58.722C221.393 58.4233 221.474 58.113 221.638 57.791C221.806 57.469 222.079 57.196 222.457 56.972C222.835 56.748 223.343 56.636 223.983 56.636C224.3 56.636 224.624 56.6593 224.956 56.706C225.287 56.7527 225.677 56.8507 226.125 57L225.677 58.26C225.313 58.162 225.019 58.099 224.795 58.071C224.575 58.0383 224.347 58.022 224.109 58.022C223.843 58.022 223.63 58.0757 223.472 58.183C223.318 58.2903 223.241 58.442 223.241 58.638C223.241 58.834 223.322 59.0043 223.486 59.149C223.649 59.289 223.859 59.4197 224.116 59.541C224.372 59.6577 224.645 59.7837 224.935 59.919C225.224 60.0497 225.497 60.2013 225.754 60.374C226.01 60.5467 226.22 60.759 226.384 61.011C226.547 61.2583 226.629 61.564 226.629 61.928C226.629 62.3807 226.51 62.7727 226.272 63.104C226.034 63.4353 225.721 63.692 225.334 63.874C224.951 64.0513 224.543 64.14 224.109 64.14ZM228.652 64.21C228.326 64.21 228.05 64.1003 227.826 63.881C227.602 63.657 227.49 63.384 227.49 63.062C227.49 62.74 227.602 62.4647 227.826 62.236C228.05 62.0027 228.326 61.886 228.652 61.886C228.974 61.886 229.245 62.0027 229.464 62.236C229.688 62.4647 229.8 62.74 229.8 63.062C229.8 63.384 229.688 63.657 229.464 63.881C229.245 64.1003 228.974 64.21 228.652 64.21Z" fill="#00007F"/>
<g clip-path="url(#clip0_1809_2003)">
<path d="M59.36 4.12C60.9333 4.89333 61.72 5.74667 61.72 6.68C61.72 7.10667 61.52 7.74667 61.12 8.6L50.08 31C49.7867 31.5867 49.3333 32.0667 48.72 32.44C48.1333 32.7867 47.52 32.96 46.88 32.96H46.48C45.8133 32.96 45.1733 32.7867 44.56 32.44C43.9733 32.0667 43.5333 31.5867 43.24 31L32.2 8.6C31.8 7.74667 31.6 7.10667 31.6 6.68C31.6 5.74667 32.3867 4.89333 33.96 4.12C34.84 3.66667 35.5067 3.44 35.96 3.44C36.44 3.44 36.8 3.49333 37.04 3.6C37.28 3.70667 37.5067 3.89333 37.72 4.16C37.96 4.48 38.1733 4.84 38.36 5.24C38.5733 5.61333 39.0933 6.72 39.92 8.56C40.7467 10.3733 41.6267 12.3067 42.56 14.36C43.52 16.4133 44.4133 18.36 45.24 20.2C46.0933 22.0133 46.5733 23.0267 46.68 23.24L54.68 5.72C54.8933 5.21333 55.08 4.81333 55.24 4.52C55.72 3.8 56.3067 3.44 57 3.44C57.6933 3.44 58.48 3.66667 59.36 4.12ZM80.2638 19.96C80.2638 21.5867 79.8504 22.8 79.0238 23.6C78.2238 24.3733 77.3304 24.76 76.3438 24.76H66.8638C66.8638 25.5067 67.3038 26.1333 68.1838 26.64C69.0638 27.1467 69.9438 27.4 70.8238 27.4C72.3704 27.4 73.5838 27.24 74.4638 26.92L74.9038 26.76C75.5438 26.4667 76.0771 26.32 76.5038 26.32C77.3571 26.32 78.0904 26.92 78.7038 28.12C79.0504 28.84 79.2238 29.4533 79.2238 29.96C79.2238 32.3333 76.3838 33.52 70.7038 33.52C68.7304 33.52 66.9704 33.1867 65.4238 32.52C63.9038 31.8267 62.7171 30.92 61.8638 29.8C60.1838 27.64 59.3438 25.2267 59.3438 22.56C59.3438 19.2 60.4238 16.52 62.5838 14.52C64.7704 12.4933 67.4904 11.48 70.7438 11.48C74.4504 11.48 77.1704 12.7867 78.9037 15.4C79.8104 16.7867 80.2638 18.3067 80.2638 19.96ZM71.8238 21.12C72.8371 21.12 73.3438 20.6933 73.3438 19.84C73.3438 19.2267 73.1038 18.7333 72.6238 18.36C72.1704 17.9867 71.5038 17.8 70.6238 17.8C69.7704 17.8 68.9171 18.16 68.0638 18.88C67.2104 19.5733 66.7838 20.32 66.7838 21.12H71.8238ZM94.5934 11.92C97.2601 11.92 99.4734 12.9467 101.233 15C103.02 17.0267 103.913 19.5067 103.913 22.44V29.48C103.913 30.0933 103.887 30.56 103.833 30.88C103.807 31.1733 103.7 31.5067 103.513 31.88C103.14 32.6 102.1 32.96 100.393 32.96C98.5001 32.96 97.4068 32.4667 97.1134 31.48C96.9534 31.0267 96.8734 30.3467 96.8734 29.44V22.4C96.8734 21.3067 96.5534 20.4533 95.9134 19.84C95.3001 19.2267 94.4601 18.92 93.3934 18.92C92.3534 18.92 91.5001 19.24 90.8334 19.88C90.1934 20.52 89.8734 21.36 89.8734 22.4V29.48C89.8734 30.0933 89.8468 30.56 89.7934 30.88C89.7668 31.1733 89.6468 31.5067 89.4334 31.88C89.0868 32.6 88.0601 32.96 86.3534 32.96C84.6734 32.96 83.6468 32.6 83.2734 31.88C83.0868 31.48 82.9668 31.1333 82.9134 30.84C82.8868 30.52 82.8734 30.0533 82.8734 29.44V15.28C82.8734 14.6933 82.8868 14.2533 82.9134 13.96C82.9668 13.64 83.1001 13.2933 83.3134 12.92C83.6868 12.2533 84.7134 11.92 86.3934 11.92C88.0201 11.92 89.0201 12.2267 89.3934 12.84C89.6601 13.2933 89.7934 13.84 89.7934 14.48C89.9001 14.2933 90.1401 14.0267 90.5134 13.68C90.8868 13.3333 91.2468 13.0533 91.5934 12.84C92.5001 12.2267 93.5001 11.92 94.5934 11.92ZM121.251 3.16C121.465 2.76 121.825 2.48 122.331 2.32C122.838 2.16 123.505 2.08 124.331 2.08C125.185 2.08 125.865 2.16 126.371 2.32C126.878 2.48 127.225 2.76 127.411 3.16C127.625 3.56 127.745 3.92 127.771 4.24C127.825 4.53333 127.851 4.98667 127.851 5.6V29.48C127.851 30.0933 127.825 30.56 127.771 30.88C127.745 31.1733 127.625 31.5067 127.411 31.88C127.011 32.6 125.878 32.96 124.011 32.96C122.171 32.96 121.145 32.3067 120.931 31C119.811 32.28 118.251 32.92 116.251 32.92C113.851 32.92 111.665 31.88 109.691 29.8C107.718 27.6933 106.731 25.2533 106.731 22.48C106.731 19.68 107.718 17.2267 109.691 15.12C111.691 13.0133 113.878 11.96 116.251 11.96C118.225 11.96 119.758 12.6267 120.851 13.96V5.56C120.851 4.94666 120.865 4.49333 120.891 4.2C120.945 3.88 121.065 3.53333 121.251 3.16ZM114.771 24.88C115.465 25.6 116.305 25.96 117.291 25.96C118.278 25.96 119.091 25.6 119.731 24.88C120.398 24.16 120.731 23.3733 120.731 22.52C120.731 21.64 120.411 20.8267 119.771 20.08C119.158 19.3333 118.318 18.96 117.251 18.96C116.185 18.96 115.331 19.3333 114.691 20.08C114.051 20.8 113.731 21.6 113.731 22.48C113.731 23.36 114.078 24.16 114.771 24.88ZM130.438 22.48C130.438 19.28 131.558 16.64 133.798 14.56C136.038 12.48 138.598 11.44 141.478 11.44C144.358 11.44 146.904 12.48 149.118 14.56C151.331 16.6133 152.438 19.24 152.438 22.44C152.438 24.6533 151.864 26.6267 150.718 28.36C149.571 30.0667 148.171 31.3333 146.518 32.16C144.891 32.96 143.198 33.36 141.438 33.36C139.678 33.36 137.971 32.9333 136.318 32.08C134.664 31.2 133.264 29.92 132.118 28.24C130.998 26.5333 130.438 24.6133 130.438 22.48ZM138.798 25.36C139.651 26 140.518 26.32 141.398 26.32C142.278 26.32 143.158 25.9867 144.038 25.32C144.918 24.6533 145.358 23.6667 145.358 22.36C145.358 21.0533 144.944 20.08 144.118 19.44C143.291 18.8 142.398 18.48 141.438 18.48C140.478 18.48 139.584 18.8133 138.758 19.48C137.931 20.1467 137.518 21.1333 137.518 22.44C137.518 23.72 137.944 24.6933 138.798 25.36ZM169.342 12.16C169.849 12.32 170.262 12.6 170.582 13C170.929 13.3733 171.102 13.9867 171.102 14.84C171.102 15.6933 170.849 16.6267 170.342 17.64C169.835 18.6533 169.102 19.16 168.142 19.16C167.662 19.16 167.195 19.0533 166.742 18.84C166.315 18.6267 165.742 18.52 165.022 18.52C164.302 18.52 163.622 18.7733 162.982 19.28C162.369 19.7867 162.062 20.4 162.062 21.12V29.52C162.062 30.1333 162.035 30.6 161.982 30.92C161.955 31.2133 161.835 31.56 161.622 31.96C161.222 32.6533 160.182 33 158.502 33C157.222 33 156.302 32.7733 155.742 32.32C155.315 31.9467 155.075 31.3733 155.022 30.6C155.022 30.3333 155.022 29.9467 155.022 29.44V15.4C155.022 14.7867 155.035 14.3333 155.062 14.04C155.115 13.72 155.235 13.3733 155.422 13C155.795 12.28 156.835 11.92 158.542 11.92C160.142 11.92 161.142 12.2267 161.542 12.84C161.835 13.2667 161.982 13.7067 161.982 14.16C162.115 13.9733 162.302 13.7467 162.542 13.48C162.809 13.2133 163.355 12.8533 164.182 12.4C165.009 11.9467 165.729 11.72 166.342 11.72C166.982 11.72 167.515 11.76 167.942 11.84C168.369 11.8933 168.835 12 169.342 12.16Z" fill="black"/>
<path d="M185.023 11.92C187.69 11.92 189.903 12.9467 191.663 15C193.45 17.0267 194.343 19.5067 194.343 22.44V29.48C194.343 30.0933 194.316 30.56 194.263 30.88C194.236 31.1733 194.13 31.5067 193.943 31.88C193.57 32.6 192.53 32.96 190.823 32.96C188.93 32.96 187.836 32.4667 187.543 31.48C187.383 31.0267 187.303 30.3467 187.303 29.44V22.4C187.303 21.3067 186.983 20.4533 186.343 19.84C185.73 19.2267 184.89 18.92 183.823 18.92C182.783 18.92 181.93 19.24 181.263 19.88C180.623 20.52 180.303 21.36 180.303 22.4V29.48C180.303 30.0933 180.276 30.56 180.223 30.88C180.196 31.1733 180.076 31.5067 179.863 31.88C179.516 32.6 178.49 32.96 176.783 32.96C175.103 32.96 174.076 32.6 173.703 31.88C173.516 31.48 173.396 31.1333 173.343 30.84C173.316 30.52 173.303 30.0533 173.303 29.44V15.28C173.303 14.6933 173.316 14.2533 173.343 13.96C173.396 13.64 173.53 13.2933 173.743 12.92C174.116 12.2533 175.143 11.92 176.823 11.92C178.45 11.92 179.45 12.2267 179.823 12.84C180.09 13.2933 180.223 13.84 180.223 14.48C180.33 14.2933 180.57 14.0267 180.943 13.68C181.316 13.3333 181.676 13.0533 182.023 12.84C182.93 12.2267 183.93 11.92 185.023 11.92ZM197.561 15.44C197.561 14.8267 197.574 14.3733 197.601 14.08C197.654 13.76 197.774 13.4 197.961 13C198.334 12.3067 199.374 11.96 201.081 11.96C202.361 11.96 203.268 12.1867 203.801 12.64C204.254 13.0133 204.494 13.5867 204.521 14.36C204.548 14.6267 204.561 15.0133 204.561 15.52V29.52C204.561 30.1333 204.534 30.6 204.481 30.92C204.454 31.2133 204.334 31.56 204.121 31.96C203.774 32.6533 202.748 33 201.041 33C199.361 33 198.334 32.64 197.961 31.92C197.774 31.52 197.654 31.1733 197.601 30.88C197.574 30.5867 197.561 30.12 197.561 29.48V15.44ZM204.121 8.04C203.934 8.41333 203.588 8.68 203.081 8.84C202.574 9 201.894 9.08 201.041 9.08C200.214 9.08 199.548 9 199.041 8.84C198.534 8.68 198.174 8.4 197.961 8C197.774 7.6 197.654 7.25333 197.601 6.96C197.574 6.64 197.561 6.17333 197.561 5.56C197.561 4.94666 197.574 4.49333 197.601 4.2C197.654 3.88 197.774 3.53333 197.961 3.16C198.334 2.44 199.374 2.08 201.081 2.08C202.761 2.08 203.774 2.44 204.121 3.16C204.334 3.56 204.454 3.92 204.481 4.24C204.534 4.53333 204.561 4.98667 204.561 5.6C204.561 6.21333 204.534 6.68 204.481 7C204.454 7.29333 204.334 7.64 204.121 8.04ZM221.436 14.16C221.596 12.6667 222.65 11.92 224.596 11.92C225.636 11.92 226.41 12 226.916 12.16C227.423 12.32 227.77 12.6 227.956 13C228.17 13.4 228.29 13.76 228.316 14.08C228.37 14.3733 228.396 14.8267 228.396 15.44V29.44C228.396 30.0533 228.37 30.52 228.316 30.84C228.29 31.1333 228.183 31.48 227.996 31.88C227.623 32.5733 226.703 32.92 225.236 32.92C223.796 32.92 222.823 32.7467 222.316 32.4C221.836 32.0267 221.556 31.4933 221.476 30.8C220.49 32.2133 218.836 32.92 216.516 32.92C214.223 32.92 212.09 31.8667 210.116 29.76C208.143 27.6533 207.156 25.2133 207.156 22.44C207.156 19.64 208.143 17.2 210.116 15.12C212.116 13.0133 214.303 11.96 216.676 11.96C217.583 11.96 218.41 12.12 219.156 12.44C219.903 12.76 220.423 13.0667 220.716 13.36C221.01 13.6267 221.25 13.8933 221.436 14.16ZM214.156 22.48C214.156 23.36 214.503 24.16 215.196 24.88C215.89 25.5733 216.73 25.92 217.716 25.92C218.703 25.92 219.516 25.56 220.156 24.84C220.823 24.12 221.156 23.3333 221.156 22.48C221.156 21.6 220.836 20.7867 220.196 20.04C219.583 19.2933 218.743 18.92 217.676 18.92C216.636 18.92 215.783 19.2933 215.116 20.04C214.476 20.7867 214.156 21.6 214.156 22.48Z" fill="#00007F"/>
</g>
<defs>
<clipPath id="clip0_1809_2003">
<rect width="261" height="39" fill="white"/>
</clipPath>
</defs>
</svg>
