<svg width="200" height="48" viewBox="0 0 200 48" fill="none" xmlns="http://www.w3.org/2000/svg">
<path d="M28.36 10.12C29.9333 10.8933 30.72 11.7467 30.72 12.68C30.72 13.1067 30.52 13.7467 30.12 14.6L19.08 37C18.7867 37.5867 18.3333 38.0667 17.72 38.44C17.1333 38.7867 16.52 38.96 15.88 38.96H15.48C14.8133 38.96 14.1733 38.7867 13.56 38.44C12.9733 38.0667 12.5333 37.5867 12.24 37L1.2 14.6C0.8 13.7467 0.6 13.1067 0.6 12.68C0.6 11.7467 1.38667 10.8933 2.96 10.12C3.84 9.66667 4.50667 9.44 4.96 9.44C5.44 9.44 5.8 9.49333 6.04 9.6C6.28 9.70667 6.50667 9.89333 6.72 10.16C6.96 10.48 7.17333 10.84 7.36 11.24C7.57333 11.6133 8.09333 12.72 8.92 14.56C9.74667 16.3733 10.6267 18.3067 11.56 20.36C12.52 22.4133 13.4133 24.36 14.24 26.2C15.0933 28.0133 15.5733 29.0267 15.68 29.24L23.68 11.72C23.8933 11.2133 24.08 10.8133 24.24 10.52C24.72 9.8 25.3067 9.44 26 9.44C26.6933 9.44 27.48 9.66667 28.36 10.12ZM49.2638 25.96C49.2638 27.5867 48.8504 28.8 48.0238 29.6C47.2238 30.3733 46.3304 30.76 45.3438 30.76H35.8638C35.8638 31.5067 36.3038 32.1333 37.1838 32.64C38.0638 33.1467 38.9438 33.4 39.8238 33.4C41.3704 33.4 42.5838 33.24 43.4638 32.92L43.9038 32.76C44.5438 32.4667 45.0771 32.32 45.5038 32.32C46.3571 32.32 47.0904 32.92 47.7038 34.12C48.0504 34.84 48.2238 35.4533 48.2238 35.96C48.2238 38.3333 45.3838 39.52 39.7038 39.52C37.7304 39.52 35.9704 39.1867 34.4238 38.52C32.9038 37.8267 31.7171 36.92 30.8638 35.8C29.1838 33.64 28.3438 31.2267 28.3438 28.56C28.3438 25.2 29.4238 22.52 31.5838 20.52C33.7704 18.4933 36.4904 17.48 39.7438 17.48C43.4504 17.48 46.1704 18.7867 47.9037 21.4C48.8104 22.7867 49.2638 24.3067 49.2638 25.96ZM40.8238 27.12C41.8371 27.12 42.3438 26.6933 42.3438 25.84C42.3438 25.2267 42.1038 24.7333 41.6238 24.36C41.1704 23.9867 40.5038 23.8 39.6238 23.8C38.7704 23.8 37.9171 24.16 37.0638 24.88C36.2104 25.5733 35.7838 26.32 35.7838 27.12H40.8238ZM63.5934 17.92C66.2601 17.92 68.4734 18.9467 70.2334 21C72.0201 23.0267 72.9134 25.5067 72.9134 28.44V35.48C72.9134 36.0933 72.8868 36.56 72.8334 36.88C72.8068 37.1733 72.7001 37.5067 72.5134 37.88C72.1401 38.6 71.1001 38.96 69.3934 38.96C67.5001 38.96 66.4068 38.4667 66.1134 37.48C65.9534 37.0267 65.8734 36.3467 65.8734 35.44V28.4C65.8734 27.3067 65.5534 26.4533 64.9134 25.84C64.3001 25.2267 63.4601 24.92 62.3934 24.92C61.3534 24.92 60.5001 25.24 59.8334 25.88C59.1934 26.52 58.8734 27.36 58.8734 28.4V35.48C58.8734 36.0933 58.8468 36.56 58.7934 36.88C58.7668 37.1733 58.6468 37.5067 58.4334 37.88C58.0868 38.6 57.0601 38.96 55.3534 38.96C53.6734 38.96 52.6468 38.6 52.2734 37.88C52.0868 37.48 51.9668 37.1333 51.9134 36.84C51.8868 36.52 51.8734 36.0533 51.8734 35.44V21.28C51.8734 20.6933 51.8868 20.2533 51.9134 19.96C51.9668 19.64 52.1001 19.2933 52.3134 18.92C52.6868 18.2533 53.7134 17.92 55.3934 17.92C57.0201 17.92 58.0201 18.2267 58.3934 18.84C58.6601 19.2933 58.7934 19.84 58.7934 20.48C58.9001 20.2933 59.1401 20.0267 59.5134 19.68C59.8868 19.3333 60.2468 19.0533 60.5934 18.84C61.5001 18.2267 62.5001 17.92 63.5934 17.92ZM90.2513 9.16C90.4646 8.76 90.8246 8.48 91.3313 8.32C91.8379 8.16 92.5046 8.08 93.3313 8.08C94.1846 8.08 94.8646 8.16 95.3713 8.32C95.8779 8.48 96.2246 8.76 96.4113 9.16C96.6246 9.56 96.7446 9.92 96.7713 10.24C96.8246 10.5333 96.8513 10.9867 96.8513 11.6V35.48C96.8513 36.0933 96.8246 36.56 96.7713 36.88C96.7446 37.1733 96.6246 37.5067 96.4113 37.88C96.0113 38.6 94.8779 38.96 93.0113 38.96C91.1713 38.96 90.1446 38.3067 89.9313 37C88.8113 38.28 87.2513 38.92 85.2513 38.92C82.8513 38.92 80.6646 37.88 78.6913 35.8C76.7179 33.6933 75.7313 31.2533 75.7313 28.48C75.7313 25.68 76.7179 23.2267 78.6913 21.12C80.6913 19.0133 82.8779 17.96 85.2513 17.96C87.2246 17.96 88.7579 18.6267 89.8513 19.96V11.56C89.8513 10.9467 89.8646 10.4933 89.8913 10.2C89.9446 9.88 90.0646 9.53333 90.2513 9.16ZM83.7713 30.88C84.4646 31.6 85.3046 31.96 86.2912 31.96C87.2779 31.96 88.0913 31.6 88.7313 30.88C89.3979 30.16 89.7313 29.3733 89.7313 28.52C89.7313 27.64 89.4113 26.8267 88.7713 26.08C88.1579 25.3333 87.3179 24.96 86.2513 24.96C85.1846 24.96 84.3313 25.3333 83.6913 26.08C83.0513 26.8 82.7313 27.6 82.7313 28.48C82.7313 29.36 83.0779 30.16 83.7713 30.88ZM99.4375 28.48C99.4375 25.28 100.558 22.64 102.798 20.56C105.038 18.48 107.598 17.44 110.478 17.44C113.358 17.44 115.904 18.48 118.118 20.56C120.331 22.6133 121.438 25.24 121.438 28.44C121.438 30.6533 120.864 32.6267 119.718 34.36C118.571 36.0667 117.171 37.3333 115.518 38.16C113.891 38.96 112.198 39.36 110.438 39.36C108.678 39.36 106.971 38.9333 105.318 38.08C103.664 37.2 102.264 35.92 101.118 34.24C99.9975 32.5333 99.4375 30.6133 99.4375 28.48ZM107.798 31.36C108.651 32 109.518 32.32 110.398 32.32C111.278 32.32 112.158 31.9867 113.038 31.32C113.918 30.6533 114.358 29.6667 114.358 28.36C114.358 27.0533 113.944 26.08 113.118 25.44C112.291 24.8 111.398 24.48 110.438 24.48C109.478 24.48 108.584 24.8133 107.758 25.48C106.931 26.1467 106.518 27.1333 106.518 28.44C106.518 29.72 106.944 30.6933 107.798 31.36ZM138.342 18.16C138.849 18.32 139.262 18.6 139.582 19C139.929 19.3733 140.102 19.9867 140.102 20.84C140.102 21.6933 139.849 22.6267 139.342 23.64C138.835 24.6533 138.102 25.16 137.142 25.16C136.662 25.16 136.195 25.0533 135.742 24.84C135.315 24.6267 134.742 24.52 134.022 24.52C133.302 24.52 132.622 24.7733 131.982 25.28C131.369 25.7867 131.062 26.4 131.062 27.12V35.52C131.062 36.1333 131.035 36.6 130.982 36.92C130.955 37.2133 130.835 37.56 130.622 37.96C130.222 38.6533 129.182 39 127.502 39C126.222 39 125.302 38.7733 124.742 38.32C124.315 37.9467 124.075 37.3733 124.022 36.6C124.022 36.3333 124.022 35.9467 124.022 35.44V21.4C124.022 20.7867 124.035 20.3333 124.062 20.04C124.115 19.72 124.235 19.3733 124.422 19C124.795 18.28 125.835 17.92 127.542 17.92C129.142 17.92 130.142 18.2267 130.542 18.84C130.835 19.2667 130.982 19.7067 130.982 20.16C131.115 19.9733 131.302 19.7467 131.542 19.48C131.809 19.2133 132.355 18.8533 133.182 18.4C134.009 17.9467 134.729 17.72 135.342 17.72C135.982 17.72 136.515 17.76 136.942 17.84C137.369 17.8933 137.835 18 138.342 18.16Z" fill="black"/>
<path d="M154.023 17.92C156.69 17.92 158.903 18.9467 160.663 21C162.45 23.0267 163.343 25.5067 163.343 28.44V35.48C163.343 36.0933 163.316 36.56 163.263 36.88C163.236 37.1733 163.13 37.5067 162.943 37.88C162.57 38.6 161.53 38.96 159.823 38.96C157.93 38.96 156.836 38.4667 156.543 37.48C156.383 37.0267 156.303 36.3467 156.303 35.44V28.4C156.303 27.3067 155.983 26.4533 155.343 25.84C154.73 25.2267 153.89 24.92 152.823 24.92C151.783 24.92 150.93 25.24 150.263 25.88C149.623 26.52 149.303 27.36 149.303 28.4V35.48C149.303 36.0933 149.276 36.56 149.223 36.88C149.196 37.1733 149.076 37.5067 148.863 37.88C148.516 38.6 147.49 38.96 145.783 38.96C144.103 38.96 143.076 38.6 142.703 37.88C142.516 37.48 142.396 37.1333 142.343 36.84C142.316 36.52 142.303 36.0533 142.303 35.44V21.28C142.303 20.6933 142.316 20.2533 142.343 19.96C142.396 19.64 142.53 19.2933 142.743 18.92C143.116 18.2533 144.143 17.92 145.823 17.92C147.45 17.92 148.45 18.2267 148.823 18.84C149.09 19.2933 149.223 19.84 149.223 20.48C149.33 20.2933 149.57 20.0267 149.943 19.68C150.316 19.3333 150.676 19.0533 151.023 18.84C151.93 18.2267 152.93 17.92 154.023 17.92ZM166.561 21.44C166.561 20.8267 166.574 20.3733 166.601 20.08C166.654 19.76 166.774 19.4 166.961 19C167.334 18.3067 168.374 17.96 170.081 17.96C171.361 17.96 172.268 18.1867 172.801 18.64C173.254 19.0133 173.494 19.5867 173.521 20.36C173.548 20.6267 173.561 21.0133 173.561 21.52V35.52C173.561 36.1333 173.534 36.6 173.481 36.92C173.454 37.2133 173.334 37.56 173.121 37.96C172.774 38.6533 171.748 39 170.041 39C168.361 39 167.334 38.64 166.961 37.92C166.774 37.52 166.654 37.1733 166.601 36.88C166.574 36.5867 166.561 36.12 166.561 35.48V21.44ZM173.121 14.04C172.934 14.4133 172.588 14.68 172.081 14.84C171.574 15 170.894 15.08 170.041 15.08C169.214 15.08 168.548 15 168.041 14.84C167.534 14.68 167.174 14.4 166.961 14C166.774 13.6 166.654 13.2533 166.601 12.96C166.574 12.64 166.561 12.1733 166.561 11.56C166.561 10.9467 166.574 10.4933 166.601 10.2C166.654 9.88 166.774 9.53333 166.961 9.16C167.334 8.44 168.374 8.08 170.081 8.08C171.761 8.08 172.774 8.44 173.121 9.16C173.334 9.56 173.454 9.92 173.481 10.24C173.534 10.5333 173.561 10.9867 173.561 11.6C173.561 12.2133 173.534 12.68 173.481 13C173.454 13.2933 173.334 13.64 173.121 14.04ZM190.436 20.16C190.596 18.6667 191.65 17.92 193.596 17.92C194.636 17.92 195.41 18 195.916 18.16C196.423 18.32 196.77 18.6 196.956 19C197.17 19.4 197.29 19.76 197.316 20.08C197.37 20.3733 197.396 20.8267 197.396 21.44V35.44C197.396 36.0533 197.37 36.52 197.316 36.84C197.29 37.1333 197.183 37.48 196.996 37.88C196.623 38.5733 195.703 38.92 194.236 38.92C192.796 38.92 191.823 38.7467 191.316 38.4C190.836 38.0267 190.556 37.4933 190.476 36.8C189.49 38.2133 187.836 38.92 185.516 38.92C183.223 38.92 181.09 37.8667 179.116 35.76C177.143 33.6533 176.156 31.2133 176.156 28.44C176.156 25.64 177.143 23.2 179.116 21.12C181.116 19.0133 183.303 17.96 185.676 17.96C186.583 17.96 187.41 18.12 188.156 18.44C188.903 18.76 189.423 19.0667 189.716 19.36C190.01 19.6267 190.25 19.8933 190.436 20.16ZM183.156 28.48C183.156 29.36 183.503 30.16 184.196 30.88C184.89 31.5733 185.73 31.92 186.716 31.92C187.703 31.92 188.516 31.56 189.156 30.84C189.823 30.12 190.156 29.3333 190.156 28.48C190.156 27.6 189.836 26.7867 189.196 26.04C188.583 25.2933 187.743 24.92 186.676 24.92C185.636 24.92 184.783 25.2933 184.116 26.04C183.476 26.7867 183.156 27.6 183.156 28.48Z" fill="#00007F"/>
</svg>
