<svg width="127" height="138" viewBox="0 0 127 138" fill="none" xmlns="http://www.w3.org/2000/svg">
<path d="M7.46667 2.53349C0.133333 7.46682 0.133333 7.46682 0 58.1335C0 104.667 0 104.933 3.06667 109.467C7.06667 115.467 12.5333 117.2 27.8667 117.2L40.4 117.333L49.7333 127.333C57.8667 136.267 59.4667 137.333 63.7333 137.333C67.8667 137.333 69.4667 136.133 77.7333 127.333L87.0667 117.333H99.6C113.6 117.333 119.333 115.6 123.733 110C126.667 106.4 126.667 105.467 126.667 58.1335C126.667 5.33349 126.8 6.26682 118.667 2.00016C115.467 0.266822 106.4 0.000155598 63.0667 0.000155598C14.1333 0.000155598 11.0667 0.133489 7.46667 2.53349ZM115.2 11.8668C115.6 12.4002 116 33.3335 116 58.1335C116.133 99.6002 116 103.467 113.867 104.933C112.267 106.133 106.533 106.667 96.6667 106.667H81.7333L73.2 116.533C68.5333 122 64.2667 126.533 63.8667 126.533C63.3333 126.667 58.9333 122.133 54 116.667L45.0667 106.667H30.4C22.4 106.667 14.6667 106 13.2 105.333C10.8 104 10.6667 102 10.6667 58.9335C10.6667 25.6002 11.0667 13.4668 12.2667 12.2668C14.1333 10.4002 114 9.86682 115.2 11.8668Z" fill="white"/>
<path d="M48.0001 42.0003L27.2001 62.8003L24.1334 76.667C22.4 84.267 21.3334 91.467 21.7334 92.5336C22.8 95.3336 27.6001 95.2003 41.3334 92.0003L52.6667 89.2003L73.7334 68.267C99.3334 42.667 99.3334 42.8003 86.2667 29.7336C73.3334 16.8003 73.4667 16.8003 48.0001 42.0003ZM79.3334 37.3336L84.5334 42.667L66.1334 61.2003C54.0001 73.3336 46.4001 80.0003 44.0001 80.5336C42.0001 80.9336 38.8001 81.6003 36.9334 82.0003L33.4667 82.9336L35.3334 75.3336C36.9334 68.0003 38.0001 66.667 54.8001 49.867C64.6667 40.0003 72.9334 32.0003 73.3334 32.0003C73.7334 32.0003 76.5334 34.4003 79.3334 37.3336Z" fill="white"/>
<path d="M80.933 70.2667C79.0664 72 80.133 77.3333 82.533 78.6667C83.9997 79.3333 89.0664 80 93.8664 80C101.2 80 102.8 79.6 104.533 77.0667C106 75.0667 106.133 73.6 105.2 71.7333C104.133 69.7333 102.266 69.3333 92.7997 69.3333C86.7997 69.3333 81.333 69.7333 80.933 70.2667Z" fill="white"/>
<path d="M70.267 86.2667C68.4004 88 69.467 93.3333 71.867 94.6667C73.3337 95.3333 80.5337 96 87.867 96C99.6004 96 101.734 95.6 104 93.3333C106.134 91.2 106.4 90 105.334 88C104 85.6 102.534 85.3333 87.467 85.3333C78.5337 85.3333 70.667 85.7333 70.267 86.2667Z" fill="white"/>
</svg>
