<svg width="150" height="107" viewBox="0 0 150 107" fill="none" xmlns="http://www.w3.org/2000/svg">
<path d="M28.9332 25.467C11.8665 40.8003 0.666504 51.867 0.666504 53.3337C0.666504 56.1337 56.2665 106.667 59.3332 106.667C62.1332 106.667 64.6665 104 64.6665 101.2C64.6665 99.867 54.9332 90.1337 42.6665 79.067L20.5332 59.3337L84.1332 58.667C142.8 58.0003 147.867 57.867 149.2 55.7337C150.267 54.0003 150.267 52.667 149.2 51.067C147.867 48.8003 142.8 48.667 84.1332 48.0003L20.5332 47.3337L42.5332 27.6003C54.7998 16.667 64.6665 6.66699 64.6665 5.46699C64.6665 2.66699 62.1332 0.000319958 59.3332 0.000319958C58.2665 0.000319958 44.5332 11.467 28.9332 25.467Z" fill="#0000FF"/>
</svg>
