<svg width="170" height="126" viewBox="0 0 170 126" fill="none" xmlns="http://www.w3.org/2000/svg">
<path d="M85.6002 2.6671C78.4002 4.93377 71.7335 10.0004 68.0002 16.0004L65.0668 20.8004L45.6002 20.4004L26.1335 20.0004L24.5335 13.6004C23.6002 10.0004 22.5335 6.80043 22.2668 6.40043C20.8002 5.0671 2.26685 5.8671 1.20018 7.4671C-0.933155 10.9338 1.60018 12.6671 8.80018 12.6671H15.8668L17.8668 19.6004C19.0668 23.4671 24.4002 43.0671 30.0002 63.2004C35.4668 83.3338 40.8002 100.267 41.7335 100.934C42.5335 101.467 45.3335 102 47.6002 102C51.7335 102 51.8668 102.134 50.6668 105.467C48.1335 112.134 52.1335 120.534 59.4668 124C65.8668 127.067 72.2668 125.6 77.4668 119.734C81.0668 115.6 81.4668 114.134 81.0668 108.534L80.6668 102H94.6669H108.667L108.267 108.4C107.867 113.867 108.4 115.6 111.334 119.067C121.734 131.467 139.467 124.667 139.2 108.4C139.2 102.4 139.334 102 142.534 102C144.4 102 146.8 101.467 147.734 100.8C149.734 99.6004 170.667 24.8004 169.734 22.4004C169.2 21.0671 163.334 20.6671 146.667 20.6671H124.267L121.6 16.1338C118.134 10.2671 110.8 4.80043 103.2 2.53377C95.6002 0.2671 93.0669 0.2671 85.6002 2.6671ZM105.867 12.0004C108.667 13.3338 112.4 16.6671 114.267 19.4671C124.267 34.6671 114.8 54.9338 96.8002 56.4004C85.7335 57.3338 77.0668 52.0004 72.6668 41.6004C68.9335 32.8004 70.9335 23.3338 78.0002 16.5338C86.1335 8.53377 95.3335 7.0671 105.867 12.0004ZM62.6668 32.1338C62.6668 45.3338 73.4668 60.1338 85.3335 63.3338C92.4002 65.2004 103.467 64.4004 108.934 61.6004C118.8 56.4004 126.667 43.7338 126.667 33.0671V28.6671H143.734H160.934L152 60.9338L143.067 93.3338L94.9335 93.7338L46.9335 94.0004L45.4668 89.7338C42.8002 81.3338 29.3335 31.3338 29.3335 30.0004C29.3335 29.2004 35.4668 28.6671 46.0002 28.6671H62.6668V32.1338ZM71.2002 104.134C76.9335 109.867 70.5335 120.134 63.2002 116.934C61.4668 116 59.3335 113.867 58.4002 112.134C55.2002 104.8 65.4668 98.4004 71.2002 104.134ZM130.134 105.334C132.934 109.6 131.067 114.534 126.134 116.934C118.8 120.134 112.4 109.867 118.134 104.134C121.467 100.8 127.6 101.467 130.134 105.334Z" fill="white"/>
<path d="M85.8669 23.467C78.6669 30.4003 76.6669 35.6003 80.6669 37.2003C81.7336 37.6003 84.4002 36.4003 86.5336 34.5337L90.5336 31.2003L90.9336 40.9337C91.3336 50.267 91.4669 50.667 94.6669 50.667C97.8669 50.667 98.0002 50.267 98.4002 40.9337L98.8002 31.2003L102.8 34.5337C107.2 38.267 110.667 37.867 110.667 33.3337C110.667 30.267 97.6002 16.667 94.6669 16.667C93.8669 16.667 89.8669 19.7337 85.8669 23.467Z" fill="white"/>
</svg>
