<svg width="200" height="171" viewBox="0 0 200 171" fill="none" xmlns="http://www.w3.org/2000/svg">
<path d="M8.30076 3.32637C-0.0203235 9.2085 -0.334327 11.3475 0.136678 79.0811L0.607683 141.111L5.78874 146.28L10.8128 151.449H90.8836C149.445 151.449 171.896 150.914 174.88 149.31C183.201 145.032 183.515 142.715 183.515 74.9815V12.4169L178.962 6.71305L174.409 0.830915L93.7097 0.296176C17.0929 -0.0603173 13.0108 0.117929 8.30076 3.32637ZM172.21 11.704L175.665 14.3777V75.6945C175.665 128.99 175.351 137.368 173.152 139.685C170.954 142.18 161.377 142.537 91.6686 142.537H12.5398L10.1848 138.615C7.98676 135.229 7.67276 126.138 7.67276 75.338C7.67276 18.2991 7.82976 15.8036 10.8128 12.4169C13.7958 9.03025 15.9938 8.85201 91.3546 8.85201C158.865 8.85201 169.07 9.2085 172.21 11.704Z" fill="white"/>
<path d="M46.7659 44.3228C34.9908 57.8695 46.9229 79.7938 63.2511 74.6247C69.5312 72.664 75.1832 64.4646 75.1832 57.3348C75.1832 51.8091 71.1012 43.2533 67.4902 40.9361C65.7631 40.0449 61.5241 39.1536 57.9131 39.1536C52.732 39.1536 50.377 40.2231 46.7659 44.3228ZM64.9781 51.6309C70.9442 59.1172 62.7801 69.812 54.616 65.1776C47.2369 61.0779 49.592 48.0659 57.7561 48.0659C60.1111 48.0659 63.4081 49.6702 64.9781 51.6309Z" fill="white"/>
<path d="M100.775 50.739C100.304 52.3432 100.618 54.4822 101.403 55.3734C102.188 56.2646 114.277 56.7994 130.291 56.6211C156.353 56.0864 157.609 55.9081 157.609 52.5215C157.609 49.1348 156.353 48.9565 129.663 48.4218C105.328 48.0653 101.717 48.4218 100.775 50.739Z" fill="white"/>
<path d="M100.775 79.2595C100.304 80.8637 100.618 83.0027 101.403 83.8939C102.188 84.7851 114.277 85.3199 130.291 85.1416C156.353 84.6069 157.609 84.4286 157.609 81.042C157.609 77.6553 156.353 77.477 129.663 76.9423C105.328 76.5858 101.717 76.9423 100.775 79.2595Z" fill="white"/>
<path d="M40.6432 84.7851C27.455 89.7761 20.704 103.679 27.769 110.987C30.2811 113.661 34.8341 114.018 58.0703 114.018C89.4707 114.018 91.6687 113.305 91.3547 102.61C91.1977 94.054 87.7437 89.9543 77.2245 85.4981C67.0194 81.2202 50.8483 80.8637 40.6432 84.7851ZM74.0845 93.6975C81.1496 96.3712 85.7026 101.54 83.5046 104.036C83.0336 104.571 71.2585 105.105 57.5993 105.105C34.6771 105.105 32.6361 104.927 33.1071 101.897C33.4211 100.293 36.7181 97.0842 40.6432 94.767C49.1213 89.9543 63.2514 89.4196 74.0845 93.6975Z" fill="white"/>
<path d="M100.775 107.779C100.304 109.383 100.618 111.522 101.403 112.413C102.188 113.305 114.277 113.839 130.291 113.661C156.353 113.126 157.609 112.948 157.609 109.561C157.609 106.175 156.353 105.997 129.663 105.462C105.328 105.105 101.717 105.462 100.775 107.779Z" fill="white"/>
<path d="M194.034 34.8759C193.406 35.5889 192.935 62.6824 192.935 95.3015C192.935 143.428 192.464 155.014 190.737 157.866C188.539 161.074 185.399 161.253 109.41 162.144C31.6945 163.035 30.4385 163.035 30.4385 166.6C30.4385 170.165 31.5375 170.165 110.823 170.165H191.365L195.604 165.174L200 160.361V97.4405C200 42.184 199.686 34.6977 197.645 34.1629C196.232 33.9847 194.662 34.1629 194.034 34.8759Z" fill="white"/>
</svg>
