<svg width="152" height="152" viewBox="0 0 152 152" fill="none" xmlns="http://www.w3.org/2000/svg">
<circle cx="76" cy="76" r="76" fill="white"/>
<path d="M58.9457 27.125C58.4837 28.1413 58.0217 29.9892 58.0217 31.2827V33.6848H47.1196C35.2011 33.6848 34 34.1468 34 38.674V41.5381H76.5H119V38.7663C119 34.1468 117.799 33.6848 105.88 33.6848H94.9783V31.2827C94.9783 29.9892 94.5163 28.1413 94.0543 27.125C93.1304 25.462 91.9293 25.3696 76.5 25.3696C61.0707 25.3696 59.8696 25.462 58.9457 27.125Z" fill="#FF0000"/>
<path d="M42.3149 51.8859C42.3149 53.3641 43.978 69.8098 45.9182 88.6576C49.5215 122.38 49.6139 122.842 52.016 124.875C54.4182 126.908 54.9726 127 76.4997 127C98.1193 127 98.5812 127 100.983 124.875C103.386 122.842 103.478 122.38 107.081 88.6576C109.021 69.8098 110.685 53.3641 110.685 51.8859V49.3913H76.4997H42.3149V51.8859ZM58.9454 59.0924C60.516 60.9402 64.6736 114.712 63.4726 117.022C62.4562 118.962 58.6682 119.239 57.2823 117.484C56.3584 116.375 52.478 73.0435 52.478 63.9891C52.478 61.7717 52.9399 59.462 53.5867 58.8152C55.0649 57.337 57.5595 57.4293 58.9454 59.0924ZM79.1791 59C79.9182 59.8315 80.1954 68.6087 80.0106 89.212L79.7334 118.223H76.4997H73.266L72.9889 89.212C72.8041 59.2772 72.9889 57.7065 76.4997 57.7065C77.4236 57.7065 78.6247 58.2609 79.1791 59ZM99.9671 59.7391C101.168 61.7717 97.2878 115.636 95.7171 117.484C94.3312 119.239 90.5432 118.962 89.5269 117.022C88.2334 114.62 92.4834 60.9402 94.0541 59C95.5323 57.2446 98.5812 57.6141 99.9671 59.7391Z" fill="#FF0000"/>
</svg>
