<svg width="300" height="300" viewBox="0 0 300 300" fill="none" xmlns="http://www.w3.org/2000/svg">
<path d="M183.633 299.371C198.867 295.889 208.77 278.948 205.723 261.539L204.375 253.906C201.27 236.028 195.527 219.021 187.5 203.553H271.875C287.402 203.553 300 189.157 300 171.413C300 159.026 293.848 148.246 284.824 142.889C291.211 136.997 295.312 127.957 295.312 117.847C295.312 102.178 285.469 89.1215 272.52 86.3093C275.098 81.4213 276.562 75.7298 276.562 69.6366C276.562 55.3745 268.418 43.2551 257.168 39.1037C257.578 36.894 257.812 34.5505 257.812 32.14C257.812 14.396 245.215 0 229.688 0H172.559C161.426 0 150.586 3.74966 141.328 10.7803L118.77 27.9886C103.125 39.9072 93.75 59.9946 93.75 81.4883V107.133V139.273V155.946C93.75 175.498 101.543 193.911 114.844 206.165L119.18 210.115C134.707 224.31 145.313 244.264 149.18 266.494L150.527 274.127C153.574 291.536 168.398 302.852 183.633 299.371ZM18.75 235.693H56.25C66.6211 235.693 75 226.118 75 214.267V64.28C75 52.4284 66.6211 42.8533 56.25 42.8533H18.75C8.37891 42.8533 0 52.4284 0 64.28V214.267C0 226.118 8.37891 235.693 18.75 235.693Z" fill="#BBBB0C"/>
</svg>
