<svg width="118" height="118" viewBox="0 0 118 118" fill="none" xmlns="http://www.w3.org/2000/svg">
<path d="M91.442 1.67215C89.5063 2.58174 78.0058 13.3831 65.8221 25.7762L43.6181 48.1748L40.8853 62.1597C37.3554 81.0336 37.0138 80.5788 55.9157 77.1678L69.9213 74.5528L93.4916 51.1309C113.191 31.5748 117.062 27.0269 117.745 23.6159C118.77 18.3858 116.834 14.5201 109.547 7.69816C101.007 -0.488116 97.9324 -1.5114 91.442 1.67215ZM103.284 14.9749C105.903 17.5899 108.067 20.5461 108.067 21.4557C108.067 23.2748 103.626 28.2776 101.918 28.2776C100.437 28.2776 89.8479 17.931 89.8479 16.4529C89.8479 14.6338 94.6303 10.0858 96.6799 10.0858C97.7047 10.0858 100.665 12.2461 103.284 14.9749ZM88.7092 29.983L94.9719 36.3501L80.1693 50.9035C65.4805 65.3432 65.3666 65.4569 58.193 66.8213C54.2077 67.6172 50.6778 67.9583 50.3362 67.7309C50.1085 67.3898 50.4501 63.8651 51.2472 59.8857C52.6136 52.8364 52.7274 52.609 66.8469 38.1693C74.8175 30.2104 81.5357 23.7296 81.8773 23.7296C82.2189 23.7296 85.2932 26.5721 88.7092 29.983Z" fill="white"/>
<path d="M12.4162 12.0454C7.51805 13.5265 3.75903 16.4886 1.82256 20.5901C0.22782 23.7801 0 30.2741 0 65.2506C0 103.987 0.11391 106.265 2.2782 109.797C3.53121 111.848 6.15113 114.468 8.20151 115.721C11.7327 117.886 14.0109 118 52.7403 118C98.5321 118 99.1016 117.886 103.886 110.139C106.278 106.379 106.506 104.442 106.847 87.4668C107.189 71.061 107.075 68.5545 105.253 66.6177C102.861 63.9973 101.038 63.8834 98.646 66.2759C97.1651 67.757 96.8234 71.1749 96.8234 85.8718C96.8234 95.6698 96.3678 104.328 95.9121 105.012C93.6339 108.544 89.761 108.886 52.3986 108.886H14.6944L11.9605 106.037L9.11279 103.303V65.5923C9.11279 28.2234 9.45452 24.3498 12.9857 22.0712C13.6692 21.6155 22.3263 21.1598 32.1226 21.1598C46.817 21.1598 50.2343 20.818 51.7151 19.3369C54.1072 17.0583 53.9933 15.1215 51.4873 12.8429C49.6647 11.2479 46.7031 10.9061 32.3504 11.02C23.0098 11.02 14.0109 11.4757 12.4162 12.0454Z" fill="white"/>
</svg>
