<svg width="171" height="171" viewBox="0 0 171 171" fill="none" xmlns="http://www.w3.org/2000/svg">
<path d="M66.6667 2.13357C35.4667 8.80024 8.53341 36.0002 2.00008 67.3336C-10.6666 127.867 42.8001 181.334 103.333 168.667C135.067 162 162 135.067 168.667 103.334C181.333 42.5336 127.467 -10.9331 66.6667 2.13357ZM101.6 42.0002C104.8 43.2002 109.6 45.8669 112.133 48.0002L116.667 51.8669L110.667 57.8669L104.667 64.0002L98.1334 60.6669C89.8668 56.5336 82.4001 56.4002 74.6668 60.2669C62.9334 66.4002 56.5334 79.6002 59.8667 91.6002C61.8667 99.3336 66.2668 105.334 72.9334 109.6C76.9334 112 79.8668 112.667 86.6668 112.667C96.8001 112.667 102.933 109.734 107.6 102.667C112.667 95.2002 112.133 94.6669 98.6668 94.6669H86.6668V86.0002V77.3336H108H129.2L130.133 82.0002C132.267 93.2002 125.6 112 116.667 119.734C106.933 128.4 102.133 130 86.6668 130C74.0001 130 72.0001 129.6 66.0001 126.4C44.2667 114.8 34.6667 88.6669 44.4001 67.3336C50.1334 54.9336 61.2001 44.9336 73.3334 41.2002C79.2001 39.4669 95.3334 39.8669 101.6 42.0002Z" fill="white"/>
</svg>
