<svg width="171" height="171" viewBox="0 0 171 171" fill="none" xmlns="http://www.w3.org/2000/svg">
<path d="M62.8777 18.9335C-4.58896 84.9335 -3.25563 83.2002 2.47771 88.4002C7.81104 93.2002 9.67771 91.8668 47.811 54.6668C68.0777 34.8002 85.011 18.6668 85.411 18.6668C85.811 18.6668 102.744 34.8002 123.011 54.6668C161.544 92.1335 163.544 93.7335 168.478 88.2668C173.544 82.6668 174.344 83.7335 107.278 18.2669C93.9444 5.33352 87.6777 0.000184436 85.411 0.000184436C83.1444 0.000184436 76.611 5.46685 62.8777 18.9335Z" fill="white"/>
<path d="M27.9444 84.5337L24.7444 86.1337L24.3444 125.867C24.0777 161.6 24.2111 166 26.2111 168.267C28.2111 170.4 30.7444 170.667 49.6777 170.667C61.8111 170.667 72.0777 170.134 73.5444 169.334C75.9444 168 76.0777 166.267 76.0777 144.667V121.334H85.4111H94.7444V143.867C94.7444 162.667 95.1444 166.8 96.8777 168.534C98.6111 170.267 102.744 170.667 120.611 170.667C139.944 170.667 142.611 170.4 144.478 168.267C146.478 166.134 146.744 161.2 146.744 126.4C146.744 83.467 146.744 83.6003 139.144 83.6003C132.478 83.6003 132.078 85.6003 132.078 122.267V156H120.878H109.544L109.144 134.134C108.611 105.334 109.811 106.667 85.4111 106.667C61.0111 106.667 62.2111 105.334 61.6777 134.134L61.2777 156H49.9444H38.7444V122.267C38.7444 87.467 38.4777 85.467 33.2777 83.6003C32.0777 83.2003 29.6777 83.6003 27.9444 84.5337Z" fill="white"/>
</svg>
