<svg width="83" height="74" viewBox="0 0 83 74" fill="none" xmlns="http://www.w3.org/2000/svg">
<path d="M82.9782 36.9277C82.9782 39.5293 80.8166 41.5672 78.3667 41.5672H73.7552L73.8561 64.7211C73.8561 65.1113 73.8273 65.5016 73.7841 65.8918V68.2188C73.7841 71.4129 71.2045 74 68.0197 74H65.7139C65.5554 74 65.3969 74 65.2384 73.9855C65.0366 74 64.8349 74 64.6331 74H59.9495H56.4909C53.3061 74 50.7265 71.4129 50.7265 68.2188V64.75V55.5C50.7265 52.9418 48.6658 50.875 46.115 50.875H36.892C34.3413 50.875 32.2805 52.9418 32.2805 55.5V64.75V68.2188C32.2805 71.4129 29.701 74 26.5161 74H23.0575H18.4604C18.2443 74 18.0281 73.9855 17.8119 73.9711C17.639 73.9855 17.4661 74 17.2931 74H14.9874C11.8026 74 9.22301 71.4129 9.22301 68.2188V52.0312C9.22301 51.9012 9.22301 51.7566 9.23742 51.6266V41.5672H4.6115C2.01753 41.5672 0 39.5438 0 36.9277C0 35.627 0.432328 34.4707 1.44109 33.459L38.3908 1.15625C39.3995 0.144531 40.5524 0 41.5612 0C42.5699 0 43.7228 0.289062 44.5875 1.01172L81.393 33.459C82.5459 34.4707 83.1224 35.627 82.9782 36.9277Z" fill="black"/>
</svg>
