<svg width="171" height="171" viewBox="0 0 171 171" fill="none" xmlns="http://www.w3.org/2000/svg">
<g clip-path="url(#clip0_2003_1959)">
<path d="M62.8777 18.9333C-4.58896 84.9333 -3.25563 83.2 2.47771 88.4C7.81104 93.2 9.67771 91.8666 47.811 54.6666C68.0777 34.8 85.011 18.6666 85.411 18.6666C85.811 18.6666 102.744 34.8 123.011 54.6666C161.544 92.1333 163.544 93.7333 168.478 88.2666C173.544 82.6666 174.344 83.7333 107.278 18.2667C93.9444 5.33333 87.6777 0 85.411 0C83.1444 0 76.611 5.46667 62.8777 18.9333Z" fill="black"/>
<path d="M27.9439 84.5341L24.7439 86.1341L24.3439 125.867C24.0772 161.6 24.2106 166 26.2106 168.267C28.2106 170.4 30.7439 170.667 49.6772 170.667C61.8106 170.667 72.0772 170.134 73.5439 169.334C75.9439 168 76.0772 166.267 76.0772 144.667V121.334H85.4106H94.7439V143.867C94.7439 162.667 95.1439 166.8 96.8772 168.534C98.6106 170.267 102.744 170.667 120.611 170.667C139.944 170.667 142.611 170.4 144.478 168.267C146.478 166.134 146.744 161.2 146.744 126.4C146.744 83.4674 146.744 83.6007 139.144 83.6007C132.478 83.6007 132.078 85.6007 132.078 122.267V156H120.878H109.544L109.144 134.134C108.611 105.334 109.811 106.667 85.4106 106.667C61.0106 106.667 62.2106 105.334 61.6772 134.134L61.2772 156H49.9439H38.7439V122.267C38.7439 87.4674 38.4772 85.4674 33.2772 83.6007C32.0772 83.2007 29.6772 83.6007 27.9439 84.5341Z" fill="black"/>
</g>
<defs>
<clipPath id="clip0_2003_1959">
<rect width="171" height="171" fill="white"/>
</clipPath>
</defs>
</svg>
