<svg width="300" height="264" viewBox="0 0 300 264" fill="none" xmlns="http://www.w3.org/2000/svg">
<path d="M183.633 1.27734C198.867 4.32422 208.77 19.1484 205.723 34.3828L204.375 41.0625C201.27 56.707 195.527 71.5898 187.5 85.125H271.875C287.402 85.125 300 97.7227 300 113.25C300 124.09 293.848 133.523 284.824 138.211C291.211 143.367 295.312 151.277 295.312 160.125C295.312 173.836 285.469 185.262 272.52 187.723C275.098 192 276.562 196.98 276.562 202.313C276.562 214.793 268.418 225.398 257.168 229.031C257.578 230.965 257.812 233.016 257.812 235.125C257.812 250.652 245.215 263.25 229.688 263.25H172.559C161.426 263.25 150.586 259.969 141.328 253.816L118.77 238.758C103.125 228.328 93.75 210.75 93.75 191.941V169.5V141.375V126.785C93.75 109.676 101.543 93.5625 114.844 82.8398L119.18 79.3828C134.707 66.9609 145.313 49.5 149.18 30.0469L150.527 23.3672C153.574 8.13281 168.398 -1.76953 183.633 1.27734ZM18.75 94.5H56.25C66.6211 94.5 75 102.879 75 113.25V244.5C75 254.871 66.6211 263.25 56.25 263.25H18.75C8.37891 263.25 0 254.871 0 244.5V113.25C0 102.879 8.37891 94.5 18.75 94.5Z" fill="black"/>
</svg>
