<svg width="170" height="171" viewBox="0 0 170 171" fill="none" xmlns="http://www.w3.org/2000/svg">
<path d="M60.7997 2.93287C51.0664 8.53287 49.9997 11.9995 49.5997 39.5995L49.0664 63.9995H59.8664H70.5331L71.9997 58.3995C74.9331 47.9995 85.8664 41.1995 96.7997 43.3329C100.933 43.9995 104.8 46.9329 116.4 58.3995C132.533 74.2662 134.666 77.4662 134.666 85.3329C134.666 93.1995 132.533 96.3995 116.4 112.266C104.8 123.733 100.933 126.666 96.7997 127.333C85.8664 129.466 74.9331 122.666 71.9997 112.266L70.5331 106.666H59.8664H49.0664L49.5997 130.933C49.9997 158.666 51.0664 162.133 60.7997 167.733C65.9997 170.666 66.3997 170.666 111.6 170.4C155.2 170 157.333 169.866 160.8 167.2C162.8 165.733 165.733 162.8 167.2 160.8C170 157.2 170 155.733 170 85.3329C170 14.9329 170 13.4662 167.2 9.8662C165.733 7.8662 162.8 4.93287 160.8 3.4662C157.333 0.799535 155.2 0.666202 111.6 0.266202C66.3997 -0.000464622 65.9997 -0.000464622 60.7997 2.93287Z" fill="white"/>
<path d="M86.6666 59.8659C84.4 64.2659 85.0666 66.5326 90.8 72.6659L96.4 78.6659H50.2666C10.1333 78.6659 3.86663 78.9326 2.1333 80.7992C-0.533366 83.4659 -0.533366 87.1992 2.1333 89.8659C3.86663 91.7326 10.1333 91.9992 50.2666 91.9992H96.4L90.8 97.9992C84.9333 104.399 84 107.866 87.4666 111.199C91.7333 115.466 95.0666 113.733 108.4 100.133C115.467 92.9326 121.333 86.2659 121.333 85.3326C121.333 84.3992 115.467 77.7326 108.4 70.5326C98.2666 60.1326 94.6666 57.3326 91.7333 57.3326C89.4666 57.3326 87.6 58.2659 86.6666 59.8659Z" fill="white"/>
</svg>
