<svg width="300" height="258" viewBox="0 0 300 258" fill="none" xmlns="http://www.w3.org/2000/svg">
<path d="M27.8906 152.016L133.77 250.864C138.164 254.965 143.965 257.25 150 257.25C156.035 257.25 161.836 254.965 166.23 250.864L272.109 152.016C289.922 135.434 300 112.172 300 87.8559V84.4575C300 43.5005 270.41 8.57858 230.039 1.8403C203.32 -2.61283 176.133 6.11764 157.031 25.2192L150 32.2505L142.969 25.2192C123.867 6.11764 96.6797 -2.61283 69.9609 1.8403C29.5898 8.57858 0 43.5005 0 84.4575V87.8559C0 112.172 10.0781 135.434 27.8906 152.016Z" fill="#008000"/>
</svg>
