<svg width="170" height="167" viewBox="0 0 170 167" fill="none" xmlns="http://www.w3.org/2000/svg">
<path d="M28.5547 -2.57662C22.8438 0.0787326 19.2578 5.80871 19.2578 12.517C19.2578 17.9674 19.9219 19.365 24.1719 23.5577C31.2109 30.2659 38.25 30.2659 44.625 23.5577C48.4766 19.5048 49.1406 17.8277 49.1406 12.3772C49.1406 3.85213 44.2266 -2.29711 36.5234 -3.13565C33.6016 -3.55491 30.0156 -3.2754 28.5547 -2.57662Z" fill="white"/>
<path d="M14.3438 34.7378C5.71094 39.6292 0.132812 58.636 0 83.2329C0 97.2085 1.32812 100.982 5.97656 100.982C10.4922 100.982 12.2188 96.7892 11.1562 88.6834C10.2266 81.4161 12.6172 57.0986 14.6094 53.6048C15.4062 52.2072 15.9375 71.6332 15.9375 105.873C15.9375 135.921 16.4688 161.077 17 161.915C18.1953 163.732 23.1094 166.667 25.2344 166.667C26.0312 166.667 28.1562 165.13 29.8828 163.173L33.2031 159.819V126.138C33.2031 104.755 33.7344 92.5966 34.5312 92.5966C35.3281 92.5966 35.8594 104.895 35.8594 126.697V160.937L39.3125 163.732C43.8281 167.506 45.9531 167.366 49.8047 163.173L53.125 159.819V106.293V52.906L57.5078 57.3782C63.6172 63.5274 72.6484 67.3008 83.9375 68.2791C95.3594 69.3971 99.6094 67.7201 99.6094 62.5491C99.6094 58.0769 98.4141 57.5179 86.7266 56.8191C73.4453 56.1204 66.5391 52.6265 59.5 42.7038C56.4453 38.5112 52.9922 34.598 51.6641 33.8992C47.8125 31.6631 18.4609 32.2222 14.3438 34.7378Z" fill="white"/>
<path d="M82.3438 45.7777C82.3438 50.8089 82.7422 52.0667 84.7344 52.2065C99.6094 52.6258 103.594 54.8619 103.594 62.6882C103.594 69.3964 98.5469 73.0301 89.5156 73.0301C85.5313 73.0301 82.3438 73.5891 82.3438 74.4276C82.3438 75.2662 88.9844 75.8252 99.6094 75.8252H117.008L116.609 57.9365L116.211 40.1875L99.3438 39.7683L82.3438 39.349V45.7777Z" fill="white"/>
<path d="M121.789 40.467C121.258 40.8863 120.859 49.1319 120.859 58.6353V75.8252H138.125H155.391V57.657V39.4887H139.055C130.023 39.4887 122.188 39.908 121.789 40.467Z" fill="white"/>
<path d="M57.1094 98.1871V116.495L72.1172 116.076L86.9922 115.657L87.3906 97.7679L87.7891 80.0189H72.3828H57.1094V98.1871Z" fill="white"/>
<path d="M91.9062 97.7675L92.3047 115.656H108.906H125.508L125.906 97.7675L126.305 80.0186H108.906H91.5078L91.9062 97.7675Z" fill="white"/>
<path d="M130.422 97.7675L130.82 115.656H147.422H164.023L164.422 97.7675L164.82 80.0186H147.422H130.023L130.422 97.7675Z" fill="white"/>
<path d="M57.1094 119.849C57.1094 121.666 64.2812 121.945 113.555 121.945C162.828 121.945 170 121.666 170 119.849C170 118.032 162.828 117.753 113.555 117.753C64.2812 117.753 57.1094 118.032 57.1094 119.849Z" fill="white"/>
</svg>
