<svg width="170" height="167" viewBox="0 0 170 167" fill="none" xmlns="http://www.w3.org/2000/svg">
<g clip-path="url(#clip0_2003_1935)">
<path d="M28.5547 -2.57699C22.8438 0.0783613 19.2578 5.80834 19.2578 12.5166C19.2578 17.967 19.9219 19.3646 24.1719 23.5573C31.2109 30.2655 38.25 30.2655 44.625 23.5573C48.4766 19.5044 49.1406 17.8273 49.1406 12.3768C49.1406 3.85176 44.2266 -2.29748 36.5234 -3.13602C33.6016 -3.55528 30.0156 -3.27577 28.5547 -2.57699Z" fill="black"/>
<path d="M14.3438 34.7375C5.71094 39.6289 0.132812 58.6357 0 83.2326C0 97.2082 1.32812 100.982 5.97656 100.982C10.4922 100.982 12.2188 96.7889 11.1562 88.6831C10.2266 81.4158 12.6172 57.0983 14.6094 53.6045C15.4062 52.2069 15.9375 71.6329 15.9375 105.873C15.9375 135.921 16.4688 161.077 17 161.915C18.1953 163.732 23.1094 166.667 25.2344 166.667C26.0312 166.667 28.1562 165.13 29.8828 163.173L33.2031 159.819V126.138C33.2031 104.755 33.7344 92.5963 34.5312 92.5963C35.3281 92.5963 35.8594 104.895 35.8594 126.697V160.937L39.3125 163.732C43.8281 167.506 45.9531 167.366 49.8047 163.173L53.125 159.819V106.293V52.9056L57.5078 57.3779C63.6172 63.5271 72.6484 67.3004 83.9375 68.2787C95.3594 69.3967 99.6094 67.7197 99.6094 62.5487C99.6094 58.0766 98.4141 57.5176 86.7266 56.8188C73.4453 56.1201 66.5391 52.6262 59.5 42.7035C56.4453 38.5109 52.9922 34.5977 51.6641 33.8989C47.8125 31.6628 18.4609 32.2219 14.3438 34.7375Z" fill="black"/>
<path d="M82.3438 45.7773C82.3438 50.8085 82.7421 52.0663 84.7343 52.2061C99.6093 52.6254 103.594 54.8615 103.594 62.6878C103.594 69.396 98.5468 73.0297 89.5155 73.0297C85.5312 73.0297 82.3438 73.5887 82.3438 74.4272C82.3438 75.2658 88.9843 75.8248 99.6093 75.8248H117.008L116.609 57.9361L116.211 40.1871L99.3438 39.7679L82.3438 39.3486V45.7773Z" fill="black"/>
<path d="M121.789 40.4666C121.258 40.8859 120.859 49.1315 120.859 58.6349V75.8248H138.125H155.391V57.6566V39.4883H139.055C130.023 39.4883 122.188 39.9076 121.789 40.4666Z" fill="black"/>
<path d="M57.1094 98.1868V116.495L72.1172 116.076L86.9922 115.657L87.3906 97.7676L87.7891 80.0186H72.3828H57.1094V98.1868Z" fill="black"/>
<path d="M91.9062 97.7675L92.3047 115.656H108.906H125.508L125.906 97.7675L126.305 80.0186H108.906H91.5078L91.9062 97.7675Z" fill="black"/>
<path d="M130.422 97.7675L130.82 115.656H147.422H164.023L164.422 97.7675L164.82 80.0186H147.422H130.023L130.422 97.7675Z" fill="black"/>
<path d="M57.1094 119.849C57.1094 121.666 64.2812 121.945 113.555 121.945C162.828 121.945 170 121.666 170 119.849C170 118.032 162.828 117.753 113.555 117.753C64.2812 117.753 57.1094 118.032 57.1094 119.849Z" fill="black"/>
</g>
<defs>
<clipPath id="clip0_2003_1935">
<rect width="170" height="167" fill="white"/>
</clipPath>
</defs>
</svg>
