<svg width="170" height="170" viewBox="0 0 170 170" fill="none" xmlns="http://www.w3.org/2000/svg">
<path d="M62.7495 2.36769C49.3032 5.89679 35.5367 14.0779 24.9718 24.6652C-8.32392 58.0312 -8.32392 111.609 24.9718 144.975C58.2674 178.342 111.733 178.342 145.028 144.975C178.324 111.609 178.324 58.0312 145.028 24.6652C134.303 13.9175 120.537 5.89679 106.61 2.20727C94.9247 -0.840588 74.275 -0.680174 62.7495 2.36769ZM97.9661 45.6794C109.492 51.6147 113.653 67.4956 107.09 79.8475C102.608 88.3494 94.9247 92.841 85 92.841C75.0753 92.841 67.3917 88.3494 63.0697 80.0079C50.7439 56.5875 74.435 33.3275 97.9661 45.6794ZM109.652 111.93C115.094 114.497 122.618 119.951 126.46 123.961L133.663 131.34L129.021 136.153C117.655 148.184 92.8437 155.563 75.0753 152.354C63.71 150.43 48.1827 143.371 40.339 136.634L34.8964 131.982L39.8588 126.367C57.307 106.316 86.2806 100.38 109.652 111.93Z" fill="white"/>
</svg>
