<svg width="150" height="144" viewBox="0 0 150 144" fill="none" xmlns="http://www.w3.org/2000/svg">
<path d="M62.3998 2.533C58.6665 3.733 53.3332 6.533 50.6665 8.533C45.0665 12.7997 38.5332 22.3997 37.3332 28.133C36.5332 31.333 35.7332 31.9997 32.3998 31.9997C16.1332 31.9997 0.666504 47.5997 0.666504 63.9997C0.666504 75.8663 10.3998 90.133 20.9332 93.5997C26.2665 95.4663 26.5332 95.733 28.1332 103.6C31.4665 120.133 41.1998 132.666 55.9998 139.6C62.7998 142.8 65.7332 143.333 75.3332 143.333C84.9332 143.333 87.8665 142.8 94.6665 139.6C109.867 132.533 121.067 117.466 122.933 101.466C123.6 95.0663 124 94.533 129.467 91.8663C141.067 86.2663 150 71.8663 150 58.6663C150 55.9997 149.067 50.6663 147.867 46.6663C143.867 33.0663 128 21.333 113.733 21.333C111.733 21.333 110 20.6663 110 19.9997C110 19.1997 107.067 15.5997 103.6 12.133C92.3998 0.933 77.1998 -2.667 62.3998 2.533ZM88.5332 14.133C93.8665 16.7997 96.6665 19.4663 99.9998 24.6663L104.533 31.5997L113.2 32.2663C123.6 33.1997 130 36.6663 135.067 44.3997C138.133 48.933 138.667 51.333 138.667 58.7997C138.667 66.6663 138.133 68.533 134.667 73.333C132.533 76.3997 128.667 80.133 126.4 81.5997L122 84.2663L120.667 80.3997C115.467 65.8663 103.467 54.533 88.6665 50.133C71.1998 44.933 53.0665 49.9997 40.5332 63.4663C34.7998 69.8663 32.2665 73.8663 30.1332 80.2663C28.5332 84.933 28.3998 85.0663 24.6665 83.733C22.5332 83.0663 18.9332 80.3997 16.7998 77.8663C9.73317 69.8663 9.73317 58.133 16.7998 49.9997C21.7332 44.3997 28.3998 42.133 36.6665 43.1997C43.9998 44.133 45.1998 43.1997 46.3998 35.4663C47.7332 26.7997 53.7332 18.6663 61.8665 14.3997C71.1998 9.46633 79.0665 9.46633 88.5332 14.133ZM87.3332 60.7997C101.333 64.933 112.667 80.6663 112.667 95.9997C112.667 116 95.3332 133.333 75.3332 133.333C55.3332 133.333 37.9998 116 37.9998 95.9997C37.9998 76.133 54.7998 59.0663 74.7998 58.7997C77.7332 58.6663 83.3332 59.5997 87.3332 60.7997Z" fill="white"/>
<path d="M63.5998 79.066C53.9998 88.666 52.6664 91.466 55.5998 94.3993C58.2664 97.066 61.1998 96.266 65.4664 91.866L69.3331 87.866L69.9998 104.133C70.5331 117.733 71.0664 120.666 72.9331 121.866C74.6664 122.933 75.9998 122.933 77.7331 121.866C79.5998 120.666 80.1331 117.733 80.6664 104.133L81.3331 87.866L85.1998 91.866C87.4664 94.1327 90.1331 95.9993 91.3331 95.9993C93.9998 95.9993 96.6664 93.466 96.6664 90.666C96.6664 87.9993 77.9998 69.3327 75.3331 69.3327C74.1331 69.3327 68.9331 73.7327 63.5998 79.066Z" fill="white"/>
</svg>
