<svg width="122" height="106" viewBox="0 0 122 106" fill="none" xmlns="http://www.w3.org/2000/svg">
<path d="M9.2 3.73326C0.666667 9.4666 0 12.2666 0 46.6666C0.133333 87.8666 1.46667 91.1999 20 92.6666L28.6667 93.3333L29.3333 98.5333C30.4 107.333 32.9333 107.467 44.9333 99.5999L55.4667 92.6666H82.1333C106.133 92.6666 109.067 92.3999 112.933 89.9999C120.933 85.1999 121.333 82.9333 121.333 47.0666C121.333 -2.40007 125.333 0.666596 60.5333 0.666596C14.1333 0.666596 13.7333 0.666596 9.2 3.73326ZM110.933 11.0666C113.867 13.9999 114 14.7999 114.4 46.1333L114.8 78.1333L110.8 81.9999L106.933 85.9999H79.7333H52.6667L44.6667 91.3333L36.6667 96.6666L36 91.7333L35.3333 86.6666L24.5333 85.9999C7.2 84.9333 8 86.7999 8 47.3333C8 13.0666 8.13333 12.1333 14 8.79993C15.8667 7.8666 30.6667 7.4666 62.2667 7.73326C107.733 7.99993 108 7.99993 110.933 11.0666Z" fill="white"/>
<path d="M41.0662 24.8C39.8662 25.4666 37.5995 28 36.1329 30.5333C33.9995 33.8666 31.9995 35.3333 28.2662 36C19.0662 37.7333 17.5995 41.6 23.7329 48.8C26.6662 52.4 27.1995 54.2666 26.9329 59.3333C26.2662 68.1333 28.6662 69.8666 37.1995 66.8C42.9329 64.8 43.8662 64.8 48.3995 66.6666C54.3995 69.2 55.3329 69.2 57.8662 66.5333C59.4662 65.0666 59.7329 63.0666 59.1995 59.2C58.3995 54.5333 58.7995 53.2 62.6662 48.5333C68.2662 41.4666 67.0662 37.4666 58.6662 36C54.2662 35.2 52.5329 34.1333 50.3995 30.5333C47.1995 24.9333 44.1329 23.0666 41.0662 24.8ZM51.3329 41.7333C57.4662 42.6666 57.8662 43.2 54.7995 46.4C52.9329 48.5333 51.9995 51.2 51.9995 55.0666V60.8L47.7329 58.5333C43.8662 56.5333 43.1995 56.5333 39.0662 58.5333L34.6662 60.6666V55.8666C34.6662 53.2 33.4662 49.4666 31.9995 47.3333C29.0662 43.2 29.5995 42 34.2662 42C36.3995 42 38.2662 40.5333 40.1329 37.3333L42.9329 32.6666L45.8662 36.9333C47.4662 39.3333 49.9995 41.4666 51.3329 41.7333Z" fill="white"/>
<path d="M72.5335 30.6665C70.5335 35.7332 72.6669 36.6665 87.0669 36.6665C97.8669 36.6665 101.334 36.2665 102.667 34.6665C104 33.0665 104 32.2665 102.667 30.6665C101.334 29.0665 97.8669 28.6665 87.0669 28.6665C76.0002 28.6665 73.0669 29.0665 72.5335 30.6665Z" fill="white"/>
<path d="M72.9333 44.2667C72.4 44.6667 72 46.2667 72 47.6C72 49.7333 73.3333 50 87.2 50C102.667 50 105.733 49.0667 102.667 45.3333C101.333 43.8667 97.7333 43.3333 87.3333 43.3333C79.8667 43.3333 73.3333 43.7333 72.9333 44.2667Z" fill="white"/>
<path d="M72.2669 60.9333C72.6669 63.7333 73.4669 64 81.4669 64.4C88.0002 64.6667 90.6669 64.2667 91.8669 62.8C94.8002 59.3333 92.1336 58 81.8669 58C72.2669 58 71.8669 58.1333 72.2669 60.9333Z" fill="white"/>
</svg>
