<svg width="170" height="171" viewBox="0 0 170 171" fill="none" xmlns="http://www.w3.org/2000/svg">
<mask id="path-1-inside-1_2072_1951" fill="white">
<path d="M45.7978 1.8367C36.9733 3.87736 24.3475 11.0877 17.5595 17.8899C-11.9006 47.4115 -3.07618 96.2514 34.9369 114.345C44.8475 119.107 46.0693 119.379 58.9666 119.379C73.9003 119.379 81.5029 117.338 92.0923 110.264L98.0658 106.183L130.92 139.105C164.86 173.116 166.218 174.069 169.748 167.266C171.105 164.818 167.847 161.144 138.387 131.623L105.533 98.7002L109.605 92.7142C118.023 79.9261 121.281 62.7845 118.158 48.0917C113.407 25.7805 94.9433 6.87033 73.0857 1.8367C65.8904 0.204168 52.7216 0.204168 45.7978 1.8367ZM75.1221 13.9446C86.5261 17.4818 98.473 28.0932 104.039 39.5209C107.298 46.3232 107.705 48.908 107.705 60.1997C107.705 71.4913 107.298 74.0762 104.039 80.8784C93.5856 102.509 68.6056 113.665 46.0693 106.999C20.139 99.2443 5.341 72.3076 12.9436 46.5952C15.7946 36.9361 19.8674 30.6781 28.4204 23.0596C40.7746 11.904 57.7447 8.63891 75.1221 13.9446Z"/>
</mask>
<path d="M45.7978 1.8367C36.9733 3.87736 24.3475 11.0877 17.5595 17.8899C-11.9006 47.4115 -3.07618 96.2514 34.9369 114.345C44.8475 119.107 46.0693 119.379 58.9666 119.379C73.9003 119.379 81.5029 117.338 92.0923 110.264L98.0658 106.183L130.92 139.105C164.86 173.116 166.218 174.069 169.748 167.266C171.105 164.818 167.847 161.144 138.387 131.623L105.533 98.7002L109.605 92.7142C118.023 79.9261 121.281 62.7845 118.158 48.0917C113.407 25.7805 94.9433 6.87033 73.0857 1.8367C65.8904 0.204168 52.7216 0.204168 45.7978 1.8367ZM75.1221 13.9446C86.5261 17.4818 98.473 28.0932 104.039 39.5209C107.298 46.3232 107.705 48.908 107.705 60.1997C107.705 71.4913 107.298 74.0762 104.039 80.8784C93.5856 102.509 68.6056 113.665 46.0693 106.999C20.139 99.2443 5.341 72.3076 12.9436 46.5952C15.7946 36.9361 19.8674 30.6781 28.4204 23.0596C40.7746 11.904 57.7447 8.63891 75.1221 13.9446Z" fill="white"/>
<path d="M45.7978 1.8367L50.3876 21.3029L50.3458 21.3128L50.3039 21.3225L45.7978 1.8367ZM34.9369 114.345L43.5326 96.2866L43.5654 96.3022L43.5981 96.318L34.9369 114.345ZM92.0923 110.264L103.375 126.778L103.289 126.836L103.202 126.894L92.0923 110.264ZM98.0658 106.183L86.783 89.669L100.493 80.3015L112.223 92.0552L98.0658 106.183ZM130.92 139.105L116.763 153.233L116.763 153.233L130.92 139.105ZM169.748 167.266L151.995 158.055L152.122 157.81L152.256 157.569L169.748 167.266ZM138.387 131.623L152.544 117.495L152.544 117.495L138.387 131.623ZM105.533 98.7002L91.3757 112.828L79.6944 101.122L88.9971 87.4495L105.533 98.7002ZM109.605 92.7142L126.311 103.71L126.227 103.838L126.141 103.965L109.605 92.7142ZM118.158 48.0917L137.72 43.9257L137.721 43.9342L118.158 48.0917ZM73.0857 1.8367L77.511 -17.6676L77.5426 -17.6604L77.5741 -17.6532L73.0857 1.8367ZM75.1221 13.9446L80.9625 -5.18364L81.0048 -5.17071L81.0471 -5.1576L75.1221 13.9446ZM104.039 39.5209L122.02 30.763L122.048 30.8219L122.077 30.881L104.039 39.5209ZM104.039 80.8784L122.077 89.5184L122.062 89.5496L122.047 89.5808L104.039 80.8784ZM46.0693 106.999L40.3963 126.177L40.3677 126.169L40.339 126.16L46.0693 106.999ZM12.9436 46.5952L32.1255 52.2569L32.1228 52.2661L12.9436 46.5952ZM28.4204 23.0596L41.8241 37.9035L41.7737 37.9489L41.7231 37.994L28.4204 23.0596ZM50.3039 21.3225C48.4315 21.7555 44.9338 23.1108 40.8097 25.4586C36.7438 27.7733 33.4805 30.2494 31.7164 32.0173L3.40263 3.76252C8.42649 -1.27182 14.8701 -5.80191 21.0202 -9.30311C27.1122 -12.7712 34.3396 -16.0414 41.2917 -17.6491L50.3039 21.3225ZM31.7164 32.0173C12.2467 51.5275 17.679 83.9805 43.5326 96.2866L26.3412 132.404C-23.8313 108.522 -36.048 43.2955 3.40263 3.76252L31.7164 32.0173ZM43.5981 96.318C48.868 98.8499 49.5278 98.9875 49.9442 99.075C50.68 99.2296 52.0102 99.3789 58.9666 99.3789V139.379C53.0257 139.379 47.2963 139.392 41.7192 138.22C35.8227 136.981 30.9163 134.602 26.2757 132.373L43.5981 96.318ZM58.9666 99.3789C65.6341 99.3789 69.2503 98.9037 71.8751 98.1848C74.2904 97.5232 76.8669 96.3829 80.9823 93.6336L103.202 126.894C96.7283 131.219 90.2088 134.636 82.442 136.764C74.8848 138.834 67.2328 139.379 58.9666 139.379V99.3789ZM80.8095 93.7503L86.783 89.669L109.349 122.696L103.375 126.778L80.8095 93.7503ZM112.223 92.0552L145.077 124.978L116.763 153.233L83.9089 120.31L112.223 92.0552ZM145.077 124.978C153.596 133.515 159.893 139.799 164.673 144.395C169.651 149.183 172.214 151.384 173.472 152.295C174.106 152.754 173.48 152.192 171.947 151.611C170.235 150.962 166.28 149.888 161.375 151.316C156.516 152.73 153.78 155.72 152.764 157.007C151.903 158.096 151.555 158.903 151.995 158.055L187.5 176.478C187.058 177.33 185.895 179.595 184.152 181.802C182.253 184.205 178.567 187.972 172.553 189.722C166.495 191.485 161.182 190.307 157.774 189.016C154.543 187.791 151.881 186.047 150.004 184.687C143.312 179.839 132.952 169.455 116.763 153.233L145.077 124.978ZM152.256 157.569C150.929 159.962 149.853 163.255 150.016 167.093C150.16 170.468 151.212 172.835 151.674 173.758C152.373 175.157 152.755 175.246 150.613 172.814C146.803 168.486 139.173 160.725 124.23 145.75L152.544 117.495C167.061 132.043 175.79 140.879 180.634 146.38C182.82 148.862 185.604 152.175 187.452 155.873C188.489 157.946 189.803 161.232 189.98 165.392C190.177 170.015 188.905 173.959 187.239 176.964L152.256 157.569ZM124.23 145.75L91.3757 112.828L119.689 84.5728L152.544 117.495L124.23 145.75ZM88.9971 87.4495L93.07 81.4635L126.141 103.965L122.068 109.951L88.9971 87.4495ZM92.8995 81.7183C98.4183 73.3336 100.591 61.639 98.5953 52.2493L137.721 43.9342C141.971 63.93 137.627 86.5186 126.311 103.71L92.8995 81.7183ZM98.5971 52.2577C95.4356 37.4131 82.7443 24.5845 68.5974 21.3266L77.5741 -17.6532C107.142 -10.8438 131.378 14.1479 137.72 43.9258L98.5971 52.2577ZM68.6605 21.341C67.0981 20.9865 63.6571 20.6123 59.3399 20.6123C54.9839 20.6123 51.7005 20.9934 50.3876 21.3029L41.2079 -17.6295C46.8189 -18.9525 53.5818 -19.3877 59.3399 -19.3877C65.1369 -19.3877 71.878 -18.9456 77.511 -17.6676L68.6605 21.341ZM81.0471 -5.1576C98.1513 0.147597 114.238 14.7865 122.02 30.763L86.0587 48.2789C82.7082 41.4 74.9009 34.816 69.1972 33.0469L81.0471 -5.1576ZM122.077 30.881C124.016 34.9294 125.824 39.1854 126.794 44.7277C127.646 49.5958 127.705 54.7413 127.705 60.1997H87.7048C87.7048 54.3664 87.5594 52.5736 87.3935 51.6258C87.3456 51.3523 87.3208 50.9147 86.0018 48.1609L122.077 30.881ZM127.705 60.1997C127.705 65.658 127.646 70.8035 126.794 75.6716C125.824 81.214 124.016 85.4699 122.077 89.5184L86.0018 72.2384C87.3208 69.4847 87.3456 69.0471 87.3935 68.7736C87.5594 67.8257 87.7048 66.033 87.7048 60.1997H127.705ZM122.047 89.5808C107.42 119.848 72.5213 135.68 40.3963 126.177L51.7423 87.8203C64.6899 91.6502 79.7518 85.1709 86.0318 72.176L122.047 89.5808ZM40.339 126.16C4.0476 115.307 -17.0217 77.4033 -6.23556 40.9244L32.1228 52.2661C27.7037 67.2119 36.2303 83.1813 51.7996 87.8373L40.339 126.16ZM-6.23828 40.9335C-2.21161 27.2912 4.1109 17.9293 15.1176 8.12517L41.7231 37.994C35.624 43.4268 33.8008 46.581 32.1255 52.2569L-6.23828 40.9335ZM15.0167 8.21572C33.1872 -8.19187 57.6741 -12.2941 80.9625 -5.18364L69.2818 33.0729C57.8154 29.5719 48.3621 31.9998 41.8241 37.9035L15.0167 8.21572Z" fill="white" mask="url(#path-1-inside-1_2072_1951)"/>
</svg>
