<svg width="168" height="167" viewBox="0 0 168 167" fill="none" xmlns="http://www.w3.org/2000/svg">
<path d="M45.0667 1.46638C36.4001 3.46638 24.0001 10.533 17.3334 17.1997C-11.5999 46.1331 -2.93328 93.9997 34.4001 111.733C44.1334 116.4 45.3334 116.666 58.0001 116.666C72.6667 116.666 80.1334 114.666 90.5334 107.733L96.4001 103.733L128.667 136C162 169.333 163.333 170.266 166.8 163.6C168.133 161.2 164.933 157.6 136 128.666L103.733 96.3997L107.733 90.5331C116 77.9997 119.2 61.1997 116.133 46.7997C111.467 24.933 93.3334 6.39971 71.8667 1.46638C64.8001 -0.133619 51.8667 -0.133619 45.0667 1.46638ZM73.8667 13.333C85.0667 16.7997 96.8001 27.1997 102.267 38.3997C105.467 45.0664 105.867 47.5997 105.867 58.6664C105.867 69.7331 105.467 72.2664 102.267 78.9331C92.0001 100.133 67.4667 111.066 45.3334 104.533C19.8667 96.933 5.33339 70.5331 12.8001 45.3331C15.6001 35.8664 19.6001 29.733 28.0001 22.2664C40.1334 11.333 56.8001 8.13305 73.8667 13.333Z" fill="#0000FF"/>
</svg>
