<svg width="122" height="105" viewBox="0 0 122 105" fill="none" xmlns="http://www.w3.org/2000/svg">
<path d="M9.2 3.10387C0.666667 8.8372 0 11.6372 0 46.0372C0.133333 87.2372 1.46667 90.5705 20 92.0372L28.6667 92.7039L29.3333 97.9039C30.4 106.704 32.9333 106.837 44.9333 98.9705L55.4667 92.0372H82.1333C106.133 92.0372 109.067 91.7705 112.933 89.3705C120.933 84.5705 121.333 82.3039 121.333 46.4372C121.333 -3.02947 125.333 0.0372016 60.5333 0.0372016C14.1333 0.0372016 13.7333 0.0372016 9.2 3.10387ZM110.933 10.4372C113.867 13.3705 114 14.1705 114.4 45.5039L114.8 77.5039L110.8 81.3705L106.933 85.3705H79.7333H52.6667L44.6667 90.7039L36.6667 96.0372L36 91.1039L35.3333 86.0372L24.5333 85.3705C7.2 84.3039 8 86.1705 8 46.7039C8 12.4372 8.13333 11.5039 14 8.17054C15.8667 7.2372 30.6667 6.8372 62.2667 7.10387C107.733 7.37054 108 7.37054 110.933 10.4372Z" fill="white"/>
<path d="M41.0662 24.1706C39.8662 24.8372 37.5995 27.3706 36.1329 29.9039C33.9995 33.2372 31.9995 34.7039 28.2662 35.3706C19.0662 37.1039 17.5995 40.9706 23.7329 48.1706C26.6662 51.7706 27.1995 53.6372 26.9329 58.7039C26.2662 67.5039 28.6662 69.2372 37.1995 66.1706C42.9329 64.1706 43.8662 64.1706 48.3995 66.0372C54.3995 68.5706 55.3329 68.5706 57.8662 65.9039C59.4662 64.4372 59.7329 62.4372 59.1995 58.5706C58.3995 53.9039 58.7995 52.5706 62.6662 47.9039C68.2662 40.8372 67.0662 36.8372 58.6662 35.3706C54.2662 34.5706 52.5329 33.5039 50.3995 29.9039C47.1995 24.3039 44.1329 22.4372 41.0662 24.1706ZM51.3329 41.1039C57.4662 42.0372 57.8662 42.5706 54.7995 45.7706C52.9329 47.9039 51.9995 50.5706 51.9995 54.4372V60.1706L47.7329 57.9039C43.8662 55.9039 43.1995 55.9039 39.0662 57.9039L34.6662 60.0372V55.2372C34.6662 52.5706 33.4662 48.8372 31.9995 46.7039C29.0662 42.5706 29.5995 41.3706 34.2662 41.3706C36.3995 41.3706 38.2662 39.9039 40.1329 36.7039L42.9329 32.0372L45.8662 36.3039C47.4662 38.7039 49.9995 40.8372 51.3329 41.1039Z" fill="white"/>
<path d="M72.5335 30.0371C70.5335 35.1038 72.6669 36.0371 87.0669 36.0371C97.8669 36.0371 101.334 35.6371 102.667 34.0371C104 32.4371 104 31.6371 102.667 30.0371C101.334 28.4371 97.8669 28.0371 87.0669 28.0371C76.0002 28.0371 73.0669 28.4371 72.5335 30.0371Z" fill="white"/>
<path d="M72.9333 43.6373C72.4 44.0373 72 45.6373 72 46.9706C72 49.1039 73.3333 49.3706 87.2 49.3706C102.667 49.3706 105.733 48.4373 102.667 44.7039C101.333 43.2373 97.7333 42.7039 87.3333 42.7039C79.8667 42.7039 73.3333 43.1039 72.9333 43.6373Z" fill="white"/>
<path d="M72.2669 60.3039C72.6669 63.1039 73.4669 63.3706 81.4669 63.7706C88.0002 64.0373 90.6669 63.6373 91.8669 62.1706C94.8002 58.7039 92.1336 57.3706 81.8669 57.3706C72.2669 57.3706 71.8669 57.5039 72.2669 60.3039Z" fill="white"/>
</svg>
