<svg width="105" height="105" viewBox="0 0 105 105" fill="none" xmlns="http://www.w3.org/2000/svg">
<path d="M80.6892 0.614271C73.5 2.9738 68.5811 9.29735 67.7297 17.5085L67.1622 22.7939L51.0811 32.1376C41.3378 37.8005 34.6216 41.1039 33.9595 40.6319C26.1081 34.7803 24.7838 34.214 18.4459 34.214C13.2432 34.214 11.5405 34.5915 8.32432 36.7623C2.36486 40.6319 0 45.2566 0 52.7128C0 57.8093 0.472973 59.5082 2.55405 62.7172C6.43243 68.6632 11.0676 71.0227 18.5405 71.0227C24.6892 71.0227 26.2973 70.3621 33.9595 64.6048C34.6216 64.0385 41.2432 67.4362 51.0811 73.1935L67.1622 82.6316L67.7297 87.8226C68.4865 94.1461 71.3243 99.1484 76.4324 102.452C79.6487 104.622 81.3514 105 86.5541 105C91.7568 105 93.4595 104.622 96.6757 102.452C102.635 98.5821 105 93.9574 105 86.4069C105 80.9328 104.622 79.6114 102.162 76.1193C98 70.1733 92.2297 67.4362 85.3243 68.0025C80.2162 68.4744 77.8514 69.5126 71.0405 74.6092C70.3784 75.0811 63.6622 71.7778 53.9189 66.1149L37.8378 56.7712V52.7128V48.6544L53.9189 39.2162C63.7568 33.459 70.3784 30.0612 71.0405 30.6275C77.6622 35.6297 80.2162 36.7623 85.3243 37.2342C92.2297 37.8005 98 35.0634 102.162 29.1174C104.622 25.6253 105 24.304 105 18.8299C105 11.3737 102.635 6.65467 96.9595 2.9738C92.9865 0.331127 85.0405 -0.801449 80.6892 0.614271Z" fill="white"/>
</svg>
