<svg width="166" height="143" viewBox="0 0 166 143" fill="none" xmlns="http://www.w3.org/2000/svg">
<path d="M119.333 3.46666C107.733 8.66666 101.067 18.1333 99.7335 30.6667C98.4001 44 104.933 56.1333 116.933 62.6667C133.6 71.7333 154.267 65.0667 162.8 47.7333C166.4 40.5333 166.267 25.8667 162.4 18.6667C156.533 7.46666 145.2 0.666655 132.667 0.666655C128.133 0.666655 123.067 1.73332 119.333 3.46666ZM136.4 12.9333C137.333 13.8667 138 17.4667 138 20.9333V27.3333H144.533C151.467 27.3333 155.333 29.6 155.333 33.8667C155.333 37.7333 152.4 39.3333 145.067 39.3333H138V46.6667C138 52.5333 137.467 54.1333 135.333 55.3333C133.467 56.4 131.867 56.4 130 55.3333C127.867 54.1333 127.333 52.5333 127.333 46.6667V39.3333H120.267C112.933 39.3333 110 37.7333 110 33.8667C110 29.6 113.867 27.3333 120.8 27.3333H127.333V20.9333C127.333 14.2667 128.933 11.3333 132.667 11.3333C133.867 11.3333 135.467 12 136.4 12.9333Z" fill="white"/>
<path d="M53.1999 10.6666C40.9333 13.3332 29.0666 19.8666 19.9999 29.1999C-6.13338 55.9999 -5.60005 97.3332 21.1999 123.067C48.2666 149.2 89.1999 148.4 115.067 121.467C124.133 112 129.2 102.933 132 91.0666C134.8 79.3332 134.667 72.6666 131.733 72.6666C130.4 72.6666 128 72.2666 126.4 71.8666C123.6 71.0666 123.333 71.4666 123.333 76.7999C123.333 79.9999 122.533 85.7332 121.467 89.4666C119.6 96.5332 112.933 110 111.333 110C110.933 110 109.2 107.6 107.6 104.8C103.333 97.1999 92.2666 87.8666 83.8666 84.7999C74.1333 81.0666 60.5333 81.0666 50.7999 84.7999C42.1333 87.9999 30.9333 97.5999 27.1999 104.8C25.7333 107.733 24.1333 110 23.4666 110C22.9333 110 20.7999 106.933 18.6666 103.2C-0.133384 68.5332 19.4666 27.7332 58.5333 20.5332C68.1333 18.6666 81.4666 20.2666 88.7999 24.1332C94.1333 26.7999 94.6666 26.5332 96.2666 21.3332C97.7333 16.7999 97.5999 16.5332 93.7333 14.5332C88.6666 11.8666 73.5999 8.66658 66.6666 8.79991C63.7333 8.79991 57.7333 9.73325 53.1999 10.6666Z" fill="white"/>
<path d="M56.9333 34.1337C39.8666 42.6671 39.7333 67.2004 56.7999 76.0004C61.5999 78.5337 73.0666 78.5337 77.8666 76.0004C94.9333 67.2004 94.7999 42.4004 77.5999 34.1337C70.2666 30.5337 64.1333 30.5337 56.9333 34.1337Z" fill="white"/>
</svg>
