<svg width="91" height="72" viewBox="0 0 91 72" fill="none" xmlns="http://www.w3.org/2000/svg">
<path d="M23.0069 1.67143C22.0296 0.610715 20.6678 0 19.2259 0C17.784 0 16.4222 0.610715 15.445 1.67143L1.34647 17.1C-0.560032 19.1893 -0.431864 22.4518 1.66689 24.3643C3.76564 26.2768 7.00188 26.1482 8.90838 24.0429L14.0992 18.3696V66.8571C14.0992 69.7018 16.3902 72 19.2259 72C22.0616 72 24.3526 69.7018 24.3526 66.8571V18.3696L29.5434 24.0589C31.4499 26.1482 34.7022 26.2929 36.7849 24.3804C38.8677 22.4679 39.0118 19.2054 37.1053 17.1161L23.0069 1.6875V1.67143ZM49.9862 72H55.113C57.9487 72 60.2397 69.7018 60.2397 66.8571C60.2397 64.0125 57.9487 61.7143 55.113 61.7143H49.9862C47.1505 61.7143 44.8595 64.0125 44.8595 66.8571C44.8595 69.7018 47.1505 72 49.9862 72ZM49.9862 51.4286H65.3664C68.2021 51.4286 70.4931 49.1304 70.4931 46.2857C70.4931 43.4411 68.2021 41.1429 65.3664 41.1429H49.9862C47.1505 41.1429 44.8595 43.4411 44.8595 46.2857C44.8595 49.1304 47.1505 51.4286 49.9862 51.4286ZM49.9862 30.8571H75.6198C78.4556 30.8571 80.7466 28.5589 80.7466 25.7143C80.7466 22.8696 78.4556 20.5714 75.6198 20.5714H49.9862C47.1505 20.5714 44.8595 22.8696 44.8595 25.7143C44.8595 28.5589 47.1505 30.8571 49.9862 30.8571ZM49.9862 10.2857H85.8733C88.709 10.2857 91 7.9875 91 5.14286C91 2.29821 88.709 0 85.8733 0H49.9862C47.1505 0 44.8595 2.29821 44.8595 5.14286C44.8595 7.9875 47.1505 10.2857 49.9862 10.2857Z" fill="white"/>
</svg>
