<svg width="147" height="147" viewBox="0 0 147 147" fill="none" xmlns="http://www.w3.org/2000/svg">
<path d="M57.3335 2.13346C44.0002 4.93346 32.6669 11.3335 22.0002 22.0001C-7.06647 51.0668 -7.06647 95.6001 22.0002 124.667C51.0669 153.733 95.6002 153.733 124.667 124.667C153.867 95.4668 153.867 51.2001 124.667 22.0001C106.4 3.73346 82.5335 -3.33321 57.3335 2.13346ZM83.3335 13.3335C115.334 18.5335 138.534 50.2668 133.467 82.1335C128.267 115.6 96.6669 138.8 63.8669 133.333C37.6002 128.933 17.7335 108.933 13.3335 82.5335C8.93353 56.8001 23.3335 29.7335 47.3335 18.5335C60.0002 12.5335 69.8669 11.2001 83.3335 13.3335Z" fill="white"/>
<path d="M57.8667 50.8C44.6667 62.6667 40 67.6 40 69.4667C40 71.0667 44.9333 76 46.5333 76C47.3333 76 52.1333 72.4 57.2 67.8667L66.6667 59.7333V80.9333C66.6667 103.467 67.7333 108 73.3333 108C78.9333 108 80 103.467 80 80.9333V59.8667L89.3333 68C94.5333 72.4 99.3333 76 100 76C101.733 76 106.667 71.0667 106.667 69.4667C106.667 67.4667 101.867 62.5333 88.6667 50.6667C80.2667 43.2 75.7333 40 73.2 40C70.8 40 66.2667 43.0667 57.8667 50.8Z" fill="white"/>
</svg>
