<svg width="171" height="164" viewBox="0 0 171 164" fill="none" xmlns="http://www.w3.org/2000/svg">
<path d="M16.5051 1.23534C10.2384 3.76868 2.77176 20.0353 1.7051 33.502C0.905097 42.4353 1.03843 42.5687 5.83843 47.3687L10.6384 52.1687V79.2353V106.302L7.3051 107.102C-0.0282369 108.969 -2.6949 124.035 3.3051 129.902L6.5051 133.235H85.3051H164.105L167.305 129.902C173.305 124.035 170.638 108.969 163.305 107.102L159.972 106.302V79.2353V52.1687L164.638 47.502C168.905 43.2353 169.305 42.1687 169.305 35.3687C169.305 27.7687 165.038 14.1687 160.505 7.23534C155.705 -0.231322 156.372 -0.0979887 85.0384 0.0353446C48.9051 0.0353446 17.9718 0.568678 16.5051 1.23534ZM37.3051 51.2353C41.8384 53.7687 48.2384 53.7687 53.9718 50.9687C58.3718 48.8353 58.9051 48.8353 63.3051 50.9687C65.9718 52.1687 69.8384 53.2353 71.9718 53.2353C74.1051 53.2353 77.9718 52.1687 80.6384 50.9687C85.0384 48.8353 85.5718 48.8353 89.9718 50.9687C95.9718 53.902 101.305 53.902 107.305 50.9687C111.705 48.8353 112.238 48.8353 116.638 50.9687C122.638 53.7687 127.972 53.902 133.838 50.9687C138.238 48.9687 138.905 48.9687 143.972 51.2353L149.305 53.6353V80.1687V106.569H131.972C117.172 106.569 114.638 106.302 114.638 104.435C114.638 101.769 100.772 87.902 98.1051 87.902C95.4384 87.902 95.4384 86.702 98.1051 83.7687C99.3051 82.4353 100.638 78.702 100.905 75.502C101.572 70.1687 101.172 69.102 96.9051 64.4353C92.6384 59.7687 91.5718 59.2353 85.4384 59.2353C79.5718 59.2353 78.1051 59.7687 74.3718 63.6353C70.6384 67.3687 69.9718 68.8353 69.9718 74.4353C69.9718 78.8353 70.7718 81.7687 72.3718 83.502C75.1718 86.702 75.3051 87.902 72.5051 87.902C71.4384 87.902 67.1718 91.102 63.1718 95.102C59.1718 99.102 55.9718 103.369 55.9718 104.435C55.9718 106.302 53.4384 106.569 38.6384 106.569H21.3051V80.1687V53.7687L25.7051 51.502C31.0384 48.8353 33.0384 48.8353 37.3051 51.2353Z" fill="white"/>
<path d="M10.9049 152.569C11.3049 160.302 11.9716 161.769 15.7049 165.635L19.9716 169.902L84.6383 170.302L149.305 170.702L154.238 166.169C158.772 161.902 159.172 160.969 159.705 152.702L160.238 143.902H85.3049H10.3716L10.9049 152.569Z" fill="white"/>
</svg>
