<?xml version="1.0" standalone="no"?>
<!DOCTYPE svg PUBLIC "-//W3C//DTD SVG 20010904//EN"
 "http://www.w3.org/TR/2001/REC-SVG-20010904/DTD/svg10.dtd">
<svg version="1.0" xmlns="http://www.w3.org/2000/svg"
 width="128.000000pt" height="128.000000pt" viewBox="0 0 128.000000 128.000000"
 preserveAspectRatio="xMidYMid meet">

<g transform="translate(0.000000,128.000000) scale(0.100000,-0.100000)"
fill="#000000" stroke="none">
<path d="M55 1208 c-32 -141 -35 -158 -25 -183 6 -16 10 -199 10 -476 l0 -450
25 -24 24 -25 536 0 536 0 24 25 25 24 0 435 c0 306 3 437 11 442 6 3 17 22
25 40 15 35 15 37 -21 192 l-5 22 -580 0 -580 0 -5 -22z m155 -35 c0 -48 -23
-150 -37 -165 -25 -27 -79 -23 -99 7 -14 22 -15 33 -4 92 7 38 15 71 17 76 2
4 31 7 64 7 50 0 59 -3 59 -17z m329 -69 c-4 -96 -16 -114 -76 -114 -51 0 -64
29 -57 123 l7 77 64 0 65 0 -3 -86z m335 9 c7 -94 -6 -123 -57 -123 -60 0 -72
18 -76 114 l-3 86 65 0 64 0 7 -77z m335 0 c12 -66 12 -75 -3 -98 -12 -18 -25
-25 -50 -25 -45 0 -63 23 -75 100 -18 106 -20 101 51 98 l63 -3 14 -72z m-965
-148 c26 -20 69 -19 108 1 29 15 34 15 59 0 35 -21 83 -20 119 0 26 16 29 16
51 0 30 -21 83 -21 119 0 26 16 29 16 51 0 30 -20 83 -21 118 0 25 15 30 15
59 0 40 -20 77 -20 112 0 60 36 60 34 60 -281 l0 -285 -124 0 -123 0 -6 54
c-3 30 -13 65 -22 79 -19 30 -72 57 -110 57 l-27 0 26 31 c14 17 26 34 26 38
0 4 9 19 21 32 15 18 19 32 14 54 -3 16 -9 54 -14 84 -8 59 -23 75 -81 91
-113 32 -210 -15 -210 -101 0 -21 -5 -49 -11 -63 -10 -22 -7 -32 27 -83 21
-32 45 -63 53 -70 13 -10 10 -12 -20 -13 -42 0 -98 -34 -116 -70 -7 -14 -13
-46 -13 -72 l0 -48 -120 0 -120 0 0 274 c0 272 0 274 23 289 28 20 47 20 71 2z
m332 -160 c10 -8 45 -20 77 -26 l57 -12 0 -46 c0 -56 -19 -86 -64 -101 -41
-13 -75 -2 -105 36 -33 43 -27 164 9 164 3 0 15 -7 26 -15z m64 -244 c0 -26
-17 -36 -35 -21 -18 15 -8 40 16 40 12 0 19 -7 19 -19z m-63 -43 c27 -26 33
-39 33 -75 l0 -43 -90 0 -90 0 0 50 c0 96 80 133 147 68z m591 -290 l-3 -133
-540 0 -540 0 -3 133 -3 132 546 0 546 0 -3 -132z"/>
<path d="M475 265 c-30 -29 -31 -45 -4 -79 20 -26 22 -26 150 -26 125 0 131 1
154 25 14 13 25 31 25 40 0 9 -11 27 -25 40 -23 24 -30 25 -150 25 -120 0
-127 -1 -150 -25z"/>
</g>
</svg>
