<svg width="300" height="300" viewBox="0 0 300 300" fill="none" xmlns="http://www.w3.org/2000/svg">
<g clip-path="url(#clip0_2122_1934)">
<path d="M150 300C189.782 300 227.936 284.196 256.066 256.066C284.196 227.936 300 189.782 300 150C300 110.218 284.196 72.0644 256.066 43.934C227.936 15.8035 189.782 0 150 0C110.218 0 72.0644 15.8035 43.934 43.934C15.8035 72.0644 0 110.218 0 150C0 189.782 15.8035 227.936 43.934 256.066C72.0644 284.196 110.218 300 150 300ZM150 75C157.793 75 164.062 81.2695 164.062 89.0625V154.688C164.062 162.48 157.793 168.75 150 168.75C142.207 168.75 135.938 162.48 135.938 154.688V89.0625C135.938 81.2695 142.207 75 150 75ZM131.25 206.25C131.25 201.277 133.225 196.508 136.742 192.992C140.258 189.475 145.027 187.5 150 187.5C154.973 187.5 159.742 189.475 163.258 192.992C166.775 196.508 168.75 201.277 168.75 206.25C168.75 211.223 166.775 215.992 163.258 219.508C159.742 223.025 154.973 225 150 225C145.027 225 140.258 223.025 136.742 219.508C133.225 215.992 131.25 211.223 131.25 206.25Z" fill="#FF0000"/>
</g>
<defs>
<clipPath id="clip0_2122_1934">
<rect width="300" height="300" fill="white"/>
</clipPath>
</defs>
</svg>
