<svg width="170" height="170" viewBox="0 0 170 170" fill="none" xmlns="http://www.w3.org/2000/svg">
<path d="M64.985 2.39619C19.9342 13.2114 -8.40691 59.4216 2.24147 104.485C9.4496 135.128 34.8419 160.527 65.4765 167.737C126.418 181.994 182.117 126.607 167.701 65.6485C156.889 20.0937 110.363 -8.74671 64.985 2.39619ZM91.8517 15.9971C96.111 19.4383 105.285 37.9551 107.087 46.8039L108.234 52.2115H85.135C70.3911 52.2115 62.0362 51.556 62.0362 50.5728C62.0362 46.6401 68.9167 28.6148 72.6846 22.7156C79.0736 12.5559 84.8074 10.5895 91.8517 15.9971ZM56.3025 26.3206C54.009 31.0728 51.3878 38.9383 50.4049 43.5266L48.439 52.2115H34.6781H20.9171L23.702 46.9678C27.6338 39.4299 40.9033 26.8122 49.9134 22.0601C54.3366 19.766 58.4321 17.9635 59.0874 17.7996C59.7427 17.7996 58.4321 21.7324 56.3025 26.3206ZM119.701 22.0601C129.039 26.8122 142.145 39.2661 146.24 46.9678L149.025 52.2115H135.264H121.503L119.537 43.5266C118.555 38.9383 115.933 31.0728 113.64 26.3206C111.51 21.7324 110.036 17.7996 110.527 17.7996C110.855 17.7996 115.114 19.766 119.701 22.0601ZM46.4732 84.9847V104.649H31.2378C13.2175 104.649 13.7089 105.14 13.7089 84.9847C13.7089 64.8292 13.2175 65.3208 31.2378 65.3208H46.4732V84.9847ZM110.363 84.9847V103.829H84.9712H59.5789L59.0874 86.7873C58.9236 77.283 59.0874 68.5981 59.4151 67.4511C60.0704 65.6485 65.6403 65.3208 85.2988 65.6485L110.363 66.1401V84.9847ZM155.087 68.1065C156.561 71.8754 156.561 98.094 155.087 101.699C154.104 104.157 151.646 104.649 138.705 104.649H123.469V84.9847V65.3208H138.705C151.646 65.3208 154.104 65.8124 155.087 68.1065ZM50.4049 126.279C51.3878 131.031 54.009 138.897 56.3025 143.485C58.4321 148.237 59.9065 152.17 59.4151 152.17C59.0874 152.17 54.8281 150.203 50.2411 147.909C40.9033 143.157 27.7976 130.703 23.702 123.002L20.9171 117.758H34.6781H48.439L50.4049 126.279ZM107.087 123.002C105.121 132.67 95.2919 151.842 90.7049 154.792C84.8074 158.725 78.9098 156.43 73.3399 148.073C69.572 142.338 62.0362 123.166 62.0362 119.069C62.0362 118.413 72.3569 117.758 85.135 117.758H108.234L107.087 123.002ZM146.24 123.002C142.145 130.703 129.039 143.157 119.701 147.909C115.114 150.203 110.855 152.17 110.527 152.17C110.036 152.17 111.51 148.237 113.64 143.485C115.933 138.897 118.555 131.031 119.537 126.279L121.503 117.758H135.264H149.025L146.24 123.002Z" fill="white"/>
</svg>
