<svg width="170" height="170" viewBox="0 0 170 170" fill="none" xmlns="http://www.w3.org/2000/svg">
<path d="M16.7453 1.90902C13.7981 3.24734 9.77926 6.05781 7.76983 8.19912C0 16.4967 0 16.3629 0 84.6171C0 142.299 0.267925 147.652 2.54529 152.604C5.62643 159.429 13.1283 166.121 19.6925 167.861C26.6585 169.868 143.474 169.868 150.44 167.861C153.253 167.058 157.942 164.381 160.755 161.838C170.4 153.139 170.266 153.808 169.864 81.539L169.463 17.1659L165.578 11.6788C163.166 8.19912 159.281 4.85333 154.995 2.71201L148.163 -0.633783H85.2002C26.6585 -0.633783 21.7019 -0.366119 16.7453 1.90902ZM98.0606 26.2664C119.896 30.8167 137.178 47.1442 142.67 68.2897C150.306 97.8665 133.293 128.514 104.357 137.347C91.7643 141.228 75.019 140.425 64.436 135.741L57.202 132.395L39.9208 136.009C26.5246 138.819 22.7736 139.221 22.7736 137.748C22.7736 136.812 25.185 129.183 28.1321 120.886L33.6246 105.763L31.3472 97.465C25.8548 77.2564 32.4189 54.9065 47.9586 40.7203C62.4265 27.4709 79.8417 22.5191 98.0606 26.2664Z" fill="white"/>
<path d="M72.3396 38.9804C59.0773 43.7983 48.7622 53.7019 44.0735 66.2821C40.5905 75.5165 40.3225 89.9703 43.5376 98.0003C45.815 103.621 45.815 103.755 41.6622 114.595C39.3848 120.618 37.6433 125.703 37.7773 125.837C38.0452 126.105 43.0018 125.034 49.0301 123.428L59.7471 120.618L65.7754 123.562C85.2 132.93 106.232 129.049 120.7 113.525C129.542 104.023 133.025 94.1191 132.355 80.3344C131.417 62.6686 123.647 50.3561 108.242 42.1924C101.008 38.3112 98.1944 37.6421 89.0849 37.2406C81.583 36.9729 76.4924 37.5082 72.3396 38.9804ZM76.2245 63.3378C80.9132 70.6985 81.3151 73.6429 78.2339 77.1225C76.2245 79.3976 76.2245 79.933 78.9038 84.0817C80.3773 86.4907 83.8604 90.1042 86.6736 92.1117L91.6302 95.7251L95.2472 92.2455L98.8642 88.7659L105.696 92.3793C113.332 96.5281 114.27 98.1341 112.394 103.487C110.921 107.904 104.892 111.785 99.534 111.785C92.8359 111.785 80.1094 104.692 73.0094 96.7958C60.149 82.7434 56.666 69.3602 63.766 61.0627C68.5886 55.3079 71.4019 55.8432 76.2245 63.3378Z" fill="white"/>
</svg>
