<svg width="399" height="329" viewBox="0 0 399 329" fill="none" xmlns="http://www.w3.org/2000/svg">
<g clip-path="url(#clip0_2157_4811)">
<path d="M398.9 303.49H365.78V303.74H398.9V303.49Z" fill="#EBEBEB"/>
<path d="M280.22 306.21H271.53V306.46H280.22V306.21Z" fill="#EBEBEB"/>
<path d="M364.78 294.21H345.59V294.46H364.78V294.21Z" fill="#EBEBEB"/>
<path d="M44.65 295.891H1.45996V296.141H44.65V295.891Z" fill="#EBEBEB"/>
<path d="M59.8896 295.891H53.5596V296.141H59.8896V295.891Z" fill="#EBEBEB"/>
<path d="M174.15 300.11H80.4697V300.36H174.15V300.11Z" fill="#EBEBEB"/>
<path d="M350.61 215.32H287.37V288.01H350.61V215.32Z" fill="#F5F5F5"/>
<path d="M389.45 215.32H350.61V288.01H389.45V215.32Z" fill="#EBEBEB"/>
<path d="M366.15 215.32V242.83L367.15 241.78L368.93 243.06L370.48 241.78L372.48 243.06L374.59 241.78L375.92 243.06L377.46 242.12V215.32H366.15Z" fill="#E0E0E0"/>
<path opacity="0.7" d="M366.15 215.32V242.83L367.15 241.78L368.93 243.06L370.48 241.78L372.48 243.06L374.59 241.78L375.92 243.06L377.46 242.12V215.32H366.15Z" fill="#E0E0E0"/>
<path d="M350.25 95.3906H301.62V151.291H350.25V95.3906Z" fill="#F5F5F5"/>
<path d="M380.12 95.3906H350.25V151.291H380.12V95.3906Z" fill="#E6E6E6"/>
<path d="M340.96 111.101H292.33L301.63 95.3906H350.25L340.96 111.101Z" fill="#E6E6E6"/>
<path d="M359.06 111.101H388.93L380.13 95.3906H350.25L359.06 111.101Z" fill="#F5F5F5"/>
<path d="M323.17 215.431H379.07V151.171H323.17V215.431Z" fill="#F5F5F5"/>
<path d="M288.84 215.431H323.18V151.171H288.84V215.431Z" fill="#E6E6E6"/>
<path d="M372.34 158.4H351.57V170.63H372.34V158.4Z" fill="#E0E0E0"/>
<path d="M346.06 15.0002L300.06 10.1702C298.598 10.0162 297.134 10.4488 295.99 11.3732C294.847 12.2975 294.117 13.638 293.96 15.1002L293.37 20.7402C293.294 21.4638 293.361 22.1953 293.568 22.893C293.774 23.5907 294.116 24.2408 294.574 24.8064C295.032 25.3719 295.596 25.8417 296.236 26.1889C296.875 26.5362 297.577 26.7541 298.3 26.8302L314 28.4402L318.82 34.9502C319.027 35.2316 319.29 35.4668 319.593 35.6407C319.896 35.8146 320.232 35.9234 320.579 35.9601C320.927 35.9968 321.278 35.9606 321.61 35.8539C321.943 35.7471 322.249 35.5722 322.51 35.3402L328.57 29.9802L344.29 31.6302C345.014 31.7064 345.745 31.6394 346.443 31.4329C347.141 31.2263 347.791 30.8844 348.356 30.4266C348.922 29.9688 349.392 29.4041 349.739 28.7647C350.086 28.1253 350.304 27.4238 350.38 26.7002L350.97 21.0502C351.113 19.5984 350.678 18.1489 349.759 17.0162C348.839 15.8835 347.51 15.1591 346.06 15.0002Z" fill="#E0E0E0"/>
<path d="M300 20.6103L298.36 21.5103C298.284 21.5523 298.196 21.5695 298.109 21.5596C298.023 21.5496 297.942 21.513 297.877 21.4548C297.812 21.3965 297.767 21.3196 297.748 21.2346C297.729 21.1495 297.736 21.0607 297.77 20.9803L298.49 19.2603C298.523 19.1811 298.532 19.0936 298.514 19.0096C298.496 18.9255 298.453 18.849 298.39 18.7903L297 17.5103C296.934 17.4512 296.889 17.373 296.871 17.2868C296.852 17.2005 296.861 17.1107 296.897 17.0299C296.932 16.9491 296.992 16.8815 297.068 16.8367C297.144 16.7919 297.232 16.7722 297.32 16.7803L299.19 16.9403C299.274 16.9463 299.359 16.9267 299.432 16.8838C299.505 16.841 299.564 16.777 299.6 16.7003L300.4 15.0103C300.437 14.931 300.497 14.8651 300.573 14.8218C300.649 14.7785 300.736 14.7599 300.823 14.7687C300.91 14.7775 300.992 14.8133 301.058 14.8709C301.124 14.9285 301.17 15.0052 301.19 15.0903L301.61 16.9103C301.631 16.9935 301.677 17.0684 301.741 17.1254C301.805 17.1824 301.885 17.219 301.97 17.2303L303.83 17.4703C303.914 17.4834 303.993 17.522 304.055 17.5809C304.117 17.6398 304.159 17.7162 304.177 17.7999C304.194 17.8835 304.185 17.9706 304.152 18.0492C304.119 18.1279 304.062 18.1946 303.99 18.2403L302.39 19.2403C302.316 19.2844 302.258 19.3507 302.224 19.4296C302.19 19.5086 302.181 19.5963 302.2 19.6803L302.55 21.5203C302.568 21.6067 302.558 21.6967 302.522 21.7774C302.486 21.858 302.426 21.9253 302.349 21.9696C302.273 22.0139 302.185 22.033 302.097 22.0241C302.009 22.0153 301.926 21.9789 301.86 21.9203L300.45 20.6903C300.389 20.637 300.315 20.6014 300.236 20.5873C300.157 20.5732 300.075 20.5811 300 20.6103Z" fill="#FAFAFA"/>
<path d="M310.84 21.7606L309.2 22.6606C309.124 22.7026 309.036 22.7198 308.95 22.7099C308.863 22.6999 308.782 22.6633 308.717 22.6051C308.652 22.5468 308.607 22.4699 308.588 22.3848C308.569 22.2998 308.576 22.211 308.61 22.1306L309.34 20.4006C309.373 20.3214 309.382 20.2339 309.364 20.1498C309.346 20.0658 309.303 19.9893 309.24 19.9306L307.87 18.6506C307.808 18.5901 307.765 18.5118 307.749 18.4265C307.733 18.3411 307.744 18.2528 307.78 18.1739C307.817 18.0949 307.876 18.0291 307.952 17.9855C308.027 17.9419 308.113 17.9227 308.2 17.9306L310.06 18.0806C310.146 18.0887 310.233 18.0701 310.308 18.0271C310.383 17.9841 310.443 17.919 310.48 17.8406L311.27 16.1506C311.307 16.0713 311.369 16.0058 311.445 15.9631C311.522 15.9205 311.61 15.9029 311.697 15.9129C311.784 15.9228 311.866 15.9597 311.931 16.0185C311.996 16.0773 312.041 16.1549 312.06 16.2406L312.49 18.0506C312.509 18.1356 312.554 18.2127 312.619 18.2716C312.683 18.3306 312.764 18.3686 312.85 18.3806L314.7 18.6106C314.788 18.6196 314.871 18.6562 314.937 18.7151C315.003 18.7741 315.049 18.8524 315.068 18.9389C315.087 19.0255 315.078 19.1157 315.042 19.1968C315.007 19.2779 314.946 19.3457 314.87 19.3906L313.27 20.3906C313.195 20.4344 313.136 20.5002 313.1 20.5789C313.065 20.6577 313.054 20.7456 313.07 20.8306L313.42 22.6606C313.438 22.747 313.428 22.837 313.392 22.9176C313.356 22.9983 313.296 23.0656 313.22 23.1099C313.143 23.1542 313.055 23.1733 312.967 23.1644C312.879 23.1556 312.796 23.1192 312.73 23.0606L311.32 21.8406C311.259 21.7777 311.18 21.7361 311.093 21.7217C311.007 21.7073 310.918 21.7209 310.84 21.7606Z" fill="#FAFAFA"/>
<path d="M321.73 22.9003L320.09 23.8003C320.013 23.8423 319.926 23.8596 319.839 23.8496C319.753 23.8397 319.671 23.8031 319.606 23.7448C319.542 23.6866 319.497 23.6096 319.477 23.5246C319.458 23.4396 319.466 23.3507 319.5 23.2703L320.22 21.5503C320.253 21.4712 320.261 21.3836 320.244 21.2996C320.226 21.2156 320.182 21.139 320.12 21.0803L318.76 19.8003C318.694 19.7412 318.649 19.663 318.63 19.5768C318.612 19.4906 318.621 19.4007 318.656 19.3199C318.692 19.2391 318.752 19.1716 318.828 19.1268C318.904 19.082 318.992 19.0622 319.08 19.0703L320.95 19.2303C321.034 19.2364 321.119 19.2167 321.192 19.1739C321.265 19.131 321.324 19.067 321.36 18.9903L322.16 17.3003C322.196 17.221 322.257 17.1551 322.333 17.1118C322.409 17.0685 322.496 17.05 322.583 17.0588C322.67 17.0676 322.752 17.1033 322.818 17.1609C322.884 17.2186 322.93 17.2952 322.95 17.3803L323.38 19.2003C323.398 19.2833 323.441 19.3587 323.504 19.4161C323.566 19.4734 323.645 19.5098 323.73 19.5203L325.59 19.7503C325.677 19.761 325.759 19.7989 325.823 19.8585C325.888 19.9182 325.932 19.9966 325.95 20.0828C325.968 20.169 325.958 20.2585 325.922 20.3388C325.886 20.4191 325.826 20.4861 325.75 20.5303L324.15 21.5303C324.078 21.5765 324.022 21.643 323.988 21.7214C323.954 21.7997 323.944 21.8864 323.96 21.9703L324.31 23.8103C324.325 23.896 324.313 23.9843 324.276 24.063C324.239 24.1418 324.179 24.207 324.103 24.2498C324.027 24.2927 323.94 24.3109 323.853 24.302C323.767 24.2932 323.685 24.2576 323.62 24.2003L322.21 23.0003C322.149 22.9379 322.07 22.8951 321.985 22.8773C321.899 22.8595 321.811 22.8675 321.73 22.9003Z" fill="#FAFAFA"/>
<path d="M332.61 24.0501L331 25.0001C330.922 25.0412 330.833 25.0574 330.746 25.0465C330.659 25.0357 330.577 24.9983 330.511 24.9394C330.446 24.8806 330.4 24.803 330.38 24.7173C330.36 24.6316 330.367 24.5418 330.4 24.4601L331.13 22.7401C331.163 22.6609 331.172 22.5734 331.154 22.4894C331.136 22.4053 331.093 22.3288 331.03 22.2701L329.67 20.9901C329.604 20.931 329.559 20.8528 329.541 20.7665C329.522 20.6803 329.531 20.5904 329.567 20.5097C329.602 20.4289 329.662 20.3613 329.738 20.3165C329.814 20.2717 329.902 20.252 329.99 20.2601L331.85 20.4201C331.936 20.4282 332.023 20.4096 332.098 20.3666C332.173 20.3236 332.233 20.2585 332.27 20.1801L333.06 18.4901C333.099 18.412 333.16 18.3476 333.237 18.3055C333.313 18.2633 333.401 18.2454 333.487 18.2541C333.574 18.2628 333.656 18.2976 333.723 18.3541C333.789 18.4105 333.837 18.4858 333.86 18.5701L334.28 20.3901C334.301 20.4745 334.346 20.5509 334.41 20.6096C334.474 20.6683 334.554 20.7068 334.64 20.7201L336.49 20.9501C336.578 20.9591 336.661 20.9957 336.727 21.0546C336.793 21.1136 336.839 21.192 336.858 21.2785C336.876 21.365 336.867 21.4552 336.832 21.5363C336.796 21.6174 336.736 21.6852 336.66 21.7301L335.06 22.7301C334.987 22.7759 334.93 22.842 334.894 22.9201C334.858 22.9983 334.847 23.0852 334.86 23.1701L335.21 25.0101C335.225 25.0947 335.214 25.1821 335.179 25.2604C335.143 25.3387 335.084 25.4041 335.01 25.4478C334.935 25.4914 334.85 25.5112 334.764 25.5045C334.678 25.4977 334.596 25.4648 334.53 25.4101L333.11 24.1901C333.055 24.1126 332.976 24.0563 332.885 24.0308C332.794 24.0053 332.697 24.0121 332.61 24.0501Z" fill="#FAFAFA"/>
<path d="M343.5 25.1903L341.86 26.0902C341.783 26.1323 341.696 26.1495 341.609 26.1396C341.523 26.1296 341.441 26.093 341.376 26.0348C341.312 25.9765 341.266 25.8996 341.247 25.8145C341.228 25.7295 341.236 25.6406 341.27 25.5602L341.99 23.8402C342.024 23.7596 342.033 23.6704 342.015 23.5846C341.997 23.4988 341.953 23.4205 341.89 23.3603L340.53 22.0902C340.463 22.0307 340.417 21.9515 340.399 21.8641C340.38 21.7767 340.39 21.6857 340.427 21.6043C340.464 21.5229 340.526 21.4553 340.603 21.4115C340.681 21.3676 340.771 21.3496 340.86 21.3603L342.72 21.5202C342.804 21.5263 342.889 21.5066 342.962 21.4638C343.035 21.421 343.093 21.357 343.13 21.2802L343.93 19.5803C343.967 19.501 344.028 19.4355 344.105 19.3928C344.182 19.3502 344.27 19.3326 344.357 19.3425C344.444 19.3525 344.526 19.3894 344.591 19.4482C344.656 19.5069 344.701 19.5846 344.72 19.6702L345.15 21.4902C345.168 21.5733 345.211 21.6487 345.274 21.706C345.336 21.7633 345.415 21.7997 345.5 21.8102L347.36 22.0403C347.447 22.0509 347.529 22.0888 347.593 22.1485C347.658 22.2081 347.702 22.2866 347.72 22.3727C347.738 22.4589 347.728 22.5485 347.692 22.6288C347.656 22.7091 347.596 22.776 347.52 22.8203L345.93 23.8203C345.855 23.8641 345.796 23.9298 345.76 24.0086C345.724 24.0874 345.714 24.1752 345.73 24.2603L346.08 26.0902C346.098 26.1767 346.088 26.2667 346.052 26.3473C346.016 26.428 345.956 26.4953 345.879 26.5396C345.803 26.5839 345.714 26.603 345.626 26.5941C345.538 26.5852 345.456 26.5489 345.39 26.4902L344 25.2402C343.934 25.1776 343.849 25.1387 343.758 25.1297C343.668 25.1206 343.577 25.1419 343.5 25.1903Z" fill="#FAFAFA"/>
<path d="M38 194.17H39.78C39.78 172.28 47.5 154.47 56.99 154.47C66.48 154.47 74.21 172.28 74.21 194.17H76C76 170.92 67.48 152 57 152C46.52 152 38 170.92 38 194.17Z" fill="#E0E0E0"/>
<path d="M26.8096 194.17H28.5796C28.5796 172.28 36.3096 154.47 45.7996 154.47C55.2896 154.47 62.9996 172.28 62.9996 194.17H64.7696C64.7696 170.92 56.2496 152 45.7696 152C35.2896 152 26.8096 170.92 26.8096 194.17Z" fill="#E0E0E0"/>
<path d="M12.69 187.86H74.7L81.79 288.01H0.290039L12.69 187.86Z" fill="#E0E0E0"/>
<path d="M23.3205 187.86H90.6505L97.7305 288.01H16.2305L23.3205 187.86Z" fill="#F0F0F0"/>
<path d="M32.1802 250.92H78.2402V224.95H32.1802V250.92Z" fill="#FAFAFA"/>
<path d="M118 210.81H119.46C119.46 192.81 125.81 178.16 133.62 178.16C141.43 178.16 147.78 192.81 147.78 210.81H149.24C149.24 191.69 142.24 176.12 133.62 176.12C125 176.12 118 191.69 118 210.81Z" fill="#E0E0E0"/>
<path d="M108.75 210.81H110.21C110.21 192.81 116.56 178.16 124.37 178.16C132.18 178.16 138.53 192.81 138.53 210.81H140C140 191.69 133 176.12 124.38 176.12C115.76 176.12 108.75 191.69 108.75 210.81Z" fill="#E0E0E0"/>
<path d="M97.1297 205.62H148.15L153.97 288.01H86.9297L97.1297 205.62Z" fill="#E0E0E0"/>
<path d="M105.88 205.62H161.26L167.09 288.01H100.05L105.88 205.62Z" fill="#F5F5F5"/>
<path d="M113.17 257.5H151.06V236.14H113.17V257.5Z" fill="#E0E0E0"/>
<path d="M199 328.71C306.083 328.71 392.89 323.642 392.89 317.39C392.89 311.138 306.083 306.07 199 306.07C91.9179 306.07 5.11035 311.138 5.11035 317.39C5.11035 323.642 91.9179 328.71 199 328.71Z" fill="#F5F5F5"/>
<path d="M267.68 0H246.27V246.83H267.68C272.453 246.83 277.032 244.934 280.407 241.558C283.783 238.182 285.68 233.604 285.68 228.83V18C285.68 13.2261 283.783 8.64773 280.407 5.27208C277.032 1.89642 272.453 0 267.68 0Z" fill="#263238"/>
<path d="M283.11 24.7599C283.092 24.5223 283.124 24.2835 283.202 24.0586C283.281 23.8336 283.405 23.6273 283.567 23.4525C283.729 23.2778 283.925 23.1383 284.143 23.043C284.362 22.9477 284.597 22.8984 284.835 22.8984C285.074 22.8984 285.309 22.9477 285.528 23.043C285.746 23.1383 285.942 23.2778 286.104 23.4525C286.266 23.6273 286.39 23.8336 286.469 24.0586C286.547 24.2835 286.579 24.5223 286.56 24.7599V41.2899C286.527 41.7247 286.331 42.1309 286.011 42.4273C285.692 42.7238 285.272 42.8884 284.835 42.8884C284.399 42.8884 283.979 42.7238 283.66 42.4273C283.34 42.1309 283.144 41.7247 283.11 41.2899V24.7599Z" fill="#37379E"/>
<path opacity="0.3" d="M283.11 24.7599C283.092 24.5223 283.124 24.2835 283.202 24.0586C283.281 23.8336 283.405 23.6273 283.567 23.4525C283.729 23.2778 283.925 23.1383 284.143 23.043C284.362 22.9477 284.597 22.8984 284.835 22.8984C285.074 22.8984 285.309 22.9477 285.528 23.043C285.746 23.1383 285.942 23.2778 286.104 23.4525C286.266 23.6273 286.39 23.8336 286.469 24.0586C286.547 24.2835 286.579 24.5223 286.56 24.7599V41.2899C286.527 41.7247 286.331 42.1309 286.011 42.4273C285.692 42.7238 285.272 42.8884 284.835 42.8884C284.399 42.8884 283.979 42.7238 283.66 42.4273C283.34 42.1309 283.144 41.7247 283.11 41.2899V24.7599Z" fill="white"/>
<path d="M263.3 246.83H122.62C117.846 246.83 113.268 244.934 109.892 241.558C106.517 238.182 104.62 233.604 104.62 228.83V18C104.62 13.2261 106.517 8.64773 109.892 5.27208C113.268 1.89642 117.846 0 122.62 0H263.3C268.074 0 272.652 1.89642 276.028 5.27208C279.404 8.64773 281.3 13.2261 281.3 18V228.85C281.295 233.62 279.396 238.194 276.021 241.565C272.646 244.936 268.071 246.83 263.3 246.83Z" fill="#37379E"/>
<path opacity="0.6" d="M110.15 229.17L274.69 229.17V17.6699L110.15 17.6699L110.15 229.17Z" fill="white"/>
<path opacity="0.2" d="M189.22 9.75959C189.218 10.3953 189.405 11.0173 189.757 11.5467C190.109 12.0761 190.61 12.4891 191.197 12.7333C191.784 12.9775 192.43 13.0419 193.054 12.9184C193.677 12.7948 194.25 12.4889 194.7 12.0394C195.149 11.5899 195.455 11.017 195.579 10.3934C195.702 9.76975 195.638 9.1235 195.393 8.53655C195.149 7.94959 194.736 7.44836 194.207 7.09641C193.677 6.74445 193.055 6.55761 192.42 6.55959C191.572 6.56222 190.759 6.90022 190.16 7.49976C189.56 8.09931 189.222 8.91171 189.22 9.75959Z" fill="black"/>
<path d="M218.14 54.76C217.942 56.2445 218.068 57.7543 218.508 59.1857C218.949 60.6171 219.694 61.9363 220.692 63.0525C221.691 64.1688 222.919 65.0558 224.292 65.6526C225.666 66.2494 227.153 66.5419 228.65 66.51C231.869 66.4466 234.957 65.2229 237.345 63.064C239.734 60.9051 241.263 57.9563 241.65 54.76L242.87 43H219.38L218.14 54.76Z" fill="#37379E"/>
<path d="M171.16 54.76C170.96 56.2448 171.085 57.7553 171.524 59.1875C171.964 60.6196 172.709 61.9395 173.708 63.0561C174.707 64.1728 175.936 65.0598 177.31 65.656C178.685 66.2523 180.172 66.5436 181.67 66.51C184.888 66.4445 187.975 65.2201 190.363 63.0616C192.751 60.9031 194.281 57.9554 194.67 54.76L195.88 43H172.39L171.16 54.76Z" fill="#37379E"/>
<path d="M124.17 54.76C123.972 56.2445 124.098 57.7543 124.538 59.1857C124.979 60.6171 125.724 61.9363 126.722 63.0525C127.721 64.1688 128.949 65.0558 130.323 65.6526C131.696 66.2494 133.183 66.5419 134.68 66.51C137.899 66.4466 140.987 65.2229 143.376 63.064C145.764 60.9051 147.293 57.9563 147.68 54.76L148.9 43H125.41L124.17 54.76Z" fill="#37379E"/>
<path d="M241.63 54.76C241.433 56.2451 241.56 57.7551 242.002 59.1864C242.444 60.6178 243.19 61.9368 244.189 63.0528C245.188 64.1689 246.417 65.0557 247.791 65.6524C249.165 66.2491 250.652 66.5417 252.15 66.51C255.368 66.4425 258.453 65.2173 260.841 63.0592C263.229 60.9011 264.758 57.9546 265.15 54.76L266.36 43H242.87L241.63 54.76Z" fill="#37379E"/>
<path d="M194.65 54.76C194.452 56.2445 194.577 57.7543 195.018 59.1857C195.458 60.6171 196.203 61.9363 197.202 63.0525C198.2 64.1688 199.429 65.0558 200.802 65.6526C202.176 66.2494 203.662 66.5419 205.16 66.51C208.379 66.4466 211.467 65.2229 213.855 63.064C216.244 60.9051 217.772 57.9563 218.16 54.76L219.38 43H195.88L194.65 54.76Z" fill="#37379E"/>
<path d="M147.66 54.76C147.462 56.2445 147.588 57.7543 148.029 59.1857C148.469 60.6171 149.214 61.9363 150.213 63.0525C151.211 64.1688 152.439 65.0558 153.813 65.6526C155.187 66.2494 156.673 66.5419 158.17 66.51C161.388 66.4425 164.474 65.2173 166.862 63.0592C169.249 60.9011 170.779 57.9546 171.17 54.76L172.39 43H148.9L147.66 54.76Z" fill="#37379E"/>
<path d="M100.68 54.76C100.482 56.2445 100.608 57.7543 101.048 59.1857C101.489 60.6171 102.234 61.9363 103.232 63.0525C104.231 64.1688 105.459 65.0558 106.833 65.6526C108.206 66.2494 109.693 66.5419 111.19 66.51C114.409 66.4466 117.497 65.2229 119.885 63.064C122.274 60.9051 123.803 57.9563 124.19 54.76L125.41 43H101.91L100.68 54.76Z" fill="#37379E"/>
<g opacity="0.9">
<path d="M241.63 54.76C241.433 56.2451 241.56 57.7551 242.002 59.1864C242.444 60.6178 243.19 61.9368 244.189 63.0528C245.188 64.1689 246.417 65.0557 247.791 65.6524C249.165 66.2491 250.652 66.5417 252.15 66.51C255.368 66.4425 258.453 65.2173 260.841 63.0592C263.229 60.9011 264.758 57.9546 265.15 54.76L266.36 43H242.87L241.63 54.76Z" fill="white"/>
<path d="M194.65 54.76C194.452 56.2445 194.577 57.7543 195.018 59.1857C195.458 60.6171 196.203 61.9363 197.202 63.0525C198.2 64.1688 199.429 65.0558 200.802 65.6526C202.176 66.2494 203.662 66.5419 205.16 66.51C208.379 66.4466 211.467 65.2229 213.855 63.064C216.244 60.9051 217.772 57.9563 218.16 54.76L219.38 43H195.88L194.65 54.76Z" fill="white"/>
<path d="M147.66 54.76C147.462 56.2445 147.588 57.7543 148.029 59.1857C148.469 60.6171 149.214 61.9363 150.213 63.0525C151.211 64.1688 152.439 65.0558 153.813 65.6526C155.187 66.2494 156.673 66.5419 158.17 66.51C161.388 66.4425 164.474 65.2173 166.862 63.0592C169.249 60.9011 170.779 57.9546 171.17 54.76L172.39 43H148.9L147.66 54.76Z" fill="white"/>
<path d="M100.68 54.76C100.482 56.2445 100.608 57.7543 101.048 59.1857C101.489 60.6171 102.234 61.9363 103.232 63.0525C104.231 64.1688 105.459 65.0558 106.833 65.6526C108.206 66.2494 109.693 66.5419 111.19 66.51C114.409 66.4466 117.497 65.2229 119.885 63.064C122.274 60.9051 123.803 57.9563 124.19 54.76L125.41 43H101.91L100.68 54.76Z" fill="white"/>
</g>
<path d="M101.91 43.0101H266.45L274.26 17.6602H109.72L101.91 43.0101Z" fill="#37379E"/>
<path opacity="0.2" d="M101.91 43.0101H266.45L274.26 17.6602H109.72L101.91 43.0101Z" fill="black"/>
<g opacity="0.2">
<path d="M218.94 239H165.94C165.609 239 165.291 238.868 165.057 238.634C164.822 238.399 164.69 238.082 164.69 237.75C164.69 237.418 164.822 237.101 165.057 236.866C165.291 236.632 165.609 236.5 165.94 236.5H218.94C219.272 236.5 219.59 236.632 219.824 236.866C220.059 237.101 220.19 237.418 220.19 237.75C220.19 238.082 220.059 238.399 219.824 238.634C219.59 238.868 219.272 239 218.94 239Z" fill="black"/>
</g>
<path opacity="0.2" d="M183.91 69.9805H130.79C127.73 69.9805 125.25 72.4608 125.25 75.5205V128.64C125.25 131.7 127.73 134.18 130.79 134.18H183.91C186.97 134.18 189.45 131.7 189.45 128.64V75.5205C189.45 72.4608 186.97 69.9805 183.91 69.9805Z" fill="black"/>
<path d="M181.34 67.4102H128.22C125.16 67.4102 122.68 69.8905 122.68 72.9501V126.07C122.68 129.13 125.16 131.61 128.22 131.61H181.34C184.399 131.61 186.88 129.13 186.88 126.07V72.9501C186.88 69.8905 184.399 67.4102 181.34 67.4102Z" fill="#37379E"/>
<path d="M132.84 82.4704L129.95 84.4704C129.815 84.563 129.654 84.6114 129.489 84.6093C129.325 84.6071 129.165 84.5543 129.032 84.4581C128.899 84.362 128.798 84.2271 128.744 84.0719C128.69 83.9166 128.685 83.7485 128.73 83.5904L129.73 80.2204C129.78 80.0642 129.779 79.8967 129.729 79.7408C129.679 79.5849 129.581 79.4485 129.45 79.3504L126.64 77.2204C126.511 77.119 126.415 76.9801 126.368 76.8226C126.32 76.6651 126.322 76.4967 126.373 76.3403C126.424 76.1839 126.523 76.0472 126.655 75.9488C126.787 75.8504 126.946 75.795 127.11 75.7904L130.63 75.7204C130.793 75.7177 130.951 75.6656 131.083 75.5709C131.215 75.4762 131.315 75.3435 131.37 75.1904L132.53 71.8504C132.583 71.6927 132.683 71.5555 132.818 71.4582C132.952 71.3609 133.114 71.3086 133.28 71.3086C133.446 71.3086 133.608 71.3609 133.743 71.4582C133.878 71.5555 133.978 71.6927 134.03 71.8504L135.19 75.1904C135.245 75.3419 135.343 75.4735 135.474 75.5681C135.604 75.6627 135.759 75.7157 135.92 75.7204L139.45 75.7904C139.614 75.797 139.772 75.8537 139.902 75.9529C140.033 76.052 140.13 76.1888 140.18 76.3448C140.23 76.5007 140.231 76.6684 140.183 76.825C140.135 76.9816 140.04 77.1196 139.91 77.2204L137.1 79.3504C136.973 79.4513 136.878 79.5878 136.828 79.7428C136.778 79.8977 136.775 80.064 136.82 80.2204L137.82 83.5904C137.869 83.748 137.868 83.917 137.816 84.0737C137.764 84.2304 137.664 84.3669 137.531 84.4639C137.397 84.561 137.237 84.6139 137.072 84.615C136.906 84.6162 136.745 84.5656 136.61 84.4704L133.71 82.4704C133.581 82.3865 133.43 82.3418 133.275 82.3418C133.121 82.3418 132.97 82.3865 132.84 82.4704Z" fill="white"/>
<path d="M157.49 93.8502L173.22 94.1502C173.551 94.1531 173.872 94.27 174.127 94.4813C174.382 94.6926 174.556 94.9854 174.62 95.3102L177.62 110.08C177.688 110.392 177.693 110.713 177.635 111.026C177.577 111.34 177.458 111.638 177.284 111.905C177.11 112.172 176.885 112.402 176.622 112.581C176.359 112.761 176.062 112.886 175.75 112.95C175.583 112.987 175.412 113.004 175.24 113C168.73 112.77 162.94 112.3 154.82 112.16C145.24 111.98 147.65 113.16 136.39 113.16C129.6 113.16 128.51 105.39 131.39 105.07C144.59 103.65 148.39 99.7402 153.54 95.1302C154.653 94.229 156.061 93.7729 157.49 93.8502Z" fill="#263238"/>
<path d="M154.89 108.12C157.55 108.12 159.19 106.12 160.52 104.57C161.23 103.71 162.04 102.75 162.52 102.75H176.08L175.58 100.29H162.57C160.9 100.29 159.75 101.66 158.64 102.99C157.53 104.32 156.4 105.66 154.89 105.66V108.12Z" fill="white"/>
<path d="M160.1 140.98H125.68C124.023 140.98 122.68 142.324 122.68 143.98V145.69C122.68 147.347 124.023 148.69 125.68 148.69H160.1C161.757 148.69 163.1 147.347 163.1 145.69V143.98C163.1 142.324 161.757 140.98 160.1 140.98Z" fill="#263238"/>
<path opacity="0.4" d="M160.1 140.98H125.68C124.023 140.98 122.68 142.324 122.68 143.98V145.69C122.68 147.347 124.023 148.69 125.68 148.69H160.1C161.757 148.69 163.1 147.347 163.1 145.69V143.98C163.1 142.324 161.757 140.98 160.1 140.98Z" fill="white"/>
<path d="M185.05 140.98H177.1C175.443 140.98 174.1 142.324 174.1 143.98V145.69C174.1 147.347 175.443 148.69 177.1 148.69H185.05C186.706 148.69 188.05 147.347 188.05 145.69V143.98C188.05 142.324 186.706 140.98 185.05 140.98Z" fill="#37379E"/>
<path opacity="0.2" d="M255.96 78.5898H215.68C212.62 78.5898 210.14 81.0702 210.14 84.1299V124.41C210.14 127.47 212.62 129.95 215.68 129.95H255.96C259.019 129.95 261.5 127.47 261.5 124.41V84.1299C261.5 81.0702 259.019 78.5898 255.96 78.5898Z" fill="black"/>
<path d="M253.91 76.54H213.63C210.57 76.54 208.09 79.0204 208.09 82.08V122.36C208.09 125.42 210.57 127.9 213.63 127.9H253.91C256.97 127.9 259.45 125.42 259.45 122.36V82.08C259.45 79.0204 256.97 76.54 253.91 76.54Z" fill="#37379E"/>
<path opacity="0.8" d="M253.91 76.54H213.63C210.57 76.54 208.09 79.0204 208.09 82.08V122.36C208.09 125.42 210.57 127.9 213.63 127.9H253.91C256.97 127.9 259.45 125.42 259.45 122.36V82.08C259.45 79.0204 256.97 76.54 253.91 76.54Z" fill="white"/>
<path d="M216.69 90.31L214.32 92C214.21 92.0793 214.077 92.122 213.941 92.1219C213.805 92.1218 213.672 92.0789 213.562 91.9994C213.451 91.9198 213.368 91.8076 213.325 91.6785C213.282 91.5495 213.28 91.41 213.32 91.28L214.16 88.51C214.198 88.3822 214.197 88.2461 214.155 88.1193C214.114 87.9926 214.036 87.8813 213.93 87.8L211.62 86C211.512 85.9186 211.432 85.8054 211.391 85.6761C211.35 85.5469 211.35 85.4081 211.392 85.2791C211.434 85.1502 211.515 85.0375 211.624 84.957C211.733 84.8764 211.865 84.832 212 84.83L214.89 84.77C215.025 84.7675 215.155 84.724 215.264 84.6454C215.373 84.5667 215.456 84.4567 215.5 84.33L216.45 81.59C216.494 81.4617 216.577 81.3504 216.687 81.2716C216.798 81.1928 216.93 81.1504 217.065 81.1504C217.201 81.1504 217.333 81.1928 217.443 81.2716C217.554 81.3504 217.637 81.4617 217.68 81.59L218.63 84.33C218.675 84.4567 218.758 84.5667 218.867 84.6454C218.976 84.724 219.106 84.7675 219.24 84.77L222.13 84.83C222.266 84.832 222.398 84.8764 222.507 84.957C222.616 85.0375 222.697 85.1502 222.739 85.2791C222.781 85.4081 222.781 85.5469 222.74 85.6761C222.699 85.8054 222.619 85.9186 222.51 86L220.2 87.75C220.095 87.8313 220.017 87.9426 219.975 88.0693C219.934 88.1961 219.933 88.3322 219.97 88.46L220.81 91.23C220.851 91.36 220.849 91.4994 220.806 91.6285C220.762 91.7576 220.68 91.8698 220.569 91.9494C220.459 92.0289 220.326 92.0718 220.19 92.0719C220.054 92.072 219.921 92.0293 219.81 91.95L217.44 90.3C217.33 90.2239 217.198 90.1841 217.064 90.1859C216.93 90.1877 216.799 90.231 216.69 90.31Z" fill="#37379E"/>
<path d="M237.43 135.39H211.09C209.433 135.39 208.09 136.733 208.09 138.39V138.56C208.09 140.217 209.433 141.56 211.09 141.56H237.43C239.087 141.56 240.43 140.217 240.43 138.56V138.39C240.43 136.733 239.087 135.39 237.43 135.39Z" fill="#263238"/>
<path opacity="0.4" d="M237.43 135.39H211.09C209.433 135.39 208.09 136.733 208.09 138.39V138.56C208.09 140.217 209.433 141.56 211.09 141.56H237.43C239.087 141.56 240.43 140.217 240.43 138.56V138.39C240.43 136.733 239.087 135.39 237.43 135.39Z" fill="white"/>
<path d="M257.38 135.39H252.22C250.563 135.39 249.22 136.733 249.22 138.39V138.56C249.22 140.217 250.563 141.56 252.22 141.56H257.38C259.037 141.56 260.38 140.217 260.38 138.56V138.39C260.38 136.733 259.037 135.39 257.38 135.39Z" fill="#37379E"/>
<path d="M232.54 99.0796C230.19 104.14 225.33 105.95 214.71 107.08C212.39 107.34 213.27 113.56 218.71 113.59C227.78 113.64 225.84 112.68 233.55 112.82C240.08 112.93 244.74 113.31 249.99 113.5C250.127 113.51 250.264 113.51 250.4 113.5C250.9 113.382 251.336 113.077 251.617 112.647C251.898 112.217 252.003 111.695 251.91 111.19C251.91 111.19 249.8 102.31 249.5 99.2996C249.31 97.4296 249.5 91.8096 249.5 91.8096H232.74C232.74 91.8096 233.31 97.4296 232.54 99.0796Z" fill="#37379E"/>
<g opacity="0.4">
<path d="M232.54 99.0796C230.19 104.14 225.33 105.95 214.71 107.08C212.39 107.34 213.27 113.56 218.71 113.59C227.78 113.64 225.84 112.68 233.55 112.82C240.08 112.93 244.74 113.31 249.99 113.5C250.127 113.51 250.264 113.51 250.4 113.5C250.9 113.382 251.336 113.077 251.617 112.647C251.898 112.217 252.003 111.695 251.91 111.19C251.91 111.19 249.8 102.31 249.5 99.2996C249.31 97.4296 249.5 91.8096 249.5 91.8096H232.74C232.74 91.8096 233.31 97.4296 232.54 99.0796Z" fill="black"/>
</g>
<path d="M251.93 111.16C251.93 111.16 251.66 110.01 251.3 108.42C249.1 108.59 241.47 109.1 229.74 109.1C220.07 109.1 216.6 107.81 215.38 107.01L214.71 107.09C213.17 107.26 213.05 110.09 214.71 111.93V113.66L215.81 114.77L216.81 113.77L217.81 114.77L218.81 113.77L219.81 114.77L220.81 113.77L221.81 114.77L222.81 113.77L223.81 114.77L224.81 113.77L225.81 114.77L226.81 113.77L227.81 114.77L228.92 113.66V112.89C229.92 112.83 231.27 112.79 233.18 112.83C235.09 112.87 237.04 112.93 238.78 113V113.66L239.88 114.77L240.88 113.77L241.88 114.77L242.88 113.77L243.88 114.77L244.88 113.77L245.88 114.77L246.88 113.77L247.88 114.77L248.88 113.77L249.88 114.77L250.99 113.66V112.55C251.238 112.4 251.451 112.198 251.613 111.958C251.775 111.718 251.884 111.446 251.93 111.16Z" fill="#263238"/>
<path opacity="0.5" d="M251.93 111.16C251.93 111.16 251.66 110.01 251.3 108.42C249.1 108.59 241.47 109.1 229.74 109.1C220.07 109.1 216.6 107.81 215.38 107.01L214.71 107.09C213.17 107.26 213.05 110.09 214.71 111.93V113.66L215.81 114.77L216.81 113.77L217.81 114.77L218.81 113.77L219.81 114.77L220.81 113.77L221.81 114.77L222.81 113.77L223.81 114.77L224.81 113.77L225.81 114.77L226.81 113.77L227.81 114.77L228.92 113.66V112.89C229.92 112.83 231.27 112.79 233.18 112.83C235.09 112.87 237.04 112.93 238.78 113V113.66L239.88 114.77L240.88 113.77L241.88 114.77L242.88 113.77L243.88 114.77L244.88 113.77L245.88 114.77L246.88 113.77L247.88 114.77L248.88 113.77L249.88 114.77L250.99 113.66V112.55C251.238 112.4 251.451 112.198 251.613 111.958C251.775 111.718 251.884 111.446 251.93 111.16Z" fill="white"/>
<path opacity="0.2" d="M255.96 157.38H215.68C212.62 157.38 210.14 159.86 210.14 162.92V203.2C210.14 206.26 212.62 208.74 215.68 208.74H255.96C259.019 208.74 261.5 206.26 261.5 203.2V162.92C261.5 159.86 259.019 157.38 255.96 157.38Z" fill="black"/>
<path d="M253.91 155.32H213.63C210.57 155.32 208.09 157.801 208.09 160.86V201.14C208.09 204.2 210.57 206.68 213.63 206.68H253.91C256.97 206.68 259.45 204.2 259.45 201.14V160.86C259.45 157.801 256.97 155.32 253.91 155.32Z" fill="#37379E"/>
<path opacity="0.8" d="M253.91 155.32H213.63C210.57 155.32 208.09 157.801 208.09 160.86V201.14C208.09 204.2 210.57 206.68 213.63 206.68H253.91C256.97 206.68 259.45 204.2 259.45 201.14V160.86C259.45 157.801 256.97 155.32 253.91 155.32Z" fill="white"/>
<path d="M216.69 168.16L214.32 169.81C214.21 169.89 214.077 169.932 213.941 169.932C213.805 169.932 213.672 169.889 213.562 169.81C213.451 169.73 213.368 169.618 213.325 169.489C213.282 169.36 213.28 169.22 213.32 169.09L214.16 166.32C214.198 166.193 214.196 166.056 214.155 165.93C214.114 165.803 214.036 165.692 213.93 165.61L211.62 163.86C211.514 163.777 211.435 163.663 211.395 163.534C211.356 163.405 211.357 163.266 211.398 163.137C211.439 163.009 211.519 162.896 211.627 162.814C211.735 162.732 211.865 162.686 212 162.68L214.89 162.63C215.025 162.628 215.155 162.584 215.264 162.506C215.373 162.427 215.456 162.317 215.5 162.19L216.45 159.45C216.494 159.322 216.577 159.211 216.687 159.132C216.798 159.053 216.93 159.011 217.065 159.011C217.201 159.011 217.333 159.053 217.443 159.132C217.554 159.211 217.637 159.322 217.68 159.45L218.63 162.19C218.675 162.317 218.758 162.427 218.867 162.506C218.976 162.584 219.106 162.628 219.24 162.63L222.13 162.68C222.266 162.686 222.396 162.732 222.504 162.814C222.611 162.896 222.691 163.009 222.733 163.137C222.774 163.266 222.775 163.405 222.735 163.534C222.696 163.663 222.617 163.777 222.51 163.86L220.2 165.61C220.095 165.692 220.016 165.803 219.975 165.93C219.934 166.056 219.933 166.193 219.97 166.32L220.81 169.09C220.851 169.22 220.849 169.36 220.806 169.489C220.762 169.618 220.68 169.73 220.569 169.81C220.459 169.889 220.326 169.932 220.19 169.932C220.054 169.932 219.921 169.89 219.81 169.81L217.44 168.16C217.331 168.083 217.2 168.041 217.065 168.041C216.931 168.041 216.8 168.083 216.69 168.16Z" fill="#37379E"/>
<path d="M237.43 214.18H211.09C209.433 214.18 208.09 215.523 208.09 217.18V217.35C208.09 219.007 209.433 220.35 211.09 220.35H237.43C239.087 220.35 240.43 219.007 240.43 217.35V217.18C240.43 215.523 239.087 214.18 237.43 214.18Z" fill="#263238"/>
<path opacity="0.4" d="M237.43 214.18H211.09C209.433 214.18 208.09 215.523 208.09 217.18V217.35C208.09 219.007 209.433 220.35 211.09 220.35H237.43C239.087 220.35 240.43 219.007 240.43 217.35V217.18C240.43 215.523 239.087 214.18 237.43 214.18Z" fill="white"/>
<path d="M257.38 214.18H252.22C250.563 214.18 249.22 215.523 249.22 217.18V217.35C249.22 219.007 250.563 220.35 252.22 220.35H257.38C259.037 220.35 260.38 219.007 260.38 217.35V217.18C260.38 215.523 259.037 214.18 257.38 214.18Z" fill="#37379E"/>
<path d="M236.72 176.8L249.21 177.04C249.473 177.042 249.727 177.134 249.929 177.302C250.131 177.47 250.27 177.702 250.32 177.96L252.7 189.69C252.753 189.937 252.756 190.192 252.709 190.44C252.663 190.688 252.568 190.925 252.429 191.136C252.29 191.347 252.111 191.528 251.902 191.67C251.693 191.811 251.458 191.91 251.21 191.96C251.078 191.98 250.943 191.98 250.81 191.96C245.64 191.78 241.04 191.41 234.6 191.3C226.99 191.16 228.9 192.1 219.96 192.06C214.58 192.06 213.71 185.89 215.96 185.63C226.43 184.51 229.44 181.41 233.54 177.74C234.447 177.044 235.581 176.709 236.72 176.8Z" fill="#263238"/>
<path d="M226.5 175.9L226.32 176.2C226.207 176.389 226.146 176.605 226.146 176.825C226.146 177.045 226.207 177.261 226.32 177.45C227.32 179.06 232.66 179.09 233.72 179.08C233.804 179.083 233.887 179.06 233.957 179.013C234.027 178.966 234.081 178.899 234.11 178.82C234.144 178.743 234.154 178.658 234.138 178.576C234.122 178.494 234.081 178.418 234.02 178.36C232.62 176.95 230.02 174.65 228.02 174.94C227.713 174.98 227.417 175.087 227.155 175.253C226.892 175.418 226.669 175.639 226.5 175.9ZM232.65 178.22C230.31 178.14 227.5 177.77 227.04 177.01C226.99 176.93 226.96 176.82 227.04 176.6C227.135 176.388 227.28 176.202 227.463 176.059C227.646 175.916 227.862 175.82 228.09 175.78C229.14 175.63 230.8 176.53 232.65 178.22Z" fill="#37379E"/>
<path d="M227.15 180.71C227.08 180.809 227.023 180.916 226.98 181.03C226.88 181.295 226.875 181.586 226.966 181.855C227.058 182.123 227.239 182.351 227.48 182.5C227.701 182.678 227.956 182.808 228.23 182.881C228.504 182.953 228.791 182.966 229.07 182.92C231.35 182.61 233.95 179.06 234.07 178.92C234.115 178.858 234.142 178.784 234.149 178.708C234.156 178.632 234.143 178.555 234.11 178.486C234.078 178.416 234.027 178.357 233.964 178.314C233.901 178.27 233.827 178.245 233.75 178.24C232.07 178.14 228.16 179.24 227.15 180.71ZM232.81 179.13C231.86 180.26 230.23 181.9 228.96 182.08C228.793 182.107 228.623 182.099 228.459 182.055C228.295 182.012 228.142 181.935 228.01 181.83C227.68 181.57 227.74 181.41 227.78 181.33C228.1 180.46 230.9 179.37 232.81 179.13Z" fill="#37379E"/>
<path opacity="0.2" d="M175.23 157.38H134.95C131.89 157.38 129.41 159.86 129.41 162.92V203.2C129.41 206.26 131.89 208.74 134.95 208.74H175.23C178.29 208.74 180.77 206.26 180.77 203.2V162.92C180.77 159.86 178.29 157.38 175.23 157.38Z" fill="black"/>
<path d="M173.18 155.32H132.9C129.841 155.32 127.36 157.801 127.36 160.86V201.14C127.36 204.2 129.841 206.68 132.9 206.68H173.18C176.24 206.68 178.72 204.2 178.72 201.14V160.86C178.72 157.801 176.24 155.32 173.18 155.32Z" fill="#37379E"/>
<path opacity="0.8" d="M173.18 155.32H132.9C129.841 155.32 127.36 157.801 127.36 160.86V201.14C127.36 204.2 129.841 206.68 132.9 206.68H173.18C176.24 206.68 178.72 204.2 178.72 201.14V160.86C178.72 157.801 176.24 155.32 173.18 155.32Z" fill="white"/>
<path d="M134.69 168.16L132.32 169.81C132.21 169.89 132.077 169.932 131.941 169.932C131.805 169.932 131.672 169.889 131.562 169.81C131.451 169.73 131.368 169.618 131.325 169.489C131.282 169.36 131.28 169.22 131.32 169.09L132.16 166.32C132.201 166.193 132.201 166.056 132.16 165.928C132.118 165.801 132.038 165.69 131.93 165.61L129.62 163.86C129.514 163.777 129.435 163.663 129.395 163.534C129.356 163.405 129.357 163.266 129.398 163.137C129.439 163.009 129.519 162.896 129.627 162.814C129.735 162.732 129.865 162.686 130 162.68L132.9 162.63C133.033 162.626 133.161 162.581 133.268 162.503C133.375 162.424 133.456 162.315 133.5 162.19L134.45 159.45C134.494 159.322 134.577 159.211 134.687 159.132C134.798 159.053 134.93 159.011 135.065 159.011C135.201 159.011 135.333 159.053 135.443 159.132C135.554 159.211 135.637 159.322 135.68 159.45L136.63 162.19C136.675 162.317 136.758 162.427 136.867 162.506C136.976 162.584 137.106 162.628 137.24 162.63L140.13 162.68C140.266 162.686 140.396 162.732 140.504 162.814C140.611 162.896 140.691 163.009 140.733 163.137C140.774 163.266 140.775 163.405 140.735 163.534C140.696 163.663 140.617 163.777 140.51 163.86L138.21 165.61C138.103 165.69 138.022 165.801 137.981 165.928C137.94 166.056 137.94 166.193 137.98 166.32L138.81 169.09C138.851 169.22 138.849 169.36 138.806 169.489C138.762 169.618 138.68 169.73 138.569 169.81C138.459 169.889 138.326 169.932 138.19 169.932C138.054 169.932 137.921 169.89 137.81 169.81L135.44 168.16C135.331 168.083 135.2 168.041 135.065 168.041C134.931 168.041 134.8 168.083 134.69 168.16Z" fill="#37379E"/>
<path d="M156.7 214.18H130.36C128.703 214.18 127.36 215.523 127.36 217.18V217.35C127.36 219.007 128.703 220.35 130.36 220.35H156.7C158.357 220.35 159.7 219.007 159.7 217.35V217.18C159.7 215.523 158.357 214.18 156.7 214.18Z" fill="#263238"/>
<path opacity="0.4" d="M156.7 214.18H130.36C128.703 214.18 127.36 215.523 127.36 217.18V217.35C127.36 219.007 128.703 220.35 130.36 220.35H156.7C158.357 220.35 159.7 219.007 159.7 217.35V217.18C159.7 215.523 158.357 214.18 156.7 214.18Z" fill="white"/>
<path d="M176.65 214.18H171.49C169.833 214.18 168.49 215.523 168.49 217.18V217.35C168.49 219.007 169.833 220.35 171.49 220.35H176.65C178.307 220.35 179.65 219.007 179.65 217.35V217.18C179.65 215.523 178.307 214.18 176.65 214.18Z" fill="#37379E"/>
<path d="M156.08 176.09L168.99 176.34C169.268 176.348 169.534 176.452 169.744 176.634C169.954 176.817 170.094 177.066 170.14 177.34L172.6 189.46C172.658 189.753 172.65 190.056 172.576 190.346C172.502 190.635 172.364 190.905 172.172 191.134C171.98 191.363 171.74 191.547 171.467 191.671C171.195 191.795 170.899 191.856 170.6 191.85C165.26 191.66 160.5 191.28 153.85 191.16C145.99 191.02 147.96 191.99 138.72 191.95C133.15 191.95 132.25 185.57 134.62 185.31C145.45 184.15 148.56 180.94 152.8 177.15C153.724 176.403 154.893 176.025 156.08 176.09Z" fill="#37379E"/>
<g opacity="0.2">
<path d="M156.08 176.09L168.99 176.34C169.268 176.348 169.534 176.452 169.744 176.634C169.954 176.817 170.094 177.066 170.14 177.34L172.6 189.46C172.658 189.753 172.65 190.056 172.576 190.346C172.502 190.635 172.364 190.905 172.172 191.134C171.98 191.363 171.74 191.547 171.467 191.671C171.195 191.795 170.899 191.856 170.6 191.85C165.26 191.66 160.5 191.28 153.85 191.16C145.99 191.02 147.96 191.99 138.72 191.95C133.15 191.95 132.25 185.57 134.62 185.31C145.45 184.15 148.56 180.94 152.8 177.15C153.724 176.403 154.893 176.025 156.08 176.09Z" fill="black"/>
</g>
<path opacity="0.5" d="M171.06 191.77C171.574 191.659 172.024 191.351 172.312 190.911C172.6 190.471 172.704 189.935 172.6 189.42L171.7 184.98C170.307 186.171 169.133 187.595 168.23 189.19C163.936 189.176 159.646 188.925 155.38 188.44C151.306 188.064 147.198 188.317 143.2 189.19C143.126 188.233 142.856 187.302 142.407 186.454C141.958 185.605 141.34 184.859 140.59 184.26C138.638 184.726 136.657 185.061 134.66 185.26C132.29 185.52 133.19 191.87 138.76 191.9C148 191.9 146.03 190.97 153.89 191.11C160.54 191.23 165.3 191.61 170.64 191.8C170.781 191.805 170.921 191.794 171.06 191.77Z" fill="white"/>
<g opacity="0.5">
<path d="M154.46 179.26L152.62 177.26C152.17 177.67 151.73 178.07 151.28 178.46L153.15 180.46C153.317 180.618 153.538 180.706 153.767 180.707C153.997 180.707 154.218 180.62 154.385 180.463C154.553 180.305 154.654 180.09 154.668 179.861C154.682 179.632 154.607 179.406 154.46 179.23V179.26Z" fill="black"/>
<path d="M146.36 185.61C146.528 185.441 146.622 185.213 146.622 184.975C146.622 184.737 146.528 184.509 146.36 184.34L145 182.79C144.44 183.04 143.85 183.28 143.21 183.5L145.14 185.57C145.301 185.729 145.516 185.821 145.742 185.828C145.968 185.836 146.189 185.758 146.36 185.61Z" fill="black"/>
<path d="M149.52 183.579C149.688 183.725 149.904 183.804 150.126 183.8C150.348 183.797 150.561 183.711 150.724 183.559C150.887 183.408 150.988 183.201 151.007 182.98C151.027 182.758 150.964 182.537 150.83 182.359L148.99 180.359C148.52 180.709 147.99 181.049 147.5 181.359L149.52 183.579Z" fill="black"/>
</g>
<path opacity="0.5" d="M164.52 182.13C164.522 182.767 164.335 183.391 163.982 183.922C163.63 184.452 163.127 184.867 162.539 185.112C161.951 185.357 161.303 185.422 160.678 185.299C160.053 185.176 159.478 184.87 159.027 184.42C158.575 183.97 158.268 183.397 158.143 182.772C158.018 182.147 158.081 181.499 158.324 180.91C158.568 180.321 158.98 179.818 159.51 179.463C160.04 179.109 160.663 178.92 161.3 178.92C162.152 178.92 162.97 179.258 163.573 179.859C164.177 180.461 164.517 181.278 164.52 182.13Z" fill="white"/>
<path d="M309.03 209.2H268.08C267.207 209.2 266.5 209.908 266.5 210.78C266.5 211.653 267.207 212.36 268.08 212.36H309.03C309.903 212.36 310.61 211.653 310.61 210.78C310.61 209.908 309.903 209.2 309.03 209.2Z" fill="#263238"/>
<g opacity="0.5">
<path d="M309.03 209.2H268.08C267.207 209.2 266.5 209.908 266.5 210.78C266.5 211.653 267.207 212.36 268.08 212.36H309.03C309.903 212.36 310.61 211.653 310.61 210.78C310.61 209.908 309.903 209.2 309.03 209.2Z" fill="white"/>
</g>
<path d="M270.08 210.78C270.08 209.908 269.373 209.2 268.5 209.2C267.627 209.2 266.92 209.908 266.92 210.78V231.71C266.92 232.583 267.627 233.29 268.5 233.29C269.373 233.29 270.08 232.583 270.08 231.71V210.78Z" fill="#263238"/>
<g opacity="0.7">
<path d="M270.08 210.78C270.08 209.908 269.373 209.2 268.5 209.2C267.627 209.2 266.92 209.908 266.92 210.78V231.71C266.92 232.583 267.627 233.29 268.5 233.29C269.373 233.29 270.08 232.583 270.08 231.71V210.78Z" fill="white"/>
</g>
<path d="M310.62 210.78C310.62 209.908 309.913 209.2 309.04 209.2C308.167 209.2 307.46 209.908 307.46 210.78V231.71C307.46 232.583 308.167 233.29 309.04 233.29C309.913 233.29 310.62 232.583 310.62 231.71V210.78Z" fill="#263238"/>
<g opacity="0.7">
<path d="M310.62 210.78C310.62 209.908 309.913 209.2 309.04 209.2C308.167 209.2 307.46 209.908 307.46 210.78V231.71C307.46 232.583 308.167 233.29 309.04 233.29C309.913 233.29 310.62 232.583 310.62 231.71V210.78Z" fill="white"/>
</g>
<path d="M307.933 273.048L360.851 277.677C363.899 277.944 366.586 275.689 366.853 272.641L371.483 219.723C371.749 216.675 369.495 213.988 366.447 213.722L313.529 209.092C310.481 208.825 307.794 211.08 307.527 214.128L302.897 267.046C302.631 270.094 304.885 272.781 307.933 273.048Z" fill="#37379E"/>
<path opacity="0.5" d="M307.933 273.048L360.851 277.677C363.899 277.944 366.586 275.689 366.853 272.641L371.483 219.723C371.749 216.675 369.495 213.988 366.447 213.722L313.529 209.092C310.481 208.825 307.794 211.08 307.527 214.128L302.897 267.046C302.631 270.094 304.885 272.781 307.933 273.048Z" fill="black"/>
<path d="M310.719 270.716L363.637 275.345C366.685 275.612 369.372 273.357 369.639 270.309L374.269 217.391C374.535 214.343 372.281 211.656 369.233 211.39L316.315 206.76C313.267 206.493 310.58 208.748 310.313 211.796L305.683 264.714C305.417 267.762 307.671 270.449 310.719 270.716Z" fill="#37379E"/>
<path opacity="0.3" d="M310.719 270.716L363.637 275.345C366.685 275.612 369.372 273.357 369.639 270.309L374.269 217.391C374.535 214.343 372.281 211.656 369.233 211.39L316.315 206.76C313.267 206.493 310.58 208.748 310.313 211.796L305.683 264.714C305.417 267.762 307.671 270.449 310.719 270.716Z" fill="white"/>
<path d="M337.77 235.17L322.07 234.1C321.746 234.077 321.423 234.163 321.153 234.344C320.883 234.526 320.681 234.792 320.58 235.1L316.31 249.55C316.126 250.162 316.193 250.821 316.494 251.383C316.796 251.946 317.309 252.365 317.92 252.55C318.082 252.604 318.25 252.637 318.42 252.65C324.94 252.98 330.74 253.02 338.84 253.59C348.4 254.25 345.89 255.23 357.12 256.16C363.88 256.71 365.65 249.1 362.8 248.53C349.8 245.97 346.35 241.74 341.6 236.69C340.549 235.737 339.188 235.197 337.77 235.17Z" fill="white"/>
<path d="M339.11 249.62C336.47 249.39 335 247.28 333.82 245.62C333.18 244.71 332.46 243.67 331.94 243.62L318.43 242.44L319.14 240.03L332.14 241.17C333.81 241.32 334.83 242.78 335.82 244.17C336.81 245.56 337.82 247.03 339.32 247.17L339.11 249.62Z" fill="#37379E"/>
<path d="M277.75 281.74C277.942 281.706 278.125 281.633 278.289 281.527C278.453 281.421 278.594 281.284 278.705 281.123C278.815 280.962 278.893 280.781 278.933 280.59C278.974 280.399 278.976 280.202 278.94 280.01L270.23 233.01C270.195 232.818 270.122 232.635 270.016 232.471C269.911 232.307 269.773 232.166 269.612 232.056C269.452 231.945 269.271 231.867 269.08 231.827C268.889 231.787 268.692 231.784 268.5 231.82C268.309 231.856 268.127 231.93 267.964 232.036C267.801 232.143 267.661 232.28 267.551 232.441C267.442 232.602 267.365 232.782 267.325 232.973C267.285 233.163 267.284 233.359 267.32 233.55L276.02 280.55C276.093 280.937 276.316 281.279 276.64 281.502C276.964 281.725 277.363 281.811 277.75 281.74Z" fill="#263238"/>
<path d="M295.63 281.74C295.823 281.717 296.01 281.655 296.179 281.56C296.348 281.464 296.497 281.336 296.617 281.183C296.737 281.029 296.825 280.854 296.877 280.667C296.929 280.479 296.944 280.283 296.92 280.09L291.12 233.09C291.097 232.897 291.035 232.711 290.939 232.541C290.844 232.372 290.716 232.223 290.562 232.103C290.409 231.983 290.234 231.895 290.046 231.843C289.859 231.791 289.663 231.776 289.47 231.8C289.277 231.824 289.09 231.885 288.921 231.981C288.752 232.076 288.603 232.204 288.483 232.358C288.363 232.511 288.275 232.686 288.223 232.874C288.171 233.061 288.156 233.257 288.18 233.45L293.98 280.45C294.004 280.643 294.065 280.83 294.161 280.999C294.256 281.169 294.384 281.317 294.538 281.437C294.691 281.557 294.866 281.645 295.054 281.697C295.241 281.749 295.437 281.764 295.63 281.74Z" fill="#263238"/>
<path d="M313.51 281.741C313.705 281.729 313.895 281.679 314.07 281.594C314.246 281.509 314.402 281.39 314.531 281.244C314.661 281.098 314.76 280.928 314.823 280.744C314.886 280.56 314.913 280.365 314.9 280.171L312 233.171C311.975 232.779 311.795 232.413 311.501 232.153C311.207 231.892 310.822 231.759 310.43 231.781C310.039 231.806 309.673 231.986 309.412 232.28C309.152 232.574 309.018 232.959 309.04 233.351L311.94 280.351C311.952 280.545 312.002 280.735 312.087 280.911C312.172 281.086 312.291 281.243 312.437 281.372C312.583 281.501 312.753 281.6 312.937 281.663C313.121 281.727 313.316 281.753 313.51 281.741Z" fill="#263238"/>
<path d="M331.4 231.8H331.39C330.573 231.8 329.91 232.462 329.91 233.28V280.26C329.91 281.077 330.573 281.74 331.39 281.74H331.4C332.218 281.74 332.88 281.077 332.88 280.26V233.28C332.88 232.462 332.218 231.8 331.4 231.8Z" fill="#263238"/>
<g opacity="0.5">
<path d="M277.75 281.74C277.942 281.706 278.125 281.633 278.289 281.527C278.453 281.421 278.594 281.284 278.705 281.123C278.815 280.962 278.893 280.781 278.933 280.59C278.974 280.399 278.976 280.202 278.94 280.01L270.23 233.01C270.195 232.818 270.122 232.635 270.016 232.471C269.911 232.307 269.773 232.166 269.612 232.056C269.452 231.945 269.271 231.867 269.08 231.827C268.889 231.787 268.692 231.784 268.5 231.82C268.309 231.856 268.127 231.93 267.964 232.036C267.801 232.143 267.661 232.28 267.551 232.441C267.442 232.602 267.365 232.782 267.325 232.973C267.285 233.163 267.284 233.359 267.32 233.55L276.02 280.55C276.093 280.937 276.316 281.279 276.64 281.502C276.964 281.725 277.363 281.811 277.75 281.74Z" fill="white"/>
<path d="M295.63 281.74C295.823 281.717 296.01 281.655 296.179 281.56C296.348 281.464 296.497 281.336 296.617 281.183C296.737 281.029 296.825 280.854 296.877 280.667C296.929 280.479 296.944 280.283 296.92 280.09L291.12 233.09C291.097 232.897 291.035 232.711 290.939 232.541C290.844 232.372 290.716 232.223 290.562 232.103C290.409 231.983 290.234 231.895 290.046 231.843C289.859 231.791 289.663 231.776 289.47 231.8C289.277 231.824 289.09 231.885 288.921 231.981C288.752 232.076 288.603 232.204 288.483 232.358C288.363 232.511 288.275 232.686 288.223 232.874C288.171 233.061 288.156 233.257 288.18 233.45L293.98 280.45C294.004 280.643 294.065 280.83 294.161 280.999C294.256 281.169 294.384 281.317 294.538 281.437C294.691 281.557 294.866 281.645 295.054 281.697C295.241 281.749 295.437 281.764 295.63 281.74Z" fill="white"/>
<path d="M313.509 281.741C313.704 281.729 313.894 281.679 314.069 281.594C314.245 281.509 314.401 281.39 314.53 281.244C314.66 281.098 314.759 280.928 314.822 280.744C314.885 280.56 314.912 280.365 314.899 280.171L311.999 233.171C311.974 232.779 311.794 232.413 311.5 232.153C311.206 231.892 310.821 231.759 310.429 231.781C310.038 231.806 309.672 231.986 309.412 232.28C309.151 232.574 309.018 232.959 309.039 233.351L311.939 280.351C311.951 280.545 312.001 280.735 312.086 280.911C312.171 281.086 312.29 281.243 312.436 281.372C312.582 281.501 312.752 281.6 312.936 281.663C313.12 281.727 313.315 281.753 313.509 281.741Z" fill="white"/>
<path d="M331.4 231.801H331.39C330.573 231.801 329.91 232.463 329.91 233.281V280.261C329.91 281.078 330.573 281.741 331.39 281.741H331.4C332.218 281.741 332.88 281.078 332.88 280.261V233.281C332.88 232.463 332.218 231.801 331.4 231.801Z" fill="white"/>
</g>
<path d="M329.91 230.32H269.98C269.163 230.32 268.5 230.983 268.5 231.8V231.81C268.5 232.628 269.163 233.29 269.98 233.29H329.91C330.727 233.29 331.39 232.628 331.39 231.81V231.8C331.39 230.983 330.727 230.32 329.91 230.32Z" fill="#263238"/>
<path d="M329.91 246.96H273.07C272.252 246.96 271.59 247.623 271.59 248.44V248.45C271.59 249.267 272.252 249.93 273.07 249.93H329.91C330.727 249.93 331.39 249.267 331.39 248.45V248.44C331.39 247.623 330.727 246.96 329.91 246.96Z" fill="#263238"/>
<path d="M329.91 263.61H276.15C275.333 263.61 274.67 264.273 274.67 265.09V265.1C274.67 265.918 275.333 266.58 276.15 266.58H329.91C330.727 266.58 331.39 265.918 331.39 265.1V265.09C331.39 264.273 330.727 263.61 329.91 263.61Z" fill="#263238"/>
<path d="M329.91 280.261H279.23C278.413 280.261 277.75 280.923 277.75 281.741V281.751C277.75 282.568 278.413 283.231 279.23 283.231H329.91C330.727 283.231 331.39 282.568 331.39 281.751V281.741C331.39 280.923 330.727 280.261 329.91 280.261Z" fill="#263238"/>
<g opacity="0.7">
<path d="M329.91 230.32H269.98C269.163 230.32 268.5 230.983 268.5 231.8V231.81C268.5 232.628 269.163 233.29 269.98 233.29H329.91C330.727 233.29 331.39 232.628 331.39 231.81V231.8C331.39 230.983 330.727 230.32 329.91 230.32Z" fill="white"/>
<path d="M329.91 246.96H273.07C272.252 246.96 271.59 247.623 271.59 248.44V248.45C271.59 249.267 272.252 249.93 273.07 249.93H329.91C330.727 249.93 331.39 249.267 331.39 248.45V248.44C331.39 247.623 330.727 246.96 329.91 246.96Z" fill="white"/>
<path d="M329.91 263.61H276.15C275.333 263.61 274.67 264.273 274.67 265.09V265.1C274.67 265.918 275.333 266.58 276.15 266.58H329.91C330.727 266.58 331.39 265.918 331.39 265.1V265.09C331.39 264.273 330.727 263.61 329.91 263.61Z" fill="white"/>
<path d="M329.91 280.261H279.23C278.413 280.261 277.75 280.923 277.75 281.741V281.751C277.75 282.568 278.413 283.231 279.23 283.231H329.91C330.727 283.231 331.39 282.568 331.39 281.751V281.741C331.39 280.923 330.727 280.261 329.91 280.261Z" fill="white"/>
</g>
<path d="M380.72 230.32H333.03C332.212 230.32 331.55 230.983 331.55 231.8V231.81C331.55 232.628 332.212 233.29 333.03 233.29H380.72C381.537 233.29 382.2 232.628 382.2 231.81V231.8C382.2 230.983 381.537 230.32 380.72 230.32Z" fill="#263238"/>
<path d="M377.64 246.96H333.03C332.212 246.96 331.55 247.623 331.55 248.44V248.45C331.55 249.267 332.212 249.93 333.03 249.93H377.64C378.457 249.93 379.12 249.267 379.12 248.45V248.44C379.12 247.623 378.457 246.96 377.64 246.96Z" fill="#263238"/>
<path d="M374.56 263.61H333.03C332.212 263.61 331.55 264.273 331.55 265.09V265.1C331.55 265.918 332.212 266.58 333.03 266.58H374.56C375.377 266.58 376.04 265.918 376.04 265.1V265.09C376.04 264.273 375.377 263.61 374.56 263.61Z" fill="#263238"/>
<path d="M371.47 280.261H333.03C332.212 280.261 331.55 280.923 331.55 281.741V281.751C331.55 282.568 332.212 283.231 333.03 283.231H371.47C372.287 283.231 372.95 282.568 372.95 281.751V281.741C372.95 280.923 372.287 280.261 371.47 280.261Z" fill="#263238"/>
<g opacity="0.5">
<path d="M380.72 230.32H333.03C332.212 230.32 331.55 230.983 331.55 231.8V231.81C331.55 232.628 332.212 233.29 333.03 233.29H380.72C381.537 233.29 382.2 232.628 382.2 231.81V231.8C382.2 230.983 381.537 230.32 380.72 230.32Z" fill="white"/>
<path d="M377.64 246.96H333.03C332.212 246.96 331.55 247.623 331.55 248.44V248.45C331.55 249.267 332.212 249.93 333.03 249.93H377.64C378.457 249.93 379.12 249.267 379.12 248.45V248.44C379.12 247.623 378.457 246.96 377.64 246.96Z" fill="white"/>
<path d="M374.56 263.61H333.03C332.212 263.61 331.55 264.273 331.55 265.09V265.1C331.55 265.918 332.212 266.58 333.03 266.58H374.56C375.377 266.58 376.04 265.918 376.04 265.1V265.09C376.04 264.273 375.377 263.61 374.56 263.61Z" fill="white"/>
<path d="M371.47 280.261H333.03C332.212 280.261 331.55 280.923 331.55 281.741V281.751C331.55 282.568 332.212 283.231 333.03 283.231H371.47C372.287 283.231 372.95 282.568 372.95 281.751V281.741C372.95 280.923 372.287 280.261 371.47 280.261Z" fill="white"/>
</g>
<path d="M332.12 300.95H278.17C277.297 300.95 276.59 301.658 276.59 302.53C276.59 303.403 277.297 304.11 278.17 304.11H332.12C332.992 304.11 333.7 303.403 333.7 302.53C333.7 301.658 332.992 300.95 332.12 300.95Z" fill="#263238"/>
<g opacity="0.5">
<path d="M332.12 300.95H278.17C277.297 300.95 276.59 301.658 276.59 302.53C276.59 303.403 277.297 304.11 278.17 304.11H332.12C332.992 304.11 333.7 303.403 333.7 302.53C333.7 301.658 332.992 300.95 332.12 300.95Z" fill="white"/>
</g>
<path d="M376.38 300.95H335.45C334.578 300.95 333.87 301.658 333.87 302.53C333.87 303.403 334.578 304.11 335.45 304.11H376.38C377.253 304.11 377.96 303.403 377.96 302.53C377.96 301.658 377.253 300.95 376.38 300.95Z" fill="#263238"/>
<g opacity="0.7">
<path d="M376.38 300.95H335.45C334.578 300.95 333.87 301.658 333.87 302.53C333.87 303.403 334.578 304.11 335.45 304.11H376.38C377.253 304.11 377.96 303.403 377.96 302.53C377.96 301.658 377.253 300.95 376.38 300.95Z" fill="white"/>
</g>
<path d="M279.33 281.65C279.33 280.778 278.623 280.07 277.75 280.07C276.877 280.07 276.17 280.778 276.17 281.65V302.58C276.17 303.453 276.877 304.16 277.75 304.16C278.623 304.16 279.33 303.453 279.33 302.58V281.65Z" fill="#263238"/>
<g opacity="0.7">
<path d="M279.33 281.65C279.33 280.778 278.623 280.07 277.75 280.07C276.877 280.07 276.17 280.778 276.17 281.65V302.58C276.17 303.453 276.877 304.16 277.75 304.16C278.623 304.16 279.33 303.453 279.33 302.58V281.65Z" fill="white"/>
</g>
<path d="M373 281.74C372.613 281.667 372.271 281.444 372.049 281.12C371.826 280.796 371.74 280.397 371.81 280.01L380.52 233.01C380.593 232.623 380.816 232.281 381.14 232.058C381.464 231.835 381.863 231.75 382.25 231.82C382.442 231.855 382.625 231.927 382.789 232.033C382.953 232.139 383.094 232.276 383.205 232.437C383.316 232.598 383.393 232.779 383.434 232.97C383.474 233.161 383.476 233.358 383.44 233.55L374.73 280.55C374.695 280.742 374.623 280.925 374.517 281.089C374.411 281.253 374.273 281.394 374.113 281.505C373.952 281.615 373.771 281.693 373.58 281.733C373.389 281.774 373.192 281.776 373 281.74Z" fill="#263238"/>
<path d="M359.89 281.74C359.697 281.717 359.51 281.655 359.341 281.56C359.172 281.464 359.023 281.336 358.903 281.183C358.783 281.029 358.695 280.854 358.643 280.667C358.591 280.479 358.576 280.283 358.6 280.09L364.4 233.09C364.45 232.699 364.653 232.344 364.964 232.103C365.275 231.861 365.669 231.752 366.06 231.8C366.253 231.824 366.44 231.885 366.609 231.981C366.778 232.076 366.927 232.205 367.047 232.358C367.167 232.511 367.255 232.686 367.307 232.874C367.359 233.061 367.374 233.257 367.35 233.45L361.55 280.45C361.5 280.841 361.297 281.196 360.986 281.438C360.675 281.68 360.281 281.788 359.89 281.74Z" fill="#263238"/>
<path d="M345.35 281.74C345.155 281.729 344.965 281.679 344.79 281.594C344.615 281.509 344.458 281.39 344.329 281.244C344.2 281.098 344.101 280.928 344.037 280.744C343.974 280.56 343.948 280.365 343.96 280.17L346.86 233.17C346.871 232.976 346.921 232.785 347.006 232.61C347.091 232.435 347.21 232.278 347.356 232.149C347.502 232.02 347.672 231.921 347.856 231.858C348.041 231.794 348.235 231.768 348.43 231.78C348.822 231.806 349.188 231.985 349.448 232.279C349.708 232.573 349.842 232.958 349.82 233.35L346.92 280.35C346.908 280.545 346.859 280.735 346.774 280.91C346.688 281.085 346.569 281.242 346.424 281.371C346.278 281.5 346.108 281.599 345.924 281.663C345.739 281.726 345.544 281.752 345.35 281.74Z" fill="#263238"/>
<path d="M331.56 231.8H331.55C330.733 231.8 330.07 232.462 330.07 233.28V280.26C330.07 281.077 330.733 281.74 331.55 281.74H331.56C332.378 281.74 333.04 281.077 333.04 280.26V233.28C333.04 232.462 332.378 231.8 331.56 231.8Z" fill="#263238"/>
<g opacity="0.7">
<path d="M373 281.74C372.613 281.667 372.271 281.444 372.049 281.12C371.826 280.796 371.74 280.397 371.81 280.01L380.52 233.01C380.593 232.623 380.816 232.281 381.14 232.058C381.464 231.835 381.863 231.75 382.25 231.82C382.442 231.855 382.625 231.927 382.789 232.033C382.953 232.139 383.094 232.276 383.205 232.437C383.316 232.598 383.393 232.779 383.434 232.97C383.474 233.161 383.476 233.358 383.44 233.55L374.73 280.55C374.695 280.742 374.623 280.925 374.517 281.089C374.411 281.253 374.273 281.394 374.113 281.505C373.952 281.615 373.771 281.693 373.58 281.733C373.389 281.774 373.192 281.776 373 281.74Z" fill="white"/>
<path d="M359.89 281.74C359.697 281.717 359.51 281.655 359.341 281.56C359.172 281.464 359.023 281.336 358.903 281.183C358.783 281.029 358.695 280.854 358.643 280.667C358.591 280.479 358.576 280.283 358.6 280.09L364.4 233.09C364.45 232.699 364.653 232.344 364.964 232.103C365.275 231.861 365.669 231.752 366.06 231.8C366.253 231.824 366.44 231.885 366.609 231.981C366.778 232.076 366.927 232.205 367.047 232.358C367.167 232.511 367.255 232.686 367.307 232.874C367.359 233.061 367.374 233.257 367.35 233.45L361.55 280.45C361.5 280.841 361.297 281.196 360.986 281.438C360.675 281.68 360.281 281.788 359.89 281.74Z" fill="white"/>
<path d="M345.35 281.74C345.155 281.729 344.965 281.679 344.79 281.594C344.615 281.509 344.458 281.39 344.329 281.244C344.2 281.098 344.101 280.928 344.037 280.744C343.974 280.56 343.948 280.365 343.96 280.17L346.86 233.17C346.871 232.976 346.921 232.785 347.006 232.61C347.091 232.435 347.21 232.278 347.356 232.149C347.502 232.02 347.672 231.921 347.856 231.858C348.041 231.794 348.235 231.768 348.43 231.78C348.822 231.806 349.188 231.985 349.448 232.279C349.708 232.573 349.842 232.958 349.82 233.35L346.92 280.35C346.908 280.545 346.859 280.735 346.774 280.91C346.688 281.085 346.569 281.242 346.424 281.371C346.278 281.5 346.108 281.599 345.924 281.663C345.739 281.726 345.544 281.752 345.35 281.74Z" fill="white"/>
<path d="M331.56 231.8H331.55C330.733 231.8 330.07 232.462 330.07 233.28V280.26C330.07 281.077 330.733 281.74 331.55 281.74H331.56C332.378 281.74 333.04 281.077 333.04 280.26V233.28C333.04 232.462 332.378 231.8 331.56 231.8Z" fill="white"/>
</g>
<path d="M369.93 312.511C369.93 313.721 370.289 314.904 370.962 315.909C371.635 316.915 372.592 317.698 373.711 318.159C374.83 318.62 376.06 318.739 377.246 318.5C378.433 318.261 379.521 317.675 380.374 316.817C381.227 315.958 381.806 314.866 382.037 313.678C382.268 312.49 382.142 311.26 381.673 310.144C381.204 309.029 380.415 308.077 379.405 307.411C378.395 306.744 377.21 306.393 376 306.401C374.386 306.411 372.842 307.059 371.705 308.204C370.568 309.349 369.93 310.897 369.93 312.511Z" fill="#263238"/>
<path opacity="0.5" d="M373 312.511C372.998 313.122 373.178 313.721 373.516 314.23C373.854 314.74 374.336 315.137 374.901 315.373C375.465 315.608 376.087 315.671 376.687 315.553C377.287 315.434 377.838 315.141 378.271 314.709C378.705 314.277 379 313.727 379.12 313.127C379.24 312.528 379.179 311.906 378.946 311.341C378.712 310.775 378.316 310.292 377.808 309.952C377.299 309.612 376.702 309.431 376.09 309.431C375.685 309.429 375.283 309.508 374.908 309.662C374.533 309.816 374.193 310.043 373.906 310.329C373.619 310.615 373.391 310.955 373.235 311.33C373.08 311.704 373 312.105 373 312.511Z" fill="white"/>
<path d="M327.76 312.51C327.76 313.719 328.118 314.9 328.789 315.905C329.461 316.91 330.415 317.693 331.532 318.155C332.648 318.618 333.877 318.739 335.062 318.503C336.247 318.267 337.336 317.685 338.19 316.831C339.045 315.976 339.627 314.888 339.862 313.702C340.098 312.517 339.977 311.289 339.515 310.172C339.052 309.056 338.269 308.101 337.264 307.43C336.259 306.759 335.078 306.4 333.87 306.4C332.249 306.4 330.695 307.044 329.549 308.19C328.403 309.336 327.76 310.89 327.76 312.51Z" fill="#263238"/>
<path opacity="0.5" d="M330.78 312.511C330.778 313.122 330.958 313.721 331.296 314.23C331.635 314.74 332.116 315.137 332.681 315.373C333.245 315.608 333.867 315.671 334.467 315.553C335.067 315.434 335.619 315.141 336.052 314.709C336.485 314.277 336.78 313.727 336.9 313.127C337.02 312.528 336.96 311.906 336.726 311.341C336.492 310.775 336.096 310.292 335.588 309.952C335.08 309.612 334.482 309.431 333.87 309.431C333.465 309.429 333.063 309.508 332.689 309.662C332.314 309.816 331.973 310.043 331.686 310.329C331.399 310.615 331.171 310.955 331.016 311.33C330.86 311.704 330.78 312.105 330.78 312.511Z" fill="white"/>
<path d="M271.64 312.51C271.64 313.719 271.998 314.9 272.669 315.905C273.341 316.91 274.295 317.693 275.411 318.155C276.528 318.618 277.756 318.739 278.942 318.503C280.127 318.267 281.216 317.685 282.07 316.831C282.925 315.976 283.506 314.888 283.742 313.702C283.978 312.517 283.857 311.289 283.395 310.172C282.932 309.056 282.149 308.101 281.144 307.43C280.139 306.759 278.958 306.4 277.75 306.4C276.13 306.403 274.577 307.048 273.432 308.193C272.287 309.338 271.642 310.891 271.64 312.51Z" fill="#263238"/>
<path opacity="0.5" d="M274.67 312.511C274.67 313.12 274.851 313.715 275.189 314.222C275.527 314.728 276.008 315.123 276.571 315.356C277.134 315.589 277.753 315.65 278.351 315.531C278.948 315.413 279.497 315.119 279.928 314.689C280.359 314.258 280.652 313.709 280.771 313.112C280.89 312.514 280.829 311.895 280.595 311.332C280.362 310.769 279.968 310.288 279.461 309.95C278.955 309.611 278.359 309.431 277.75 309.431C276.933 309.431 276.15 309.755 275.572 310.333C274.994 310.91 274.67 311.694 274.67 312.511Z" fill="white"/>
<path d="M79.2706 51.3293C79.0206 54.1193 80.4506 56.3293 82.4506 56.3293C84.4506 56.3293 86.2706 54.0693 86.5206 51.3293C86.7706 48.5893 85.3406 46.2793 83.3306 46.2793C81.3206 46.2793 79.5106 48.5393 79.2706 51.3293Z" fill="#37379E"/>
<path d="M81.6808 37.5898C81.6808 37.5898 84.1008 38.6598 83.2908 40.7498C83.2908 40.7498 86.7208 45.3498 83.2908 46.2798L79.5908 38.4798L81.6808 37.5898Z" fill="#263238"/>
<path opacity="0.5" d="M78.0507 51.3293C77.8107 54.1193 79.2407 56.3293 81.2407 56.3293C83.2407 56.3293 85.0607 54.0693 85.3007 51.3293C85.5407 48.5893 84.1207 46.2793 82.1207 46.2793C80.1207 46.2793 78.3007 48.5393 78.0507 51.3293Z" fill="black"/>
<path d="M115.221 309.05L121.911 306.88L117.751 291.1L111.061 293.27L115.221 309.05Z" fill="#CE7A63"/>
<path d="M122 306L114.48 308.44C114.353 308.477 114.245 308.563 114.182 308.679C114.118 308.795 114.103 308.932 114.14 309.06L115.7 315.12C115.801 315.433 116.022 315.693 116.314 315.845C116.606 315.997 116.946 316.027 117.26 315.93C119.86 315.04 121.06 314.48 124.37 313.4C126.37 312.74 135.12 310.15 137.93 309.24C140.74 308.33 139.76 305.58 138.48 305.71C132.78 306.31 125.66 306.91 123.29 306.03C122.875 305.877 122.422 305.867 122 306Z" fill="#37379E"/>
<path opacity="0.2" d="M111.061 293.27L117.761 291.1L119.901 299.24L113.201 301.41L111.061 293.27Z" fill="black"/>
<path d="M94.7504 133.529C94.7504 133.529 104.26 190.799 107.07 210.779C110.15 232.649 122.27 296.629 122.27 296.629L109.85 300.059C109.85 300.059 92.1104 238.059 87.0804 216.799C81.6204 193.719 69.6104 133.529 69.6104 133.529H94.7504Z" fill="#263238"/>
<path opacity="0.5" d="M79.5004 156.999C84.3604 169.139 84.9104 189.769 82.9404 198.219C79.9404 184.339 76.5404 167.729 73.9404 154.819C74.8504 151.519 76.5504 149.639 79.5004 156.999Z" fill="black"/>
<path d="M109.531 300.309L122.841 296.639L122.581 291.229L107.601 296.399L109.531 300.309Z" fill="#263238"/>
<path d="M124.761 306.38C124.155 306.563 123.531 306.677 122.901 306.72C122.869 306.724 122.837 306.719 122.808 306.704C122.78 306.69 122.756 306.668 122.741 306.64C122.724 306.613 122.715 306.582 122.715 306.55C122.715 306.518 122.724 306.487 122.741 306.46C122.901 306.24 124.381 304.33 125.301 304.39C125.406 304.396 125.508 304.428 125.597 304.484C125.686 304.54 125.76 304.618 125.811 304.71C125.903 304.841 125.959 304.995 125.971 305.155C125.983 305.316 125.952 305.476 125.881 305.62C125.617 306.006 125.217 306.277 124.761 306.38ZM123.261 306.38C124.531 306.23 125.401 305.9 125.611 305.49C125.654 305.395 125.671 305.289 125.659 305.185C125.646 305.081 125.605 304.982 125.541 304.9C125.521 304.853 125.488 304.812 125.445 304.784C125.402 304.755 125.352 304.74 125.301 304.74C124.801 304.69 123.871 305.61 123.261 306.36V306.38Z" fill="#37379E"/>
<path d="M122.94 306.72H122.86C122.833 306.716 122.807 306.704 122.786 306.687C122.765 306.669 122.749 306.646 122.74 306.62C122.74 306.54 121.93 304.67 122.39 303.8C122.449 303.688 122.533 303.59 122.635 303.516C122.737 303.441 122.855 303.391 122.98 303.37C123.114 303.33 123.258 303.336 123.388 303.387C123.519 303.437 123.628 303.53 123.7 303.65C124.09 304.33 123.55 306.05 123.01 306.65C122.994 306.679 122.97 306.704 122.94 306.72ZM122.94 303.72C122.879 303.739 122.821 303.77 122.771 303.811C122.722 303.852 122.68 303.903 122.65 303.96C122.495 304.724 122.582 305.518 122.9 306.23C123.369 305.524 123.545 304.663 123.39 303.83C123.39 303.74 123.25 303.65 123.02 303.7L122.94 303.72Z" fill="#37379E"/>
<path d="M97.2104 75.6895C99.0704 79.6895 101.11 83.8395 103.21 87.7395C104.26 89.7395 105.37 91.6195 106.52 93.4395C107.574 95.1584 108.768 96.7873 110.09 98.3094C110.535 98.8167 111.035 99.2729 111.58 99.6694C111.65 99.7294 111.69 99.7395 111.66 99.7395C111.63 99.7395 111.74 99.7395 111.79 99.8195C112.102 99.8942 112.42 99.941 112.74 99.9595C114.752 100.007 116.762 99.8463 118.74 99.4794C123.05 98.7594 127.58 97.6794 132 96.6194L134 101.419C129.789 103.858 125.343 105.868 120.73 107.419C118.194 108.302 115.557 108.863 112.88 109.089C112.034 109.148 111.183 109.127 110.34 109.029C109.809 108.958 109.284 108.845 108.77 108.689C108.243 108.535 107.731 108.335 107.24 108.089C105.769 107.325 104.421 106.344 103.24 105.179C101.344 103.319 99.6328 101.28 98.1304 99.0894C96.6704 97.0294 95.3804 94.9394 94.1304 92.8394C92.8804 90.7394 91.7504 88.6095 90.6904 86.4395C89.6304 84.2695 88.5804 82.1594 87.6104 79.8394L97.2104 75.6895Z" fill="#CE7A63"/>
<path d="M108.641 92.8L97.5205 101.1C97.5205 101.1 97.0905 100.63 96.3805 99.82L94.4405 97.5C90.1205 92.24 83.8005 82.63 83.7505 77.92C83.6805 70.92 90.9605 69.92 99.1305 77.05C102.661 80.15 104.5 85.29 106.29 88.47C106.88 89.52 107.381 90.47 107.771 91.15L108.641 92.8Z" fill="#37379E"/>
<path opacity="0.5" d="M108.641 92.8L97.5205 101.1C97.5205 101.1 97.0905 100.63 96.3805 99.82L94.4405 97.5C90.1205 92.24 83.8005 82.63 83.7505 77.92C83.6805 70.92 90.9605 69.92 99.1305 77.05C102.661 80.15 104.5 85.29 106.29 88.47C106.88 89.52 107.381 90.47 107.771 91.15L108.641 92.8Z" fill="black"/>
<path d="M48.0303 312.13H55.0603L57.4003 295.83H50.3603L48.0303 312.13Z" fill="#CE7A63"/>
<path d="M55.5001 311.31H47.6001C47.4633 311.308 47.3305 311.355 47.2258 311.444C47.1212 311.532 47.0517 311.655 47.0301 311.79L46.1001 318.05C46.0833 318.207 46.0998 318.366 46.1483 318.517C46.1969 318.667 46.2766 318.806 46.3822 318.924C46.4877 319.042 46.6169 319.136 46.7612 319.201C46.9056 319.265 47.0619 319.299 47.2201 319.3C49.9801 319.25 51.3101 319.09 54.7901 319.09C56.9201 319.09 66.0001 319.31 68.9501 319.31C71.9001 319.31 72.0701 316.39 70.8401 316.13C65.3401 314.94 58.5201 313.3 56.6701 311.74C56.3429 311.463 55.9286 311.311 55.5001 311.31Z" fill="#37379E"/>
<path opacity="0.2" d="M50.3604 295.84H57.4004L56.1904 304.24H49.1504L50.3604 295.84Z" fill="black"/>
<path d="M82.15 133.17C82.15 133.17 78.15 186.94 75.22 207.08C72.04 229.14 59.39 302.21 59.39 302.21H46.5C46.5 302.21 53.12 230.92 54.26 209.08C55.49 185.38 57.87 133.17 57.87 133.17H82.15Z" fill="#263238"/>
<path d="M45.9809 302.209H59.9109L61.1109 297.319L45.6709 298.079L45.9809 302.209Z" fill="#263238"/>
<path d="M57.8909 312.54C57.2639 312.521 56.6406 312.437 56.0309 312.29C56.0022 312.281 55.9766 312.263 55.9572 312.24C55.9377 312.217 55.9251 312.189 55.9209 312.16C55.9216 312.129 55.9292 312.098 55.943 312.071C55.9568 312.043 55.9766 312.019 56.0009 312C56.2409 311.85 58.3509 310.48 59.1809 310.82C59.2751 310.859 59.3566 310.924 59.4165 311.007C59.4764 311.09 59.5125 311.188 59.5209 311.29C59.5501 311.45 59.5398 311.614 59.4911 311.769C59.4423 311.924 59.3564 312.065 59.2409 312.18C58.8466 312.453 58.3691 312.581 57.8909 312.54ZM56.5109 312.05C57.3343 312.341 58.2389 312.298 59.0309 311.93C59.1064 311.855 59.1616 311.763 59.1914 311.662C59.2211 311.56 59.2244 311.453 59.2009 311.35C59.199 311.3 59.1829 311.252 59.1545 311.211C59.1262 311.17 59.0867 311.139 59.0409 311.12C58.5909 310.94 57.3709 311.53 56.5109 312.05Z" fill="#37379E"/>
<path d="M56.0703 312.29H56.0003C55.975 312.279 55.9536 312.261 55.9392 312.238C55.9248 312.214 55.9182 312.187 55.9203 312.16C55.9203 312.07 55.9203 310.05 56.7103 309.37C56.8057 309.28 56.9198 309.213 57.0443 309.174C57.1689 309.134 57.3007 309.122 57.4303 309.14C57.5657 309.141 57.6961 309.192 57.7972 309.282C57.8983 309.372 57.9634 309.495 57.9803 309.63C58.0703 310.4 56.8903 311.87 56.1603 312.29H56.0703ZM57.2803 309.44C57.1475 309.442 57.0199 309.492 56.9203 309.58C56.4767 310.242 56.2463 311.023 56.2603 311.82C56.9203 311.3 57.7103 310.18 57.6503 309.68C57.6503 309.59 57.5903 309.47 57.3603 309.44H57.2803Z" fill="#37379E"/>
<path opacity="0.3" d="M83.6809 78.7294C86.1909 77.0694 88.0309 81.3695 92.9909 84.9995C95.2009 86.6195 100.061 97.1794 99.6609 99.5094L97.5109 101.099C97.5109 101.099 83.6209 85.7194 83.6809 78.7294Z" fill="black"/>
<path d="M130.83 96.8695L137.13 91.7695L139.81 99.0795C139.81 99.0795 133.14 102.92 131.55 101.08L130.83 96.8695Z" fill="#CE7A63"/>
<path d="M144.281 92.9595L144.831 98.5295L139.811 99.0795L137.131 91.7695L144.281 92.9595Z" fill="#CE7A63"/>
<path d="M94.7508 133.53H57.1208C56.8608 130.17 57.6408 119.24 57.0608 105.32C56.7003 95.0016 55.449 84.7334 53.3208 74.6302C53.1508 73.8702 52.9808 73.1202 52.8008 72.3602C52.8008 72.3602 54.7008 71.9702 57.4408 71.5702C59.7108 71.2402 62.5508 70.9002 65.3408 70.7702C70.6697 70.4646 76.0118 70.4646 81.3408 70.7702C83.8008 70.9902 86.2008 71.4002 88.1208 71.7702C90.5708 72.2602 92.0108 72.6902 92.0108 72.6902C92.0108 72.6902 101.271 94.0002 94.7508 133.53Z" fill="#37379E"/>
<path opacity="0.5" d="M94.7508 133.53H57.1208C56.8608 130.17 57.6408 119.24 57.0608 105.32C56.7003 95.0016 55.449 84.7334 53.3208 74.6302C53.1508 73.8702 52.9808 73.1202 52.8008 72.3602C52.8008 72.3602 54.7008 71.9702 57.4408 71.5702C59.7108 71.2402 62.5508 70.9002 65.3408 70.7702C70.6697 70.4646 76.0118 70.4646 81.3408 70.7702C83.8008 70.9902 86.2008 71.4002 88.1208 71.7702C90.5708 72.2602 92.0108 72.6902 92.0108 72.6902C92.0108 72.6902 101.271 94.0002 94.7508 133.53Z" fill="black"/>
<path opacity="0.3" d="M57.0603 105.32C56.6999 95.0015 55.4485 84.7333 53.3203 74.6301C55.8303 74.4101 60.1303 74.6301 60.8403 78.7201C61.6103 83.0901 60.6503 93.3501 57.0603 105.32Z" fill="black"/>
<path d="M60.0007 81.7497L54.2407 95.9997L51.4807 103.1C50.6207 105.44 49.7507 107.85 49.1907 109.92C48.6746 112.226 48.3138 114.565 48.1107 116.92C47.8707 119.43 47.6007 121.97 47.4107 124.53C46.9807 129.65 46.5507 134.82 46.0607 139.97L40.8607 140.08C40.1807 134.85 39.7307 129.65 39.4807 124.39C39.3707 121.76 39.2707 119.12 39.3007 116.44C39.2508 113.609 39.4415 110.778 39.8707 107.98C40.4159 105.242 41.1171 102.538 41.9707 99.8797C42.7607 97.3197 43.6107 94.8197 44.5007 92.3397C46.2807 87.3397 48.1807 82.5297 50.2807 77.6797L60.0007 81.7497Z" fill="#CE7A63"/>
<path d="M62.1306 85.1696C60.3821 90.0464 58.3452 94.8148 56.0306 99.4496C55.5306 100.5 55.0306 101.45 54.6906 102.18C54.0206 103.5 53.6006 104.29 53.6006 104.29L39.3506 96.3996C39.3506 96.3996 39.5306 95.7996 39.8506 94.7896C40.1006 94.0296 40.4206 93.0396 40.8506 91.8896C43.2206 85.1196 48.0706 73.0496 52.8506 72.3596C59.9006 71.3296 65.0006 76.6396 62.1306 85.1696Z" fill="#37379E"/>
<path opacity="0.5" d="M62.1306 85.1696C60.3821 90.0464 58.3452 94.8148 56.0306 99.4496C55.5306 100.5 55.0306 101.45 54.6906 102.18C54.0206 103.5 53.6006 104.29 53.6006 104.29L39.3506 96.3996C39.3506 96.3996 39.5306 95.7996 39.8506 94.7896C40.1006 94.0296 40.4206 93.0396 40.8506 91.8896C43.2206 85.1196 48.0706 73.0496 52.8506 72.3596C59.9006 71.3296 65.0006 76.6396 62.1306 85.1696Z" fill="black"/>
<path d="M74.8605 75.1098C65.8605 74.9498 64.7305 70.7998 64.7305 70.7998C68.2105 67.3698 66.8705 57.9798 65.7305 52.7998L70.0105 56.3498L75.8405 61.1898C75.67 61.965 75.5464 62.7497 75.4705 63.5398C75.1605 66.6998 75.9705 69.5398 80.6205 70.6798C80.6205 70.6798 86.1405 74.3298 77.9505 74.9898L74.8605 75.1098Z" fill="#CE7A63"/>
<path opacity="0.2" d="M75.7904 61.2196C75.6199 61.9948 75.4964 62.7795 75.4204 63.5696C73.2504 63.1396 70.3404 60.8196 70.0404 58.5696C69.938 57.8343 69.9112 57.0904 69.9604 56.3496L75.7904 61.2196Z" fill="black"/>
<path d="M63.9208 45.4196C65.4108 52.2596 65.9208 56.3296 69.9208 59.4196C71.2228 60.4476 72.781 61.1002 74.427 61.3068C76.0729 61.5133 77.744 61.266 79.2597 60.5916C80.7753 59.9172 82.0777 58.8414 83.0261 57.4804C83.9746 56.1194 84.5329 54.525 84.6409 52.8696C85.1809 46.4996 82.6408 36.3796 75.4608 34.4396C73.9128 33.9875 72.2731 33.9498 70.7059 34.3304C69.1386 34.7109 67.6988 35.4963 66.5304 36.608C65.362 37.7197 64.506 39.1187 64.0481 40.6651C63.5901 42.2114 63.5462 43.851 63.9208 45.4196Z" fill="#CE7A63"/>
<path d="M62.3402 52.5599C63.4457 53.895 64.9791 54.8066 66.6802 55.1399C68.8402 55.5099 69.3302 53.5099 68.2302 51.5799C67.2302 49.8399 64.9302 47.58 63.0102 48.07C61.0902 48.56 60.9402 50.8799 62.3402 52.5599Z" fill="#CE7A63"/>
<path d="M74.7107 46.0996C74.8007 46.6596 75.1707 47.0996 75.5407 47.0296C75.9107 46.9596 76.1307 46.4996 76.0507 45.9396C75.9707 45.3796 75.5907 44.9396 75.2207 44.9996C74.8507 45.0596 74.6307 45.5396 74.7107 46.0996Z" fill="#263238"/>
<path d="M81.0808 45.3399C81.1708 45.8999 81.5408 46.3399 81.9108 46.2799C82.2808 46.2199 82.5008 45.7398 82.4208 45.1798C82.3408 44.6198 81.9608 44.1799 81.5908 44.2399C81.2208 44.2999 81.0008 44.7799 81.0808 45.3399Z" fill="#263238"/>
<path d="M79.1006 45.8594C80.0411 47.4976 81.1944 49.004 82.5306 50.3394C82.182 50.6587 81.7677 50.8977 81.3167 51.0394C80.8657 51.181 80.3891 51.222 79.9206 51.1594L79.1006 45.8594Z" fill="#BA4D3C"/>
<path d="M77.8508 53.0001C77.1927 53.0086 76.5397 52.8836 75.9313 52.6326C75.3229 52.3817 74.7716 52.01 74.3108 51.5401C74.2907 51.5249 74.2742 51.5054 74.2625 51.4831C74.2508 51.4607 74.2442 51.436 74.2433 51.4108C74.2423 51.3856 74.247 51.3605 74.257 51.3373C74.2669 51.3141 74.2819 51.2934 74.3009 51.2767C74.3198 51.2601 74.3422 51.2478 74.3665 51.2409C74.3907 51.234 74.4162 51.2325 74.4411 51.2367C74.466 51.2408 74.4897 51.2505 74.5104 51.2649C74.5311 51.2793 74.5483 51.2982 74.5608 51.3201C75.0697 51.8219 75.6865 52.2008 76.3641 52.4279C77.0418 52.6549 77.7623 52.7241 78.4708 52.6301C78.4959 52.6239 78.522 52.6235 78.5472 52.6289C78.5725 52.6342 78.5962 52.6453 78.6165 52.6612C78.6368 52.6771 78.6532 52.6974 78.6645 52.7206C78.6759 52.7438 78.6817 52.7693 78.6817 52.7951C78.6817 52.8209 78.6759 52.8464 78.6645 52.8696C78.6532 52.8928 78.6368 52.9131 78.6165 52.929C78.5962 52.9449 78.5725 52.956 78.5472 52.9614C78.522 52.9668 78.4959 52.9663 78.4708 52.9601C78.2652 52.9861 78.0581 52.9995 77.8508 53.0001Z" fill="#263238"/>
<path d="M72.4303 44.2796C72.378 44.2947 72.3226 44.2947 72.2703 44.2796C72.2321 44.2588 72.1984 44.2305 72.1712 44.1965C72.1439 44.1626 72.1237 44.1235 72.1116 44.0817C72.0995 44.0399 72.0958 43.9961 72.1007 43.9528C72.1057 43.9096 72.1191 43.8677 72.1403 43.8297C72.3842 43.3648 72.7391 42.9674 73.1735 42.6726C73.6078 42.3778 74.1082 42.1947 74.6303 42.1396C74.7092 42.1533 74.7808 42.1944 74.8323 42.2557C74.8839 42.317 74.9122 42.3946 74.9122 42.4747C74.9122 42.5548 74.8839 42.6323 74.8323 42.6936C74.7808 42.7548 74.7092 42.796 74.6303 42.8096C74.2219 42.857 73.8314 43.004 73.4931 43.2377C73.1549 43.4713 72.8792 43.7845 72.6903 44.1496C72.6592 44.1892 72.6198 44.2214 72.5749 44.2438C72.5299 44.2663 72.4805 44.2785 72.4303 44.2796Z" fill="#263238"/>
<path d="M83.4805 42.8302C83.4276 42.8302 83.3754 42.8175 83.3284 42.7931C83.2814 42.7687 83.241 42.7334 83.2105 42.6902C82.9794 42.3303 82.6692 42.0279 82.3035 41.8061C81.9379 41.5843 81.5264 41.4489 81.1005 41.4102C81.0572 41.4102 81.0143 41.4016 80.9742 41.385C80.9342 41.3685 80.8978 41.3441 80.8672 41.3135C80.8365 41.2828 80.8122 41.2465 80.7956 41.2064C80.779 41.1664 80.7705 41.1235 80.7705 41.0802C80.7705 41.036 80.7793 40.9922 80.7965 40.9515C80.8137 40.9108 80.839 40.874 80.8707 40.8432C80.9024 40.8124 80.9399 40.7883 80.9811 40.7723C81.0223 40.7564 81.0663 40.7488 81.1105 40.7502C81.6433 40.7852 82.1606 40.9446 82.6207 41.2155C83.0809 41.4864 83.4712 41.8613 83.7605 42.3101C83.808 42.3853 83.8251 42.4757 83.8084 42.5629C83.7917 42.6502 83.7424 42.7279 83.6705 42.7802C83.6122 42.812 83.5469 42.8291 83.4805 42.8302Z" fill="#263238"/>
<path d="M41.0804 138.21L37.9404 144.59L46.7304 143.41C46.7304 143.41 48.4904 137.27 45.2504 136.62L41.0804 138.21Z" fill="#CE7A63"/>
<path d="M40.3904 150.75L47.6004 149.43L46.7304 143.41L37.9404 144.59L40.3904 150.75Z" fill="#CE7A63"/>
<path d="M67.8209 31.7198C67.8209 31.7198 64.1309 23.3398 61.4209 30.3398C61.4209 30.3398 55.4209 26.0998 55.4209 31.9998C55.4209 31.9998 50.2809 33.3298 54.1409 37.2498C54.1409 37.2498 49.6909 39.9698 54.1409 43.1898C54.1409 43.1898 52.2109 48.0998 56.6709 48.5198C56.6709 48.5198 56.6709 54.8798 60.5009 51.3298C60.5009 51.3298 61.4209 58.6798 65.5909 54.5898L66.0909 50.5898C66.0909 50.5898 69.3309 48.3398 67.0009 40.9998C67.0009 40.9998 77.1809 42.9298 75.3409 39.8398C75.3409 39.8398 84.3409 40.5898 83.2509 37.0098C83.2509 37.0098 87.7009 34.7498 85.6809 32.9198C85.6809 32.9198 88.3409 22.7398 82.2509 26.0398C82.2509 26.0398 79.8409 19.5098 77.0009 25.3798C77.0009 25.3798 74.0009 24.5798 73.5209 28.1698C73.5209 28.1698 72.1609 27.1698 71.7109 30.3398L67.8209 31.7198Z" fill="#263238"/>
<path d="M62.1006 47.7798V40.4398C62.0994 38.269 62.7983 36.1557 64.0935 34.4137C65.3888 32.6716 67.2114 31.3938 69.2906 30.7698L71.7506 30.3398C69.6176 30.9771 67.7472 32.2858 66.4176 34.0713C65.0879 35.8567 64.37 38.0237 64.3706 40.2498V47.7798H62.1006Z" fill="#37379E"/>
<path d="M67.7901 51.3293C68.0401 54.1193 66.6101 56.3293 64.6101 56.3293C62.6101 56.3293 60.7901 54.0693 60.5401 51.3293C60.2901 48.5893 61.7201 46.2793 63.7301 46.2793C65.7401 46.2793 67.5501 48.5393 67.7901 51.3293Z" fill="#37379E"/>
<path opacity="0.5" d="M67.7901 51.3293C68.0401 54.1193 66.6101 56.3293 64.6101 56.3293C62.6101 56.3293 60.7901 54.0693 60.5401 51.3293C60.2901 48.5893 61.7201 46.2793 63.7301 46.2793C65.7401 46.2793 67.5501 48.5393 67.7901 51.3293Z" fill="black"/>
<path d="M66.5802 51.3293C66.8202 54.1193 65.4002 56.3293 63.4002 56.3293C61.4002 56.3293 59.5702 54.0693 59.3302 51.3293C59.0902 48.5893 60.5102 46.2793 62.5102 46.2793C64.5102 46.2793 66.3402 48.5393 66.5802 51.3293Z" fill="#37379E"/>
<g opacity="0.5">
<path d="M59.7402 52.0693C60.1102 53.5093 61.1302 54.5893 62.2402 54.5893C63.3502 54.5893 64.1802 53.5093 64.2902 52.0693H59.7402Z" fill="white"/>
<path d="M64.1703 50.5893C63.8003 49.1493 62.7803 48.0693 61.6703 48.0693C60.5603 48.0693 59.7304 49.1493 59.6104 50.5893H64.1703Z" fill="white"/>
</g>
</g>
<defs>
<clipPath id="clip0_2157_4811">
<rect width="399" height="329" fill="white"/>
</clipPath>
</defs>
</svg>
